G04 #@! TF.FileFunction,Copper,L2,Bot,Signal*
%FSLAX46Y46*%
G04 Gerber Fmt 4.6, Leading zero omitted, Abs format (unit mm)*
G04 Created by KiCad (PCBNEW 4.0.7) date 07/03/18 10:44:24*
%MOMM*%
%LPD*%
G01*
G04 APERTURE LIST*
%ADD10C,0.100000*%
%ADD11R,0.381000X1.016000*%
%ADD12C,0.600000*%
%ADD13C,0.250000*%
G04 APERTURE END LIST*
D10*
D11*
X166116000Y-123698000D03*
X165481000Y-123698000D03*
X164846000Y-123698000D03*
X164211000Y-123698000D03*
X163576000Y-123698000D03*
X162941000Y-123698000D03*
X162306000Y-123698000D03*
X161671000Y-123698000D03*
X161036000Y-123698000D03*
X160401000Y-123698000D03*
X160401000Y-121920000D03*
X161036000Y-121920000D03*
X161671000Y-121920000D03*
X162306000Y-121920000D03*
X162941000Y-121920000D03*
X163576000Y-121920000D03*
X164211000Y-121920000D03*
X164846000Y-121920000D03*
X165481000Y-121920000D03*
X166116000Y-121920000D03*
D12*
X158242000Y-125730000D03*
X159258000Y-125730000D03*
X160274000Y-125730000D03*
X161163000Y-125730000D03*
X162179000Y-125730000D03*
X163195000Y-125730000D03*
X164211000Y-125730000D03*
X165227000Y-125730000D03*
X166243000Y-125730000D03*
X167259000Y-125730000D03*
X158750000Y-119888000D03*
X159766000Y-119888000D03*
X160782000Y-119888000D03*
X161798000Y-119888000D03*
X162814000Y-119888000D03*
X163830000Y-119888000D03*
X164846000Y-119888000D03*
X165735000Y-119888000D03*
X166751000Y-119888000D03*
X167767000Y-119888000D03*
D13*
X160401000Y-123698000D02*
X158496000Y-123698000D01*
X158242000Y-123952000D02*
X158242000Y-125730000D01*
X158496000Y-123698000D02*
X158242000Y-123952000D01*
X161036000Y-123698000D02*
X161036000Y-124333000D01*
X159258000Y-124714000D02*
X159258000Y-125730000D01*
X159385000Y-124587000D02*
X159258000Y-124714000D01*
X160782000Y-124587000D02*
X159385000Y-124587000D01*
X161036000Y-124333000D02*
X160782000Y-124587000D01*
X161671000Y-123698000D02*
X161671000Y-124460000D01*
X160274000Y-125222000D02*
X160274000Y-125730000D01*
X160458998Y-125037002D02*
X160274000Y-125222000D01*
X161093998Y-125037002D02*
X160458998Y-125037002D01*
X161671000Y-124460000D02*
X161093998Y-125037002D01*
X162306000Y-123698000D02*
X162306000Y-124714000D01*
X161544000Y-125349000D02*
X161163000Y-125730000D01*
X161671000Y-125349000D02*
X161544000Y-125349000D01*
X162306000Y-124714000D02*
X161671000Y-125349000D01*
X162941000Y-123698000D02*
X162941000Y-124968000D01*
X162941000Y-124968000D02*
X162179000Y-125730000D01*
X163576000Y-123698000D02*
X163576000Y-125349000D01*
X163576000Y-125349000D02*
X163195000Y-125730000D01*
X164211000Y-123698000D02*
X164211000Y-125730000D01*
X164846000Y-123698000D02*
X164846000Y-124968000D01*
X165227000Y-125349000D02*
X165227000Y-125730000D01*
X164846000Y-124968000D02*
X165227000Y-125349000D01*
X165481000Y-123698000D02*
X165481000Y-124333000D01*
X166243000Y-125095000D02*
X166243000Y-125730000D01*
X165481000Y-124333000D02*
X166243000Y-125095000D01*
X166116000Y-123698000D02*
X166751000Y-123698000D01*
X167259000Y-124206000D02*
X167259000Y-125730000D01*
X166751000Y-123698000D02*
X167259000Y-124206000D01*
X160401000Y-121920000D02*
X159004000Y-121920000D01*
X158750000Y-121666000D02*
X158750000Y-119888000D01*
X159004000Y-121920000D02*
X158750000Y-121666000D01*
X161036000Y-121920000D02*
X161036000Y-121158000D01*
X159766000Y-120904000D02*
X159766000Y-119888000D01*
X159893000Y-121031000D02*
X159766000Y-120904000D01*
X160909000Y-121031000D02*
X159893000Y-121031000D01*
X161036000Y-121158000D02*
X160909000Y-121031000D01*
X161671000Y-121920000D02*
X161671000Y-120650000D01*
X160782000Y-120142000D02*
X160782000Y-119888000D01*
X161036000Y-120396000D02*
X160782000Y-120142000D01*
X161417000Y-120396000D02*
X161036000Y-120396000D01*
X161671000Y-120650000D02*
X161417000Y-120396000D01*
X162306000Y-121920000D02*
X162306000Y-120269000D01*
X161925000Y-119888000D02*
X161798000Y-119888000D01*
X162306000Y-120269000D02*
X161925000Y-119888000D01*
X162941000Y-121920000D02*
X162941000Y-120015000D01*
X162941000Y-120015000D02*
X162814000Y-119888000D01*
X163576000Y-121920000D02*
X163576000Y-120142000D01*
X163576000Y-120142000D02*
X163830000Y-119888000D01*
X164211000Y-121920000D02*
X164211000Y-120523000D01*
X164211000Y-120523000D02*
X164846000Y-119888000D01*
X164846000Y-121920000D02*
X164846000Y-121031000D01*
X165735000Y-120142000D02*
X165735000Y-119888000D01*
X164846000Y-121031000D02*
X165735000Y-120142000D01*
X165481000Y-121920000D02*
X165481000Y-121285000D01*
X166751000Y-120142000D02*
X166751000Y-119888000D01*
X166624000Y-120396000D02*
X166751000Y-120142000D01*
X166370000Y-120396000D02*
X166624000Y-120396000D01*
X165481000Y-121285000D02*
X166370000Y-120396000D01*
X166116000Y-121920000D02*
X167259000Y-121920000D01*
X167767000Y-121412000D02*
X167767000Y-119888000D01*
X167259000Y-121920000D02*
X167767000Y-121412000D01*
M02*
