M48
;DRILL file {KiCad 4.0.7} date 07/03/18 10:44:28
;FORMAT={-:-/ absolute / inch / decimal}
FMAT,2
INCH,TZ
T1C0.016
%
G90
G05
M72
T1
X6.23Y-4.95
X6.25Y-4.72
X6.27Y-4.95
X6.29Y-4.72
X6.31Y-4.95
X6.33Y-4.72
X6.345Y-4.95
X6.37Y-4.72
X6.385Y-4.95
X6.41Y-4.72
X6.425Y-4.95
X6.45Y-4.72
X6.465Y-4.95
X6.49Y-4.72
X6.505Y-4.95
X6.525Y-4.72
X6.545Y-4.95
X6.565Y-4.72
X6.585Y-4.95
X6.605Y-4.72
T0
M30
