G04 #@! TF.FileFunction,Soldermask,Bot*
%FSLAX46Y46*%
G04 Gerber Fmt 4.6, Leading zero omitted, Abs format (unit mm)*
G04 Created by KiCad (PCBNEW 4.0.7) date 07/03/18 10:48:42*
%MOMM*%
%LPD*%
G01*
G04 APERTURE LIST*
%ADD10C,0.100000*%
%ADD11R,1.900000X0.800000*%
%ADD12C,0.831800*%
G04 APERTURE END LIST*
D10*
D11*
X156349000Y-114132000D03*
X153549000Y-114132000D03*
X153549000Y-102632000D03*
X156349000Y-103632000D03*
X156349000Y-104632000D03*
X156349000Y-105632000D03*
X156349000Y-106632000D03*
X156349000Y-107632000D03*
X156349000Y-108632000D03*
X156349000Y-109632000D03*
X156349000Y-110632000D03*
X156349000Y-111632000D03*
X156349000Y-112632000D03*
X153549000Y-104132000D03*
X153549000Y-105132000D03*
X153549000Y-106132000D03*
X153549000Y-107132000D03*
X153549000Y-108132000D03*
X153549000Y-109132000D03*
X153549000Y-110132000D03*
X153549000Y-111132000D03*
X153549000Y-112132000D03*
X153549000Y-113132000D03*
X156349000Y-102632000D03*
X149491000Y-114132000D03*
X146691000Y-114132000D03*
X146691000Y-102632000D03*
X149491000Y-103632000D03*
X149491000Y-104632000D03*
X149491000Y-105632000D03*
X149491000Y-106632000D03*
X149491000Y-107632000D03*
X149491000Y-108632000D03*
X149491000Y-109632000D03*
X149491000Y-110632000D03*
X149491000Y-111632000D03*
X149491000Y-112632000D03*
X146691000Y-104132000D03*
X146691000Y-105132000D03*
X146691000Y-106132000D03*
X146691000Y-107132000D03*
X146691000Y-108132000D03*
X146691000Y-109132000D03*
X146691000Y-110132000D03*
X146691000Y-111132000D03*
X146691000Y-112132000D03*
X146691000Y-113132000D03*
X149491000Y-102632000D03*
D12*
X151892000Y-102489000D03*
X151130000Y-102489000D03*
X151892000Y-103124000D03*
X151130000Y-103124000D03*
X151892000Y-103759000D03*
X151130000Y-103759000D03*
X151892000Y-104394000D03*
X151130000Y-104394000D03*
X151892000Y-105029000D03*
X151130000Y-105029000D03*
X151892000Y-105664000D03*
X151130000Y-105664000D03*
X151892000Y-106299000D03*
X151130000Y-106299000D03*
X151892000Y-106934000D03*
X151130000Y-106934000D03*
X151892000Y-107569000D03*
X151130000Y-107569000D03*
X151892000Y-108204000D03*
X151130000Y-108204000D03*
X151892000Y-108839000D03*
X151130000Y-108839000D03*
X151892000Y-109474000D03*
X151130000Y-109474000D03*
X151892000Y-110109000D03*
X151130000Y-110109000D03*
X151892000Y-110744000D03*
X151130000Y-110744000D03*
X151892000Y-111379000D03*
X151130000Y-111379000D03*
X151892000Y-112014000D03*
X151130000Y-112014000D03*
X151892000Y-112649000D03*
X151130000Y-112649000D03*
X151892000Y-113284000D03*
X151130000Y-113284000D03*
M02*
