G04 #@! TF.FileFunction,Copper,L1,Top,Signal*
%FSLAX46Y46*%
G04 Gerber Fmt 4.6, Leading zero omitted, Abs format (unit mm)*
G04 Created by KiCad (PCBNEW 4.0.7) date 07/03/18 10:48:42*
%MOMM*%
%LPD*%
G01*
G04 APERTURE LIST*
%ADD10C,0.100000*%
%ADD11C,0.431800*%
%ADD12C,0.497840*%
%ADD13C,0.203200*%
G04 APERTURE END LIST*
D10*
D11*
X151892000Y-102489000D03*
X151130000Y-102489000D03*
X151892000Y-103124000D03*
X151130000Y-103124000D03*
X151892000Y-103759000D03*
X151130000Y-103759000D03*
X151892000Y-104394000D03*
X151130000Y-104394000D03*
X151892000Y-105029000D03*
X151130000Y-105029000D03*
X151892000Y-105664000D03*
X151130000Y-105664000D03*
X151892000Y-106299000D03*
X151130000Y-106299000D03*
X151892000Y-106934000D03*
X151130000Y-106934000D03*
X151892000Y-107569000D03*
X151130000Y-107569000D03*
X151892000Y-108204000D03*
X151130000Y-108204000D03*
X151892000Y-108839000D03*
X151130000Y-108839000D03*
X151892000Y-109474000D03*
X151130000Y-109474000D03*
X151892000Y-110109000D03*
X151130000Y-110109000D03*
X151892000Y-110744000D03*
X151130000Y-110744000D03*
X151892000Y-111379000D03*
X151130000Y-111379000D03*
X151892000Y-112014000D03*
X151130000Y-112014000D03*
X151892000Y-112649000D03*
X151130000Y-112649000D03*
X151892000Y-113284000D03*
X151130000Y-113284000D03*
D12*
X154940000Y-103505000D03*
X154940000Y-104521000D03*
X154940000Y-105537000D03*
X154940000Y-106553000D03*
X154940000Y-107569000D03*
X154940000Y-108585000D03*
X154940000Y-109601000D03*
X154940000Y-110617000D03*
X154940000Y-112903000D03*
X148082000Y-103505000D03*
X148082000Y-104902000D03*
X148082000Y-106045000D03*
X148082000Y-107061000D03*
X148082000Y-108077000D03*
X148082000Y-109093000D03*
X148082000Y-110109000D03*
X148082000Y-111125000D03*
X148082000Y-112141000D03*
D13*
X154559000Y-103124000D02*
X151892000Y-103124000D01*
X154940000Y-103505000D02*
X154559000Y-103124000D01*
X154813000Y-104394000D02*
X151892000Y-104394000D01*
X154940000Y-104521000D02*
X154813000Y-104394000D01*
X154813000Y-105664000D02*
X151892000Y-105664000D01*
X154940000Y-105537000D02*
X154813000Y-105664000D01*
X154559000Y-106934000D02*
X151892000Y-106934000D01*
X154940000Y-106553000D02*
X154559000Y-106934000D01*
X154305000Y-108204000D02*
X151892000Y-108204000D01*
X154940000Y-107569000D02*
X154305000Y-108204000D01*
X154051000Y-109474000D02*
X151892000Y-109474000D01*
X154940000Y-108585000D02*
X154051000Y-109474000D01*
X153797000Y-110744000D02*
X151892000Y-110744000D01*
X154940000Y-109601000D02*
X153797000Y-110744000D01*
X151892000Y-112014000D02*
X153543000Y-112014000D01*
X153543000Y-112014000D02*
X154940000Y-110617000D01*
X151892000Y-113284000D02*
X154559000Y-113284000D01*
X154559000Y-113284000D02*
X154940000Y-112903000D01*
X148463000Y-103124000D02*
X151130000Y-103124000D01*
X148082000Y-103505000D02*
X148463000Y-103124000D01*
X148590000Y-104394000D02*
X151130000Y-104394000D01*
X148082000Y-104902000D02*
X148590000Y-104394000D01*
X148463000Y-105664000D02*
X151130000Y-105664000D01*
X148082000Y-106045000D02*
X148463000Y-105664000D01*
X148209000Y-106934000D02*
X151130000Y-106934000D01*
X148082000Y-107061000D02*
X148209000Y-106934000D01*
X148209000Y-108204000D02*
X151130000Y-108204000D01*
X148082000Y-108077000D02*
X148209000Y-108204000D01*
X148463000Y-109474000D02*
X151130000Y-109474000D01*
X148082000Y-109093000D02*
X148463000Y-109474000D01*
X148717000Y-110744000D02*
X151130000Y-110744000D01*
X148082000Y-110109000D02*
X148717000Y-110744000D01*
X148971000Y-112014000D02*
X151130000Y-112014000D01*
X148082000Y-111125000D02*
X148971000Y-112014000D01*
X149225000Y-113284000D02*
X151130000Y-113284000D01*
X148082000Y-112141000D02*
X149225000Y-113284000D01*
M02*
