G04 #@! TF.FileFunction,Copper,L2,Bot,Signal*
%FSLAX46Y46*%
G04 Gerber Fmt 4.6, Leading zero omitted, Abs format (unit mm)*
G04 Created by KiCad (PCBNEW 4.0.7) date 07/03/18 10:48:42*
%MOMM*%
%LPD*%
G01*
G04 APERTURE LIST*
%ADD10C,0.100000*%
%ADD11R,1.500000X0.400000*%
%ADD12C,0.431800*%
%ADD13C,0.497840*%
%ADD14C,0.203200*%
G04 APERTURE END LIST*
D10*
D11*
X156349000Y-114132000D03*
X153549000Y-114132000D03*
X153549000Y-102632000D03*
X156349000Y-103632000D03*
X156349000Y-104632000D03*
X156349000Y-105632000D03*
X156349000Y-106632000D03*
X156349000Y-107632000D03*
X156349000Y-108632000D03*
X156349000Y-109632000D03*
X156349000Y-110632000D03*
X156349000Y-111632000D03*
X156349000Y-112632000D03*
X153549000Y-104132000D03*
X153549000Y-105132000D03*
X153549000Y-106132000D03*
X153549000Y-107132000D03*
X153549000Y-108132000D03*
X153549000Y-109132000D03*
X153549000Y-110132000D03*
X153549000Y-111132000D03*
X153549000Y-112132000D03*
X153549000Y-113132000D03*
X156349000Y-102632000D03*
X149491000Y-114132000D03*
X146691000Y-114132000D03*
X146691000Y-102632000D03*
X149491000Y-103632000D03*
X149491000Y-104632000D03*
X149491000Y-105632000D03*
X149491000Y-106632000D03*
X149491000Y-107632000D03*
X149491000Y-108632000D03*
X149491000Y-109632000D03*
X149491000Y-110632000D03*
X149491000Y-111632000D03*
X149491000Y-112632000D03*
X146691000Y-104132000D03*
X146691000Y-105132000D03*
X146691000Y-106132000D03*
X146691000Y-107132000D03*
X146691000Y-108132000D03*
X146691000Y-109132000D03*
X146691000Y-110132000D03*
X146691000Y-111132000D03*
X146691000Y-112132000D03*
X146691000Y-113132000D03*
X149491000Y-102632000D03*
D12*
X151892000Y-102489000D03*
X151130000Y-102489000D03*
X151892000Y-103124000D03*
X151130000Y-103124000D03*
X151892000Y-103759000D03*
X151130000Y-103759000D03*
X151892000Y-104394000D03*
X151130000Y-104394000D03*
X151892000Y-105029000D03*
X151130000Y-105029000D03*
X151892000Y-105664000D03*
X151130000Y-105664000D03*
X151892000Y-106299000D03*
X151130000Y-106299000D03*
X151892000Y-106934000D03*
X151130000Y-106934000D03*
X151892000Y-107569000D03*
X151130000Y-107569000D03*
X151892000Y-108204000D03*
X151130000Y-108204000D03*
X151892000Y-108839000D03*
X151130000Y-108839000D03*
X151892000Y-109474000D03*
X151130000Y-109474000D03*
X151892000Y-110109000D03*
X151130000Y-110109000D03*
X151892000Y-110744000D03*
X151130000Y-110744000D03*
X151892000Y-111379000D03*
X151130000Y-111379000D03*
X151892000Y-112014000D03*
X151130000Y-112014000D03*
X151892000Y-112649000D03*
X151130000Y-112649000D03*
X151892000Y-113284000D03*
X151130000Y-113284000D03*
D13*
X154940000Y-103505000D03*
X154940000Y-104521000D03*
X154940000Y-105537000D03*
X154940000Y-106553000D03*
X154940000Y-107569000D03*
X154940000Y-108585000D03*
X154940000Y-109601000D03*
X154940000Y-110617000D03*
X154940000Y-112903000D03*
X148082000Y-103505000D03*
X148082000Y-104902000D03*
X148082000Y-106045000D03*
X148082000Y-107061000D03*
X148082000Y-108077000D03*
X148082000Y-109093000D03*
X148082000Y-110109000D03*
X148082000Y-111125000D03*
X148082000Y-112141000D03*
D14*
X156349000Y-103632000D02*
X155067000Y-103632000D01*
X155067000Y-103632000D02*
X154940000Y-103505000D01*
X156349000Y-104632000D02*
X155051000Y-104632000D01*
X155051000Y-104632000D02*
X154940000Y-104521000D01*
X156349000Y-105632000D02*
X155035000Y-105632000D01*
X155035000Y-105632000D02*
X154940000Y-105537000D01*
X156349000Y-106632000D02*
X155019000Y-106632000D01*
X155019000Y-106632000D02*
X154940000Y-106553000D01*
X156349000Y-107632000D02*
X155003000Y-107632000D01*
X155003000Y-107632000D02*
X154940000Y-107569000D01*
X156349000Y-108632000D02*
X154987000Y-108632000D01*
X154987000Y-108632000D02*
X154940000Y-108585000D01*
X156349000Y-109632000D02*
X154971000Y-109632000D01*
X154971000Y-109632000D02*
X154940000Y-109601000D01*
X154955000Y-110632000D02*
X156349000Y-110632000D01*
X154940000Y-110617000D02*
X154955000Y-110632000D01*
X155195000Y-111632000D02*
X156349000Y-111632000D01*
X154940000Y-111887000D02*
X155195000Y-111632000D01*
X154940000Y-112903000D02*
X154940000Y-111887000D01*
X153549000Y-104132000D02*
X153027000Y-104132000D01*
X153027000Y-104132000D02*
X152400000Y-103505000D01*
X152400000Y-103505000D02*
X152400000Y-102743000D01*
X152400000Y-102743000D02*
X152146000Y-102489000D01*
X152146000Y-102489000D02*
X151892000Y-102489000D01*
X153549000Y-105132000D02*
X153011000Y-105132000D01*
X153011000Y-105132000D02*
X152400000Y-104521000D01*
X152400000Y-104521000D02*
X152400000Y-104140000D01*
X152400000Y-104140000D02*
X152019000Y-103759000D01*
X152019000Y-103759000D02*
X151892000Y-103759000D01*
X153549000Y-106132000D02*
X152741000Y-106132000D01*
X152146000Y-105029000D02*
X151892000Y-105029000D01*
X152400000Y-105283000D02*
X152146000Y-105029000D01*
X152400000Y-105791000D02*
X152400000Y-105283000D01*
X152741000Y-106132000D02*
X152400000Y-105791000D01*
X153549000Y-107132000D02*
X152852000Y-107132000D01*
X152852000Y-107132000D02*
X152400000Y-106680000D01*
X152400000Y-106680000D02*
X152400000Y-106426000D01*
X152400000Y-106426000D02*
X152273000Y-106299000D01*
X152273000Y-106299000D02*
X151892000Y-106299000D01*
X153549000Y-108132000D02*
X152709000Y-108132000D01*
X152273000Y-107569000D02*
X151892000Y-107569000D01*
X152400000Y-107696000D02*
X152273000Y-107569000D01*
X152400000Y-107823000D02*
X152400000Y-107696000D01*
X152709000Y-108132000D02*
X152400000Y-107823000D01*
X153549000Y-109132000D02*
X152693000Y-109132000D01*
X152400000Y-108839000D02*
X151892000Y-108839000D01*
X152693000Y-109132000D02*
X152400000Y-108839000D01*
X153549000Y-110132000D02*
X151915000Y-110132000D01*
X151915000Y-110132000D02*
X151892000Y-110109000D01*
X153549000Y-111132000D02*
X152520000Y-111132000D01*
X152273000Y-111379000D02*
X151892000Y-111379000D01*
X152520000Y-111132000D02*
X152273000Y-111379000D01*
X153549000Y-112132000D02*
X152790000Y-112132000D01*
X152400000Y-112522000D02*
X152019000Y-112522000D01*
X152790000Y-112132000D02*
X152400000Y-112522000D01*
X152019000Y-112522000D02*
X151892000Y-112649000D01*
X149491000Y-103632000D02*
X150368000Y-103632000D01*
X150876000Y-102489000D02*
X151130000Y-102489000D01*
X150622000Y-102743000D02*
X150876000Y-102489000D01*
X150622000Y-103378000D02*
X150622000Y-102743000D01*
X150368000Y-103632000D02*
X150622000Y-103378000D01*
X149491000Y-104632000D02*
X150511000Y-104632000D01*
X150876000Y-103759000D02*
X151130000Y-103759000D01*
X150622000Y-104013000D02*
X150876000Y-103759000D01*
X150622000Y-104521000D02*
X150622000Y-104013000D01*
X150511000Y-104632000D02*
X150622000Y-104521000D01*
X149491000Y-105632000D02*
X150527000Y-105632000D01*
X150749000Y-105029000D02*
X151130000Y-105029000D01*
X150622000Y-105156000D02*
X150749000Y-105029000D01*
X150622000Y-105537000D02*
X150622000Y-105156000D01*
X150527000Y-105632000D02*
X150622000Y-105537000D01*
X149491000Y-106632000D02*
X150416000Y-106632000D01*
X150749000Y-106299000D02*
X151130000Y-106299000D01*
X150622000Y-106426000D02*
X150749000Y-106299000D01*
X150416000Y-106632000D02*
X150622000Y-106426000D01*
X149491000Y-107632000D02*
X151067000Y-107632000D01*
X151067000Y-107632000D02*
X151130000Y-107569000D01*
X149491000Y-108632000D02*
X150542000Y-108632000D01*
X150749000Y-108839000D02*
X151130000Y-108839000D01*
X150622000Y-108712000D02*
X150749000Y-108839000D01*
X150542000Y-108632000D02*
X150622000Y-108712000D01*
X149491000Y-109632000D02*
X150399000Y-109632000D01*
X150876000Y-110109000D02*
X151130000Y-110109000D01*
X150399000Y-109632000D02*
X150876000Y-110109000D01*
X149491000Y-110632000D02*
X150383000Y-110632000D01*
X150876000Y-111379000D02*
X151130000Y-111379000D01*
X150622000Y-111125000D02*
X150876000Y-111379000D01*
X150622000Y-110871000D02*
X150622000Y-111125000D01*
X150383000Y-110632000D02*
X150622000Y-110871000D01*
X149491000Y-111632000D02*
X150240000Y-111632000D01*
X150240000Y-111632000D02*
X150622000Y-112014000D01*
X150622000Y-112014000D02*
X150622000Y-112395000D01*
X150622000Y-112395000D02*
X150876000Y-112649000D01*
X150876000Y-112649000D02*
X151130000Y-112649000D01*
X146691000Y-104132000D02*
X147455000Y-104132000D01*
X147455000Y-104132000D02*
X148082000Y-103505000D01*
X146691000Y-105132000D02*
X147979000Y-105132000D01*
X148082000Y-105029000D02*
X148082000Y-104902000D01*
X147979000Y-105132000D02*
X148082000Y-105029000D01*
X146691000Y-106132000D02*
X147995000Y-106132000D01*
X147995000Y-106132000D02*
X148082000Y-106045000D01*
X146691000Y-107132000D02*
X148011000Y-107132000D01*
X148011000Y-107132000D02*
X148082000Y-107061000D01*
X146691000Y-108132000D02*
X148027000Y-108132000D01*
X148027000Y-108132000D02*
X148082000Y-108077000D01*
X146691000Y-109132000D02*
X148043000Y-109132000D01*
X148043000Y-109132000D02*
X148082000Y-109093000D01*
X146691000Y-110132000D02*
X148059000Y-110132000D01*
X148059000Y-110132000D02*
X148082000Y-110109000D01*
X146691000Y-111132000D02*
X148075000Y-111132000D01*
X148075000Y-111132000D02*
X148082000Y-111125000D01*
X146691000Y-112132000D02*
X148073000Y-112132000D01*
X148073000Y-112132000D02*
X148082000Y-112141000D01*
M02*
