M48
;DRILL file {KiCad 4.0.7} date 07/03/18 10:48:21
;FORMAT={-:-/ absolute / inch / decimal}
FMAT,2
INCH,TZ
T1C0.010
T2C0.010
%
G90
G05
M72
T1
X5.83Y-4.075
X5.83Y-4.13
X5.83Y-4.175
X5.83Y-4.215
X5.83Y-4.255
X5.83Y-4.295
X5.83Y-4.335
X5.83Y-4.375
X5.83Y-4.415
X6.1Y-4.075
X6.1Y-4.115
X6.1Y-4.155
X6.1Y-4.195
X6.1Y-4.235
X6.1Y-4.275
X6.1Y-4.315
X6.1Y-4.355
X6.1Y-4.445
T2
X5.95Y-4.035
X5.95Y-4.06
X5.95Y-4.085
X5.95Y-4.11
X5.95Y-4.135
X5.95Y-4.16
X5.95Y-4.185
X5.95Y-4.21
X5.95Y-4.235
X5.95Y-4.26
X5.95Y-4.285
X5.95Y-4.31
X5.95Y-4.335
X5.95Y-4.36
X5.95Y-4.385
X5.95Y-4.41
X5.95Y-4.435
X5.95Y-4.46
X5.98Y-4.035
X5.98Y-4.06
X5.98Y-4.085
X5.98Y-4.11
X5.98Y-4.135
X5.98Y-4.16
X5.98Y-4.185
X5.98Y-4.21
X5.98Y-4.235
X5.98Y-4.26
X5.98Y-4.285
X5.98Y-4.31
X5.98Y-4.335
X5.98Y-4.36
X5.98Y-4.385
X5.98Y-4.41
X5.98Y-4.435
X5.98Y-4.46
T0
M30
