G04 #@! TF.FileFunction,Legend,Bot*
%FSLAX46Y46*%
G04 Gerber Fmt 4.6, Leading zero omitted, Abs format (unit mm)*
G04 Created by KiCad (PCBNEW 4.0.7) date 07/03/18 10:48:42*
%MOMM*%
%LPD*%
G01*
G04 APERTURE LIST*
%ADD10C,0.100000*%
%ADD11C,0.050800*%
%ADD12C,0.150000*%
G04 APERTURE END LIST*
D10*
D11*
X155549000Y-114332000D02*
X155549000Y-116332000D01*
X155549000Y-116332000D02*
X154349000Y-116332000D01*
X154349000Y-114332000D02*
X154349000Y-116332000D01*
X154349000Y-102432000D02*
X154349000Y-100432000D01*
X154349000Y-100432000D02*
X155549000Y-100432000D01*
X155549000Y-102432000D02*
X155549000Y-100432000D01*
X155549000Y-100432000D02*
X155549000Y-102432000D01*
X155549000Y-114332000D02*
X155549000Y-102432000D01*
X155549000Y-102432000D02*
X154349000Y-102432000D01*
X154349000Y-102432000D02*
X154349000Y-114332000D01*
X154349000Y-114332000D02*
X155549000Y-114332000D01*
X148691000Y-114332000D02*
X148691000Y-116332000D01*
X148691000Y-116332000D02*
X147491000Y-116332000D01*
X147491000Y-114332000D02*
X147491000Y-116332000D01*
X147491000Y-102432000D02*
X147491000Y-100432000D01*
X147491000Y-100432000D02*
X148691000Y-100432000D01*
X148691000Y-102432000D02*
X148691000Y-100432000D01*
X148691000Y-100432000D02*
X148691000Y-102432000D01*
X148691000Y-114332000D02*
X148691000Y-102432000D01*
X148691000Y-102432000D02*
X147491000Y-102432000D01*
X147491000Y-102432000D02*
X147491000Y-114332000D01*
X147491000Y-114332000D02*
X148691000Y-114332000D01*
D12*
X154138381Y-114728667D02*
X154852667Y-114728667D01*
X154995524Y-114681047D01*
X155090762Y-114585809D01*
X155138381Y-114442952D01*
X155138381Y-114347714D01*
X155138381Y-115728667D02*
X155138381Y-115157238D01*
X155138381Y-115442952D02*
X154138381Y-115442952D01*
X154281238Y-115347714D01*
X154376476Y-115252476D01*
X154424095Y-115157238D01*
X147280381Y-114728667D02*
X147994667Y-114728667D01*
X148137524Y-114681047D01*
X148232762Y-114585809D01*
X148280381Y-114442952D01*
X148280381Y-114347714D01*
X147375619Y-115157238D02*
X147328000Y-115204857D01*
X147280381Y-115300095D01*
X147280381Y-115538191D01*
X147328000Y-115633429D01*
X147375619Y-115681048D01*
X147470857Y-115728667D01*
X147566095Y-115728667D01*
X147708952Y-115681048D01*
X148280381Y-115109619D01*
X148280381Y-115728667D01*
M02*
