%FSLAX45Y45*%
G04 Gerber Fmt 4.5, Leading zero omitted, Abs format (unit mm)*
G04 Created by KiCad (PCBNEW 4.0.7) date 07/03/18 10:48:22*
%MOMM*%
%LPD*%
G01*
G04 APERTURE LIST*
%ADD10C,0.127000*%
%ADD11C,0.150000*%
%ADD12C,0.200000*%
%ADD13C,0.300000*%
G04 APERTURE END LIST*
D10*
D11*
X14528800Y-11684000D02*
X14528800Y-11607800D01*
X15773400Y-11684000D02*
X14528800Y-11684000D01*
X15773400Y-11607800D02*
X15773400Y-11684000D01*
X15773400Y-10007600D02*
X15773400Y-10083800D01*
X14528800Y-10007600D02*
X15773400Y-10007600D01*
X14528800Y-10083800D02*
X14528800Y-10007600D01*
X15773400Y-11607800D02*
X15773400Y-10083800D01*
X14528800Y-10083800D02*
X14528800Y-11607800D01*
D12*
X14795754Y-10338054D02*
X14820646Y-10362946D01*
X14820646Y-10338054D02*
X14795754Y-10362946D01*
X14795754Y-10477754D02*
X14820646Y-10502646D01*
X14820646Y-10477754D02*
X14795754Y-10502646D01*
X14795754Y-10592054D02*
X14820646Y-10616946D01*
X14820646Y-10592054D02*
X14795754Y-10616946D01*
X14795754Y-10693654D02*
X14820646Y-10718546D01*
X14820646Y-10693654D02*
X14795754Y-10718546D01*
X14795754Y-10795254D02*
X14820646Y-10820146D01*
X14820646Y-10795254D02*
X14795754Y-10820146D01*
X14795754Y-10896854D02*
X14820646Y-10921746D01*
X14820646Y-10896854D02*
X14795754Y-10921746D01*
X14795754Y-10998454D02*
X14820646Y-11023346D01*
X14820646Y-10998454D02*
X14795754Y-11023346D01*
X14795754Y-11100054D02*
X14820646Y-11124946D01*
X14820646Y-11100054D02*
X14795754Y-11124946D01*
X14795754Y-11201654D02*
X14820646Y-11226546D01*
X14820646Y-11201654D02*
X14795754Y-11226546D01*
X15481554Y-10338054D02*
X15506446Y-10362946D01*
X15506446Y-10338054D02*
X15481554Y-10362946D01*
X15481554Y-10439654D02*
X15506446Y-10464546D01*
X15506446Y-10439654D02*
X15481554Y-10464546D01*
X15481554Y-10541254D02*
X15506446Y-10566146D01*
X15506446Y-10541254D02*
X15481554Y-10566146D01*
X15481554Y-10642854D02*
X15506446Y-10667746D01*
X15506446Y-10642854D02*
X15481554Y-10667746D01*
X15481554Y-10744454D02*
X15506446Y-10769346D01*
X15506446Y-10744454D02*
X15481554Y-10769346D01*
X15481554Y-10846054D02*
X15506446Y-10870946D01*
X15506446Y-10846054D02*
X15481554Y-10870946D01*
X15481554Y-10947654D02*
X15506446Y-10972546D01*
X15506446Y-10947654D02*
X15481554Y-10972546D01*
X15481554Y-11049254D02*
X15506446Y-11074146D01*
X15506446Y-11049254D02*
X15481554Y-11074146D01*
X15481554Y-11277854D02*
X15506446Y-11302746D01*
X15506446Y-11277854D02*
X15481554Y-11302746D01*
X15125700Y-10248900D02*
G75*
G03X15125700Y-10248900I-12700J0D01*
G01*
X15125700Y-10312400D02*
G75*
G03X15125700Y-10312400I-12700J0D01*
G01*
X15125700Y-10375900D02*
G75*
G03X15125700Y-10375900I-12700J0D01*
G01*
X15125700Y-10439400D02*
G75*
G03X15125700Y-10439400I-12700J0D01*
G01*
X15125700Y-10502900D02*
G75*
G03X15125700Y-10502900I-12700J0D01*
G01*
X15125700Y-10566400D02*
G75*
G03X15125700Y-10566400I-12700J0D01*
G01*
X15125700Y-10629900D02*
G75*
G03X15125700Y-10629900I-12700J0D01*
G01*
X15125700Y-10693400D02*
G75*
G03X15125700Y-10693400I-12700J0D01*
G01*
X15125700Y-10756900D02*
G75*
G03X15125700Y-10756900I-12700J0D01*
G01*
X15125700Y-10820400D02*
G75*
G03X15125700Y-10820400I-12700J0D01*
G01*
X15125700Y-10883900D02*
G75*
G03X15125700Y-10883900I-12700J0D01*
G01*
X15125700Y-10947400D02*
G75*
G03X15125700Y-10947400I-12700J0D01*
G01*
X15125700Y-11010900D02*
G75*
G03X15125700Y-11010900I-12700J0D01*
G01*
X15125700Y-11074400D02*
G75*
G03X15125700Y-11074400I-12700J0D01*
G01*
X15125700Y-11137900D02*
G75*
G03X15125700Y-11137900I-12700J0D01*
G01*
X15125700Y-11201400D02*
G75*
G03X15125700Y-11201400I-12700J0D01*
G01*
X15125700Y-11264900D02*
G75*
G03X15125700Y-11264900I-12700J0D01*
G01*
X15125700Y-11328400D02*
G75*
G03X15125700Y-11328400I-12700J0D01*
G01*
X15201900Y-10248900D02*
G75*
G03X15201900Y-10248900I-12700J0D01*
G01*
X15201900Y-10312400D02*
G75*
G03X15201900Y-10312400I-12700J0D01*
G01*
X15201900Y-10375900D02*
G75*
G03X15201900Y-10375900I-12700J0D01*
G01*
X15201900Y-10439400D02*
G75*
G03X15201900Y-10439400I-12700J0D01*
G01*
X15201900Y-10502900D02*
G75*
G03X15201900Y-10502900I-12700J0D01*
G01*
X15201900Y-10566400D02*
G75*
G03X15201900Y-10566400I-12700J0D01*
G01*
X15201900Y-10629900D02*
G75*
G03X15201900Y-10629900I-12700J0D01*
G01*
X15201900Y-10693400D02*
G75*
G03X15201900Y-10693400I-12700J0D01*
G01*
X15201900Y-10756900D02*
G75*
G03X15201900Y-10756900I-12700J0D01*
G01*
X15201900Y-10820400D02*
G75*
G03X15201900Y-10820400I-12700J0D01*
G01*
X15201900Y-10883900D02*
G75*
G03X15201900Y-10883900I-12700J0D01*
G01*
X15201900Y-10947400D02*
G75*
G03X15201900Y-10947400I-12700J0D01*
G01*
X15201900Y-11010900D02*
G75*
G03X15201900Y-11010900I-12700J0D01*
G01*
X15201900Y-11074400D02*
G75*
G03X15201900Y-11074400I-12700J0D01*
G01*
X15201900Y-11137900D02*
G75*
G03X15201900Y-11137900I-12700J0D01*
G01*
X15201900Y-11201400D02*
G75*
G03X15201900Y-11201400I-12700J0D01*
G01*
X15201900Y-11264900D02*
G75*
G03X15201900Y-11264900I-12700J0D01*
G01*
X15201900Y-11328400D02*
G75*
G03X15201900Y-11328400I-12700J0D01*
G01*
D13*
X14792728Y-12157214D02*
X14792728Y-11857214D01*
X14864157Y-11857214D01*
X14907014Y-11871500D01*
X14935586Y-11900071D01*
X14949871Y-11928643D01*
X14964157Y-11985786D01*
X14964157Y-12028643D01*
X14949871Y-12085786D01*
X14935586Y-12114357D01*
X14907014Y-12142929D01*
X14864157Y-12157214D01*
X14792728Y-12157214D01*
X15092728Y-12157214D02*
X15092728Y-11957214D01*
X15092728Y-12014357D02*
X15107014Y-11985786D01*
X15121300Y-11971500D01*
X15149871Y-11957214D01*
X15178443Y-11957214D01*
X15278443Y-12157214D02*
X15278443Y-11957214D01*
X15278443Y-11857214D02*
X15264157Y-11871500D01*
X15278443Y-11885786D01*
X15292728Y-11871500D01*
X15278443Y-11857214D01*
X15278443Y-11885786D01*
X15464157Y-12157214D02*
X15435586Y-12142929D01*
X15421300Y-12114357D01*
X15421300Y-11857214D01*
X15621300Y-12157214D02*
X15592728Y-12142929D01*
X15578443Y-12114357D01*
X15578443Y-11857214D01*
X15964157Y-12157214D02*
X15964157Y-11857214D01*
X16064157Y-12071500D01*
X16164157Y-11857214D01*
X16164157Y-12157214D01*
X16435586Y-12157214D02*
X16435586Y-12000071D01*
X16421300Y-11971500D01*
X16392728Y-11957214D01*
X16335586Y-11957214D01*
X16307014Y-11971500D01*
X16435586Y-12142929D02*
X16407014Y-12157214D01*
X16335586Y-12157214D01*
X16307014Y-12142929D01*
X16292728Y-12114357D01*
X16292728Y-12085786D01*
X16307014Y-12057214D01*
X16335586Y-12042929D01*
X16407014Y-12042929D01*
X16435586Y-12028643D01*
X16578443Y-11957214D02*
X16578443Y-12257214D01*
X16578443Y-11971500D02*
X16607014Y-11957214D01*
X16664157Y-11957214D01*
X16692728Y-11971500D01*
X16707014Y-11985786D01*
X16721300Y-12014357D01*
X16721300Y-12100071D01*
X16707014Y-12128643D01*
X16692728Y-12142929D01*
X16664157Y-12157214D01*
X16607014Y-12157214D01*
X16578443Y-12142929D01*
X16849871Y-12128643D02*
X16864157Y-12142929D01*
X16849871Y-12157214D01*
X16835586Y-12142929D01*
X16849871Y-12128643D01*
X16849871Y-12157214D01*
X16849871Y-11971500D02*
X16864157Y-11985786D01*
X16849871Y-12000071D01*
X16835586Y-11985786D01*
X16849871Y-11971500D01*
X16849871Y-12000071D01*
X14496408Y-12639054D02*
X14521300Y-12663946D01*
X14521300Y-12639054D02*
X14496408Y-12663946D01*
X14849871Y-12487214D02*
X14878443Y-12487214D01*
X14907014Y-12501500D01*
X14921300Y-12515786D01*
X14935586Y-12544357D01*
X14949871Y-12601500D01*
X14949871Y-12672929D01*
X14935586Y-12730071D01*
X14921300Y-12758643D01*
X14907014Y-12772929D01*
X14878443Y-12787214D01*
X14849871Y-12787214D01*
X14821300Y-12772929D01*
X14807014Y-12758643D01*
X14792728Y-12730071D01*
X14778443Y-12672929D01*
X14778443Y-12601500D01*
X14792728Y-12544357D01*
X14807014Y-12515786D01*
X14821300Y-12501500D01*
X14849871Y-12487214D01*
X15078443Y-12758643D02*
X15092728Y-12772929D01*
X15078443Y-12787214D01*
X15064157Y-12772929D01*
X15078443Y-12758643D01*
X15078443Y-12787214D01*
X15207014Y-12515786D02*
X15221300Y-12501500D01*
X15249871Y-12487214D01*
X15321300Y-12487214D01*
X15349871Y-12501500D01*
X15364157Y-12515786D01*
X15378443Y-12544357D01*
X15378443Y-12572929D01*
X15364157Y-12615786D01*
X15192728Y-12787214D01*
X15378443Y-12787214D01*
X15649871Y-12487214D02*
X15507014Y-12487214D01*
X15492728Y-12630071D01*
X15507014Y-12615786D01*
X15535586Y-12601500D01*
X15607014Y-12601500D01*
X15635586Y-12615786D01*
X15649871Y-12630071D01*
X15664157Y-12658643D01*
X15664157Y-12730071D01*
X15649871Y-12758643D01*
X15635586Y-12772929D01*
X15607014Y-12787214D01*
X15535586Y-12787214D01*
X15507014Y-12772929D01*
X15492728Y-12758643D01*
X15792728Y-12787214D02*
X15792728Y-12587214D01*
X15792728Y-12615786D02*
X15807014Y-12601500D01*
X15835586Y-12587214D01*
X15878443Y-12587214D01*
X15907014Y-12601500D01*
X15921300Y-12630071D01*
X15921300Y-12787214D01*
X15921300Y-12630071D02*
X15935586Y-12601500D01*
X15964157Y-12587214D01*
X16007014Y-12587214D01*
X16035586Y-12601500D01*
X16049871Y-12630071D01*
X16049871Y-12787214D01*
X16192728Y-12787214D02*
X16192728Y-12587214D01*
X16192728Y-12615786D02*
X16207014Y-12601500D01*
X16235586Y-12587214D01*
X16278443Y-12587214D01*
X16307014Y-12601500D01*
X16321300Y-12630071D01*
X16321300Y-12787214D01*
X16321300Y-12630071D02*
X16335586Y-12601500D01*
X16364157Y-12587214D01*
X16407014Y-12587214D01*
X16435586Y-12601500D01*
X16449871Y-12630071D01*
X16449871Y-12787214D01*
X17035586Y-12472929D02*
X16778443Y-12858643D01*
X17421300Y-12487214D02*
X17449871Y-12487214D01*
X17478443Y-12501500D01*
X17492728Y-12515786D01*
X17507014Y-12544357D01*
X17521300Y-12601500D01*
X17521300Y-12672929D01*
X17507014Y-12730071D01*
X17492728Y-12758643D01*
X17478443Y-12772929D01*
X17449871Y-12787214D01*
X17421300Y-12787214D01*
X17392728Y-12772929D01*
X17378443Y-12758643D01*
X17364157Y-12730071D01*
X17349871Y-12672929D01*
X17349871Y-12601500D01*
X17364157Y-12544357D01*
X17378443Y-12515786D01*
X17392728Y-12501500D01*
X17421300Y-12487214D01*
X17649871Y-12758643D02*
X17664157Y-12772929D01*
X17649871Y-12787214D01*
X17635586Y-12772929D01*
X17649871Y-12758643D01*
X17649871Y-12787214D01*
X17849871Y-12487214D02*
X17878443Y-12487214D01*
X17907014Y-12501500D01*
X17921300Y-12515786D01*
X17935586Y-12544357D01*
X17949871Y-12601500D01*
X17949871Y-12672929D01*
X17935586Y-12730071D01*
X17921300Y-12758643D01*
X17907014Y-12772929D01*
X17878443Y-12787214D01*
X17849871Y-12787214D01*
X17821300Y-12772929D01*
X17807014Y-12758643D01*
X17792728Y-12730071D01*
X17778443Y-12672929D01*
X17778443Y-12601500D01*
X17792728Y-12544357D01*
X17807014Y-12515786D01*
X17821300Y-12501500D01*
X17849871Y-12487214D01*
X18235586Y-12787214D02*
X18064157Y-12787214D01*
X18149871Y-12787214D02*
X18149871Y-12487214D01*
X18121300Y-12530071D01*
X18092728Y-12558643D01*
X18064157Y-12572929D01*
X18421300Y-12487214D02*
X18449871Y-12487214D01*
X18478443Y-12501500D01*
X18492728Y-12515786D01*
X18507014Y-12544357D01*
X18521300Y-12601500D01*
X18521300Y-12672929D01*
X18507014Y-12730071D01*
X18492728Y-12758643D01*
X18478443Y-12772929D01*
X18449871Y-12787214D01*
X18421300Y-12787214D01*
X18392728Y-12772929D01*
X18378443Y-12758643D01*
X18364157Y-12730071D01*
X18349871Y-12672929D01*
X18349871Y-12601500D01*
X18364157Y-12544357D01*
X18378443Y-12515786D01*
X18392728Y-12501500D01*
X18421300Y-12487214D01*
X18635586Y-12487214D02*
X18635586Y-12544357D01*
X18749871Y-12487214D02*
X18749871Y-12544357D01*
X19192728Y-12901500D02*
X19178443Y-12887214D01*
X19149871Y-12844357D01*
X19135586Y-12815786D01*
X19121300Y-12772929D01*
X19107014Y-12701500D01*
X19107014Y-12644357D01*
X19121300Y-12572929D01*
X19135586Y-12530071D01*
X19149871Y-12501500D01*
X19178443Y-12458643D01*
X19192728Y-12444357D01*
X19464157Y-12787214D02*
X19292728Y-12787214D01*
X19378443Y-12787214D02*
X19378443Y-12487214D01*
X19349871Y-12530071D01*
X19321300Y-12558643D01*
X19292728Y-12572929D01*
X19635586Y-12615786D02*
X19607014Y-12601500D01*
X19592728Y-12587214D01*
X19578443Y-12558643D01*
X19578443Y-12544357D01*
X19592728Y-12515786D01*
X19607014Y-12501500D01*
X19635586Y-12487214D01*
X19692728Y-12487214D01*
X19721300Y-12501500D01*
X19735586Y-12515786D01*
X19749871Y-12544357D01*
X19749871Y-12558643D01*
X19735586Y-12587214D01*
X19721300Y-12601500D01*
X19692728Y-12615786D01*
X19635586Y-12615786D01*
X19607014Y-12630071D01*
X19592728Y-12644357D01*
X19578443Y-12672929D01*
X19578443Y-12730071D01*
X19592728Y-12758643D01*
X19607014Y-12772929D01*
X19635586Y-12787214D01*
X19692728Y-12787214D01*
X19721300Y-12772929D01*
X19735586Y-12758643D01*
X19749871Y-12730071D01*
X19749871Y-12672929D01*
X19735586Y-12644357D01*
X19721300Y-12630071D01*
X19692728Y-12615786D01*
X20107014Y-12787214D02*
X20107014Y-12487214D01*
X20235586Y-12787214D02*
X20235586Y-12630071D01*
X20221300Y-12601500D01*
X20192728Y-12587214D01*
X20149871Y-12587214D01*
X20121300Y-12601500D01*
X20107014Y-12615786D01*
X20421300Y-12787214D02*
X20392728Y-12772929D01*
X20378443Y-12758643D01*
X20364157Y-12730071D01*
X20364157Y-12644357D01*
X20378443Y-12615786D01*
X20392728Y-12601500D01*
X20421300Y-12587214D01*
X20464157Y-12587214D01*
X20492728Y-12601500D01*
X20507014Y-12615786D01*
X20521300Y-12644357D01*
X20521300Y-12730071D01*
X20507014Y-12758643D01*
X20492728Y-12772929D01*
X20464157Y-12787214D01*
X20421300Y-12787214D01*
X20692728Y-12787214D02*
X20664157Y-12772929D01*
X20649871Y-12744357D01*
X20649871Y-12487214D01*
X20921300Y-12772929D02*
X20892729Y-12787214D01*
X20835586Y-12787214D01*
X20807014Y-12772929D01*
X20792729Y-12744357D01*
X20792729Y-12630071D01*
X20807014Y-12601500D01*
X20835586Y-12587214D01*
X20892729Y-12587214D01*
X20921300Y-12601500D01*
X20935586Y-12630071D01*
X20935586Y-12658643D01*
X20792729Y-12687214D01*
X21049871Y-12772929D02*
X21078443Y-12787214D01*
X21135586Y-12787214D01*
X21164157Y-12772929D01*
X21178443Y-12744357D01*
X21178443Y-12730071D01*
X21164157Y-12701500D01*
X21135586Y-12687214D01*
X21092729Y-12687214D01*
X21064157Y-12672929D01*
X21049871Y-12644357D01*
X21049871Y-12630071D01*
X21064157Y-12601500D01*
X21092729Y-12587214D01*
X21135586Y-12587214D01*
X21164157Y-12601500D01*
X21278443Y-12901500D02*
X21292729Y-12887214D01*
X21321300Y-12844357D01*
X21335586Y-12815786D01*
X21349871Y-12772929D01*
X21364157Y-12701500D01*
X21364157Y-12644357D01*
X21349871Y-12572929D01*
X21335586Y-12530071D01*
X21321300Y-12501500D01*
X21292729Y-12458643D01*
X21278443Y-12444357D01*
X14521300Y-13047500D02*
G75*
G03X14521300Y-13047500I-12700J0D01*
G01*
X14849871Y-12883214D02*
X14878443Y-12883214D01*
X14907014Y-12897500D01*
X14921300Y-12911786D01*
X14935586Y-12940357D01*
X14949871Y-12997500D01*
X14949871Y-13068929D01*
X14935586Y-13126071D01*
X14921300Y-13154643D01*
X14907014Y-13168929D01*
X14878443Y-13183214D01*
X14849871Y-13183214D01*
X14821300Y-13168929D01*
X14807014Y-13154643D01*
X14792728Y-13126071D01*
X14778443Y-13068929D01*
X14778443Y-12997500D01*
X14792728Y-12940357D01*
X14807014Y-12911786D01*
X14821300Y-12897500D01*
X14849871Y-12883214D01*
X15078443Y-13154643D02*
X15092728Y-13168929D01*
X15078443Y-13183214D01*
X15064157Y-13168929D01*
X15078443Y-13154643D01*
X15078443Y-13183214D01*
X15207014Y-12911786D02*
X15221300Y-12897500D01*
X15249871Y-12883214D01*
X15321300Y-12883214D01*
X15349871Y-12897500D01*
X15364157Y-12911786D01*
X15378443Y-12940357D01*
X15378443Y-12968929D01*
X15364157Y-13011786D01*
X15192728Y-13183214D01*
X15378443Y-13183214D01*
X15649871Y-12883214D02*
X15507014Y-12883214D01*
X15492728Y-13026071D01*
X15507014Y-13011786D01*
X15535586Y-12997500D01*
X15607014Y-12997500D01*
X15635586Y-13011786D01*
X15649871Y-13026071D01*
X15664157Y-13054643D01*
X15664157Y-13126071D01*
X15649871Y-13154643D01*
X15635586Y-13168929D01*
X15607014Y-13183214D01*
X15535586Y-13183214D01*
X15507014Y-13168929D01*
X15492728Y-13154643D01*
X15792728Y-13183214D02*
X15792728Y-12983214D01*
X15792728Y-13011786D02*
X15807014Y-12997500D01*
X15835586Y-12983214D01*
X15878443Y-12983214D01*
X15907014Y-12997500D01*
X15921300Y-13026071D01*
X15921300Y-13183214D01*
X15921300Y-13026071D02*
X15935586Y-12997500D01*
X15964157Y-12983214D01*
X16007014Y-12983214D01*
X16035586Y-12997500D01*
X16049871Y-13026071D01*
X16049871Y-13183214D01*
X16192728Y-13183214D02*
X16192728Y-12983214D01*
X16192728Y-13011786D02*
X16207014Y-12997500D01*
X16235586Y-12983214D01*
X16278443Y-12983214D01*
X16307014Y-12997500D01*
X16321300Y-13026071D01*
X16321300Y-13183214D01*
X16321300Y-13026071D02*
X16335586Y-12997500D01*
X16364157Y-12983214D01*
X16407014Y-12983214D01*
X16435586Y-12997500D01*
X16449871Y-13026071D01*
X16449871Y-13183214D01*
X17035586Y-12868929D02*
X16778443Y-13254643D01*
X17421300Y-12883214D02*
X17449871Y-12883214D01*
X17478443Y-12897500D01*
X17492728Y-12911786D01*
X17507014Y-12940357D01*
X17521300Y-12997500D01*
X17521300Y-13068929D01*
X17507014Y-13126071D01*
X17492728Y-13154643D01*
X17478443Y-13168929D01*
X17449871Y-13183214D01*
X17421300Y-13183214D01*
X17392728Y-13168929D01*
X17378443Y-13154643D01*
X17364157Y-13126071D01*
X17349871Y-13068929D01*
X17349871Y-12997500D01*
X17364157Y-12940357D01*
X17378443Y-12911786D01*
X17392728Y-12897500D01*
X17421300Y-12883214D01*
X17649871Y-13154643D02*
X17664157Y-13168929D01*
X17649871Y-13183214D01*
X17635586Y-13168929D01*
X17649871Y-13154643D01*
X17649871Y-13183214D01*
X17849871Y-12883214D02*
X17878443Y-12883214D01*
X17907014Y-12897500D01*
X17921300Y-12911786D01*
X17935586Y-12940357D01*
X17949871Y-12997500D01*
X17949871Y-13068929D01*
X17935586Y-13126071D01*
X17921300Y-13154643D01*
X17907014Y-13168929D01*
X17878443Y-13183214D01*
X17849871Y-13183214D01*
X17821300Y-13168929D01*
X17807014Y-13154643D01*
X17792728Y-13126071D01*
X17778443Y-13068929D01*
X17778443Y-12997500D01*
X17792728Y-12940357D01*
X17807014Y-12911786D01*
X17821300Y-12897500D01*
X17849871Y-12883214D01*
X18235586Y-13183214D02*
X18064157Y-13183214D01*
X18149871Y-13183214D02*
X18149871Y-12883214D01*
X18121300Y-12926071D01*
X18092728Y-12954643D01*
X18064157Y-12968929D01*
X18421300Y-12883214D02*
X18449871Y-12883214D01*
X18478443Y-12897500D01*
X18492728Y-12911786D01*
X18507014Y-12940357D01*
X18521300Y-12997500D01*
X18521300Y-13068929D01*
X18507014Y-13126071D01*
X18492728Y-13154643D01*
X18478443Y-13168929D01*
X18449871Y-13183214D01*
X18421300Y-13183214D01*
X18392728Y-13168929D01*
X18378443Y-13154643D01*
X18364157Y-13126071D01*
X18349871Y-13068929D01*
X18349871Y-12997500D01*
X18364157Y-12940357D01*
X18378443Y-12911786D01*
X18392728Y-12897500D01*
X18421300Y-12883214D01*
X18635586Y-12883214D02*
X18635586Y-12940357D01*
X18749871Y-12883214D02*
X18749871Y-12940357D01*
X19192728Y-13297500D02*
X19178443Y-13283214D01*
X19149871Y-13240357D01*
X19135586Y-13211786D01*
X19121300Y-13168929D01*
X19107014Y-13097500D01*
X19107014Y-13040357D01*
X19121300Y-12968929D01*
X19135586Y-12926071D01*
X19149871Y-12897500D01*
X19178443Y-12854643D01*
X19192728Y-12840357D01*
X19278443Y-12883214D02*
X19464157Y-12883214D01*
X19364157Y-12997500D01*
X19407014Y-12997500D01*
X19435586Y-13011786D01*
X19449871Y-13026071D01*
X19464157Y-13054643D01*
X19464157Y-13126071D01*
X19449871Y-13154643D01*
X19435586Y-13168929D01*
X19407014Y-13183214D01*
X19321300Y-13183214D01*
X19292728Y-13168929D01*
X19278443Y-13154643D01*
X19721300Y-12883214D02*
X19664157Y-12883214D01*
X19635586Y-12897500D01*
X19621300Y-12911786D01*
X19592728Y-12954643D01*
X19578443Y-13011786D01*
X19578443Y-13126071D01*
X19592728Y-13154643D01*
X19607014Y-13168929D01*
X19635586Y-13183214D01*
X19692728Y-13183214D01*
X19721300Y-13168929D01*
X19735586Y-13154643D01*
X19749871Y-13126071D01*
X19749871Y-13054643D01*
X19735586Y-13026071D01*
X19721300Y-13011786D01*
X19692728Y-12997500D01*
X19635586Y-12997500D01*
X19607014Y-13011786D01*
X19592728Y-13026071D01*
X19578443Y-13054643D01*
X20107014Y-13183214D02*
X20107014Y-12883214D01*
X20235586Y-13183214D02*
X20235586Y-13026071D01*
X20221300Y-12997500D01*
X20192728Y-12983214D01*
X20149871Y-12983214D01*
X20121300Y-12997500D01*
X20107014Y-13011786D01*
X20421300Y-13183214D02*
X20392728Y-13168929D01*
X20378443Y-13154643D01*
X20364157Y-13126071D01*
X20364157Y-13040357D01*
X20378443Y-13011786D01*
X20392728Y-12997500D01*
X20421300Y-12983214D01*
X20464157Y-12983214D01*
X20492728Y-12997500D01*
X20507014Y-13011786D01*
X20521300Y-13040357D01*
X20521300Y-13126071D01*
X20507014Y-13154643D01*
X20492728Y-13168929D01*
X20464157Y-13183214D01*
X20421300Y-13183214D01*
X20692728Y-13183214D02*
X20664157Y-13168929D01*
X20649871Y-13140357D01*
X20649871Y-12883214D01*
X20921300Y-13168929D02*
X20892729Y-13183214D01*
X20835586Y-13183214D01*
X20807014Y-13168929D01*
X20792729Y-13140357D01*
X20792729Y-13026071D01*
X20807014Y-12997500D01*
X20835586Y-12983214D01*
X20892729Y-12983214D01*
X20921300Y-12997500D01*
X20935586Y-13026071D01*
X20935586Y-13054643D01*
X20792729Y-13083214D01*
X21049871Y-13168929D02*
X21078443Y-13183214D01*
X21135586Y-13183214D01*
X21164157Y-13168929D01*
X21178443Y-13140357D01*
X21178443Y-13126071D01*
X21164157Y-13097500D01*
X21135586Y-13083214D01*
X21092729Y-13083214D01*
X21064157Y-13068929D01*
X21049871Y-13040357D01*
X21049871Y-13026071D01*
X21064157Y-12997500D01*
X21092729Y-12983214D01*
X21135586Y-12983214D01*
X21164157Y-12997500D01*
X21278443Y-13297500D02*
X21292729Y-13283214D01*
X21321300Y-13240357D01*
X21335586Y-13211786D01*
X21349871Y-13168929D01*
X21364157Y-13097500D01*
X21364157Y-13040357D01*
X21349871Y-12968929D01*
X21335586Y-12926071D01*
X21321300Y-12897500D01*
X21292729Y-12854643D01*
X21278443Y-12840357D01*
M02*
