%TF.GenerationSoftware,KiCad,Pcbnew,(5.1.6-0-10_14)*%
%TF.CreationDate,2022-06-24T15:33:30-03:00*%
%TF.ProjectId,Flat_Grid_Small_V2,466c6174-5f47-4726-9964-5f536d616c6c,rev?*%
%TF.SameCoordinates,Original*%
%TF.FileFunction,Copper,L2,Bot*%
%TF.FilePolarity,Positive*%
%FSLAX46Y46*%
G04 Gerber Fmt 4.6, Leading zero omitted, Abs format (unit mm)*
G04 Created by KiCad (PCBNEW (5.1.6-0-10_14)) date 2022-06-24 15:33:30*
%MOMM*%
%LPD*%
G01*
G04 APERTURE LIST*
%TA.AperFunction,ComponentPad*%
%ADD10C,1.000000*%
%TD*%
%TA.AperFunction,SMDPad,CuDef*%
%ADD11R,0.300000X3.500000*%
%TD*%
%TA.AperFunction,ViaPad*%
%ADD12C,0.300000*%
%TD*%
%TA.AperFunction,Conductor*%
%ADD13C,0.250000*%
%TD*%
G04 APERTURE END LIST*
D10*
%TO.P,REF\u002A\u002A,1*%
%TO.N,N/C*%
X157403800Y-100253800D03*
%TD*%
%TO.P,REF\u002A\u002A,1*%
%TO.N,N/C*%
X149098000Y-100253800D03*
%TD*%
D11*
%TO.P,Edge2,1*%
%TO.N,N/C*%
X158003240Y-106677400D03*
%TO.P,Edge2,2*%
X157503240Y-106677400D03*
%TO.P,Edge2,3*%
X157003240Y-106677400D03*
%TO.P,Edge2,4*%
X156503240Y-106677400D03*
%TO.P,Edge2,5*%
X156003240Y-106677400D03*
%TO.P,Edge2,6*%
X155503240Y-106677400D03*
%TO.P,Edge2,7*%
X155003240Y-106677400D03*
%TO.P,Edge2,8*%
X154503240Y-106677400D03*
%TO.P,Edge2,9*%
X154003240Y-106677400D03*
%TO.P,Edge2,10*%
X153503240Y-106677400D03*
%TO.P,Edge2,11*%
X153003240Y-106677400D03*
%TO.P,Edge2,12*%
X152503240Y-106677400D03*
%TO.P,Edge2,13*%
X152003240Y-106677400D03*
%TO.P,Edge2,14*%
X151503240Y-106677400D03*
%TO.P,Edge2,15*%
X151003240Y-106677400D03*
%TO.P,Edge2,16*%
X150503240Y-106677400D03*
%TO.P,Edge2,17*%
X150003240Y-106677400D03*
%TO.P,Edge2,18*%
X149503240Y-106677400D03*
%TO.P,Edge2,19*%
X149003240Y-106677400D03*
%TO.P,Edge2,20*%
X148503240Y-106677400D03*
%TD*%
D12*
%TO.N,*%
X156003640Y-103260160D03*
X155003640Y-103260160D03*
X154003640Y-103260160D03*
X153003640Y-103260160D03*
X152003640Y-103260160D03*
X151003640Y-103260160D03*
X150503640Y-102260160D03*
X151503640Y-102260160D03*
X152503640Y-102260160D03*
X153503640Y-102260160D03*
X154503640Y-102260160D03*
X155503640Y-102260160D03*
X156503640Y-102260160D03*
X157503640Y-102260160D03*
X158003640Y-103260160D03*
X150003640Y-103265380D03*
X149003640Y-103287480D03*
X148503640Y-102262940D03*
X149503640Y-102260160D03*
X157003640Y-103260160D03*
%TD*%
D13*
%TO.N,*%
X148503640Y-106677400D02*
X148503640Y-106677460D01*
X148999000Y-106677400D02*
X149003640Y-106677400D01*
X149503640Y-106677400D02*
X149503640Y-106679240D01*
X150003640Y-106677400D02*
X150003640Y-106676060D01*
X151003640Y-106677400D02*
X151003640Y-106692060D01*
X151503640Y-106677400D02*
X151500900Y-106677400D01*
X152003640Y-106677400D02*
X152003640Y-106669960D01*
X152503640Y-106677400D02*
X152503640Y-106656640D01*
X153003640Y-106677400D02*
X153003640Y-106673260D01*
X153503640Y-106677400D02*
X153503640Y-106678740D01*
X154003640Y-106677400D02*
X154010300Y-106677400D01*
X154503640Y-106677400D02*
X154505600Y-106677400D01*
X155003640Y-106677400D02*
X155003640Y-106679860D01*
X155503640Y-106677400D02*
X155468641Y-106677400D01*
X156003640Y-106677400D02*
X155984000Y-106677400D01*
X156503640Y-106677400D02*
X156524900Y-106677400D01*
X157003640Y-106677400D02*
X157020200Y-106677400D01*
X157503640Y-106677400D02*
X157482600Y-106677400D01*
X157482600Y-106677400D02*
X157468641Y-106691359D01*
X158003640Y-106677400D02*
X158010800Y-106677400D01*
X148503640Y-106338840D02*
X148503640Y-102262940D01*
X148503240Y-106339240D02*
X148503640Y-106338840D01*
X148503240Y-106677400D02*
X148503240Y-106339240D01*
X149003240Y-106677400D02*
X149003240Y-103287880D01*
X149503240Y-106677400D02*
X149503240Y-102260560D01*
X150003240Y-106677400D02*
X150003240Y-103265780D01*
X150503240Y-106677400D02*
X150503240Y-102260560D01*
X151003240Y-106677400D02*
X151003240Y-103260560D01*
X151503240Y-106677400D02*
X151503240Y-102260560D01*
X150503640Y-106677400D02*
X150484900Y-106677400D01*
X152003240Y-106677400D02*
X152003240Y-103260560D01*
X152503240Y-106677400D02*
X152503240Y-102260560D01*
X153003640Y-106677000D02*
X153003240Y-106677400D01*
X153003640Y-103260160D02*
X153003640Y-106677000D01*
X153503640Y-106677000D02*
X153503240Y-106677400D01*
X153503640Y-102260160D02*
X153503640Y-106677000D01*
X154003640Y-106677000D02*
X154003240Y-106677400D01*
X154003640Y-103260160D02*
X154003640Y-106677000D01*
X154503640Y-106677000D02*
X154503240Y-106677400D01*
X154503640Y-102260160D02*
X154503640Y-106677000D01*
X155003640Y-106677000D02*
X155003240Y-106677400D01*
X155003640Y-103260160D02*
X155003640Y-106677000D01*
X155503640Y-106677000D02*
X155503240Y-106677400D01*
X155503640Y-102260160D02*
X155503640Y-106677000D01*
X156003640Y-106677000D02*
X156003240Y-106677400D01*
X156003640Y-103260160D02*
X156003640Y-106677000D01*
X156503640Y-106677000D02*
X156503240Y-106677400D01*
X156503640Y-102260160D02*
X156503640Y-106677000D01*
X157003640Y-106677000D02*
X157003240Y-106677400D01*
X157003640Y-103260160D02*
X157003640Y-106677000D01*
X157503640Y-106677000D02*
X157503240Y-106677400D01*
X157503640Y-102260160D02*
X157503640Y-106677000D01*
X158003640Y-106677000D02*
X158003240Y-106677400D01*
X158003640Y-103260160D02*
X158003640Y-106677000D01*
%TD*%
M02*
