M48
; DRILL file {KiCad (5.1.6-0-10_14)} date Friday, June 24, 2022 at 03:33:23 PM
; FORMAT={-:-/ absolute / inch / decimal}
; #@! TF.CreationDate,2022-06-24T15:33:23-03:00
; #@! TF.GenerationSoftware,Kicad,Pcbnew,(5.1.6-0-10_14)
; #@! TF.FileFunction,Plated,1,2,PTH
FMAT,2
INCH
T1C0.0079
T2C0.0197
%
G90
G05
T1
X5.8466Y-4.0261
X5.8663Y-4.0664
X5.886Y-4.026
X5.9057Y-4.0656
X5.9253Y-4.026
X5.945Y-4.0654
X5.9647Y-4.026
X5.9844Y-4.0654
X6.0041Y-4.026
X6.0238Y-4.0654
X6.0435Y-4.026
X6.0631Y-4.0654
X6.0828Y-4.026
X6.1025Y-4.0654
X6.1222Y-4.026
X6.1419Y-4.0654
X6.1616Y-4.026
X6.1812Y-4.0654
X6.2009Y-4.026
X6.2206Y-4.0654
T2
X6.197Y-3.947
X5.87Y-3.947
T0
M30
