M48
;DRILL file {KiCad 4.0.7} date Tuesday, July 31, 2018 'AMt' 11:27:28 AM
;FORMAT={-:-/ absolute / metric / decimal}
FMAT,2
METRIC,TZ
T1C0.300
%
G90
G05
M71
T1
X119.1Y-96.6
X119.7Y-94.95
X119.8Y-92.5
X119.8Y-96.4
X120.1Y-94.7
X120.2Y-96.6
X121.Y-96.3
X121.4Y-94.2
X122.Y-94.55
X122.1Y-95.2
X122.2Y-91.95
X122.25Y-91.4
X122.5Y-93.5
X122.5Y-97.3
X122.75Y-91.4
X122.85Y-91.95
X122.9Y-95.2
X123.Y-94.55
X123.6Y-94.2
X124.Y-96.3
X124.8Y-96.6
X124.9Y-94.7
X125.2Y-96.4
X125.25Y-92.5
X125.3Y-94.95
X125.9Y-96.6
T0
M30
