%FSLAX45Y45*%
G04 Gerber Fmt 4.5, Leading zero omitted, Abs format (unit mm)*
G04 Created by KiCad (PCBNEW 4.0.7) date 07/03/18 10:56:48*
%MOMM*%
%LPD*%
G01*
G04 APERTURE LIST*
%ADD10C,0.127000*%
%ADD11C,0.150000*%
%ADD12C,0.200000*%
%ADD13C,0.300000*%
G04 APERTURE END LIST*
D10*
D11*
X16070000Y-9720000D02*
X16050000Y-9720000D01*
X16050000Y-10420000D02*
X16070000Y-10420000D01*
X14600000Y-10420000D02*
X14580000Y-10420000D01*
X14600000Y-9720000D02*
X14580000Y-9720000D01*
X15850000Y-9470000D02*
X14800000Y-9470000D01*
X15850000Y-9720000D02*
X15850000Y-9470000D01*
X14800000Y-9720000D02*
X14800000Y-9470000D01*
X16050000Y-9720000D02*
X15850000Y-9720000D01*
X16070000Y-10420000D02*
X16070000Y-9720000D01*
X15850000Y-10420000D02*
X16050000Y-10420000D01*
X15850000Y-10850000D02*
X15850000Y-10420000D01*
X14600000Y-9720000D02*
X14800000Y-9720000D01*
X14580000Y-10420000D02*
X14580000Y-9720000D01*
X14800000Y-10420000D02*
X14600000Y-10420000D01*
X14800000Y-10850000D02*
X14800000Y-10420000D01*
X15850000Y-10850000D02*
X14800000Y-10850000D01*
D12*
X14863300Y-9516600D02*
X15083300Y-9736600D01*
X15083300Y-9516600D02*
X14863300Y-9736600D01*
X15568150Y-9516600D02*
X15788150Y-9736600D01*
X15788150Y-9516600D02*
X15568150Y-9736600D01*
D13*
X14843928Y-11323214D02*
X14843928Y-11023214D01*
X14915357Y-11023214D01*
X14958214Y-11037500D01*
X14986786Y-11066072D01*
X15001071Y-11094643D01*
X15015357Y-11151786D01*
X15015357Y-11194643D01*
X15001071Y-11251786D01*
X14986786Y-11280357D01*
X14958214Y-11308929D01*
X14915357Y-11323214D01*
X14843928Y-11323214D01*
X15143928Y-11323214D02*
X15143928Y-11123214D01*
X15143928Y-11180357D02*
X15158214Y-11151786D01*
X15172500Y-11137500D01*
X15201071Y-11123214D01*
X15229643Y-11123214D01*
X15329643Y-11323214D02*
X15329643Y-11123214D01*
X15329643Y-11023214D02*
X15315357Y-11037500D01*
X15329643Y-11051786D01*
X15343928Y-11037500D01*
X15329643Y-11023214D01*
X15329643Y-11051786D01*
X15515357Y-11323214D02*
X15486786Y-11308929D01*
X15472500Y-11280357D01*
X15472500Y-11023214D01*
X15672500Y-11323214D02*
X15643928Y-11308929D01*
X15629643Y-11280357D01*
X15629643Y-11023214D01*
X16015357Y-11323214D02*
X16015357Y-11023214D01*
X16115357Y-11237500D01*
X16215357Y-11023214D01*
X16215357Y-11323214D01*
X16486786Y-11323214D02*
X16486786Y-11166072D01*
X16472500Y-11137500D01*
X16443928Y-11123214D01*
X16386786Y-11123214D01*
X16358214Y-11137500D01*
X16486786Y-11308929D02*
X16458214Y-11323214D01*
X16386786Y-11323214D01*
X16358214Y-11308929D01*
X16343928Y-11280357D01*
X16343928Y-11251786D01*
X16358214Y-11223214D01*
X16386786Y-11208929D01*
X16458214Y-11208929D01*
X16486786Y-11194643D01*
X16629643Y-11123214D02*
X16629643Y-11423214D01*
X16629643Y-11137500D02*
X16658214Y-11123214D01*
X16715357Y-11123214D01*
X16743928Y-11137500D01*
X16758214Y-11151786D01*
X16772500Y-11180357D01*
X16772500Y-11266071D01*
X16758214Y-11294643D01*
X16743928Y-11308929D01*
X16715357Y-11323214D01*
X16658214Y-11323214D01*
X16629643Y-11308929D01*
X16901071Y-11294643D02*
X16915357Y-11308929D01*
X16901071Y-11323214D01*
X16886786Y-11308929D01*
X16901071Y-11294643D01*
X16901071Y-11323214D01*
X16901071Y-11137500D02*
X16915357Y-11151786D01*
X16901071Y-11166072D01*
X16886786Y-11151786D01*
X16901071Y-11137500D01*
X16901071Y-11166072D01*
X14352500Y-11707500D02*
X14572500Y-11927500D01*
X14572500Y-11707500D02*
X14352500Y-11927500D01*
X14829643Y-11681786D02*
X14843928Y-11667500D01*
X14872500Y-11653214D01*
X14943928Y-11653214D01*
X14972500Y-11667500D01*
X14986786Y-11681786D01*
X15001071Y-11710357D01*
X15001071Y-11738929D01*
X14986786Y-11781786D01*
X14815357Y-11953214D01*
X15001071Y-11953214D01*
X15129643Y-11924643D02*
X15143928Y-11938929D01*
X15129643Y-11953214D01*
X15115357Y-11938929D01*
X15129643Y-11924643D01*
X15129643Y-11953214D01*
X15258214Y-11681786D02*
X15272500Y-11667500D01*
X15301071Y-11653214D01*
X15372500Y-11653214D01*
X15401071Y-11667500D01*
X15415357Y-11681786D01*
X15429643Y-11710357D01*
X15429643Y-11738929D01*
X15415357Y-11781786D01*
X15243928Y-11953214D01*
X15429643Y-11953214D01*
X15615357Y-11653214D02*
X15643928Y-11653214D01*
X15672500Y-11667500D01*
X15686786Y-11681786D01*
X15701071Y-11710357D01*
X15715357Y-11767500D01*
X15715357Y-11838929D01*
X15701071Y-11896071D01*
X15686786Y-11924643D01*
X15672500Y-11938929D01*
X15643928Y-11953214D01*
X15615357Y-11953214D01*
X15586786Y-11938929D01*
X15572500Y-11924643D01*
X15558214Y-11896071D01*
X15543928Y-11838929D01*
X15543928Y-11767500D01*
X15558214Y-11710357D01*
X15572500Y-11681786D01*
X15586786Y-11667500D01*
X15615357Y-11653214D01*
X15843928Y-11953214D02*
X15843928Y-11753214D01*
X15843928Y-11781786D02*
X15858214Y-11767500D01*
X15886786Y-11753214D01*
X15929643Y-11753214D01*
X15958214Y-11767500D01*
X15972500Y-11796071D01*
X15972500Y-11953214D01*
X15972500Y-11796071D02*
X15986786Y-11767500D01*
X16015357Y-11753214D01*
X16058214Y-11753214D01*
X16086786Y-11767500D01*
X16101071Y-11796071D01*
X16101071Y-11953214D01*
X16243928Y-11953214D02*
X16243928Y-11753214D01*
X16243928Y-11781786D02*
X16258214Y-11767500D01*
X16286786Y-11753214D01*
X16329643Y-11753214D01*
X16358214Y-11767500D01*
X16372500Y-11796071D01*
X16372500Y-11953214D01*
X16372500Y-11796071D02*
X16386786Y-11767500D01*
X16415357Y-11753214D01*
X16458214Y-11753214D01*
X16486786Y-11767500D01*
X16501071Y-11796071D01*
X16501071Y-11953214D01*
X17086786Y-11638929D02*
X16829643Y-12024643D01*
X17472500Y-11653214D02*
X17501071Y-11653214D01*
X17529643Y-11667500D01*
X17543928Y-11681786D01*
X17558214Y-11710357D01*
X17572500Y-11767500D01*
X17572500Y-11838929D01*
X17558214Y-11896071D01*
X17543928Y-11924643D01*
X17529643Y-11938929D01*
X17501071Y-11953214D01*
X17472500Y-11953214D01*
X17443928Y-11938929D01*
X17429643Y-11924643D01*
X17415357Y-11896071D01*
X17401071Y-11838929D01*
X17401071Y-11767500D01*
X17415357Y-11710357D01*
X17429643Y-11681786D01*
X17443928Y-11667500D01*
X17472500Y-11653214D01*
X17701071Y-11924643D02*
X17715357Y-11938929D01*
X17701071Y-11953214D01*
X17686786Y-11938929D01*
X17701071Y-11924643D01*
X17701071Y-11953214D01*
X17901071Y-11653214D02*
X17929643Y-11653214D01*
X17958214Y-11667500D01*
X17972500Y-11681786D01*
X17986786Y-11710357D01*
X18001071Y-11767500D01*
X18001071Y-11838929D01*
X17986786Y-11896071D01*
X17972500Y-11924643D01*
X17958214Y-11938929D01*
X17929643Y-11953214D01*
X17901071Y-11953214D01*
X17872500Y-11938929D01*
X17858214Y-11924643D01*
X17843928Y-11896071D01*
X17829643Y-11838929D01*
X17829643Y-11767500D01*
X17843928Y-11710357D01*
X17858214Y-11681786D01*
X17872500Y-11667500D01*
X17901071Y-11653214D01*
X18172500Y-11781786D02*
X18143928Y-11767500D01*
X18129643Y-11753214D01*
X18115357Y-11724643D01*
X18115357Y-11710357D01*
X18129643Y-11681786D01*
X18143928Y-11667500D01*
X18172500Y-11653214D01*
X18229643Y-11653214D01*
X18258214Y-11667500D01*
X18272500Y-11681786D01*
X18286786Y-11710357D01*
X18286786Y-11724643D01*
X18272500Y-11753214D01*
X18258214Y-11767500D01*
X18229643Y-11781786D01*
X18172500Y-11781786D01*
X18143928Y-11796071D01*
X18129643Y-11810357D01*
X18115357Y-11838929D01*
X18115357Y-11896071D01*
X18129643Y-11924643D01*
X18143928Y-11938929D01*
X18172500Y-11953214D01*
X18229643Y-11953214D01*
X18258214Y-11938929D01*
X18272500Y-11924643D01*
X18286786Y-11896071D01*
X18286786Y-11838929D01*
X18272500Y-11810357D01*
X18258214Y-11796071D01*
X18229643Y-11781786D01*
X18386786Y-11653214D02*
X18586786Y-11653214D01*
X18458214Y-11953214D01*
X18686786Y-11653214D02*
X18686786Y-11710357D01*
X18801071Y-11653214D02*
X18801071Y-11710357D01*
X19243928Y-12067500D02*
X19229643Y-12053214D01*
X19201071Y-12010357D01*
X19186786Y-11981786D01*
X19172500Y-11938929D01*
X19158214Y-11867500D01*
X19158214Y-11810357D01*
X19172500Y-11738929D01*
X19186786Y-11696071D01*
X19201071Y-11667500D01*
X19229643Y-11624643D01*
X19243928Y-11610357D01*
X19343928Y-11681786D02*
X19358214Y-11667500D01*
X19386786Y-11653214D01*
X19458214Y-11653214D01*
X19486786Y-11667500D01*
X19501071Y-11681786D01*
X19515357Y-11710357D01*
X19515357Y-11738929D01*
X19501071Y-11781786D01*
X19329643Y-11953214D01*
X19515357Y-11953214D01*
X19872500Y-11953214D02*
X19872500Y-11653214D01*
X20001071Y-11953214D02*
X20001071Y-11796071D01*
X19986786Y-11767500D01*
X19958214Y-11753214D01*
X19915357Y-11753214D01*
X19886786Y-11767500D01*
X19872500Y-11781786D01*
X20186786Y-11953214D02*
X20158214Y-11938929D01*
X20143928Y-11924643D01*
X20129643Y-11896071D01*
X20129643Y-11810357D01*
X20143928Y-11781786D01*
X20158214Y-11767500D01*
X20186786Y-11753214D01*
X20229643Y-11753214D01*
X20258214Y-11767500D01*
X20272500Y-11781786D01*
X20286786Y-11810357D01*
X20286786Y-11896071D01*
X20272500Y-11924643D01*
X20258214Y-11938929D01*
X20229643Y-11953214D01*
X20186786Y-11953214D01*
X20458214Y-11953214D02*
X20429643Y-11938929D01*
X20415357Y-11910357D01*
X20415357Y-11653214D01*
X20686786Y-11938929D02*
X20658214Y-11953214D01*
X20601071Y-11953214D01*
X20572500Y-11938929D01*
X20558214Y-11910357D01*
X20558214Y-11796071D01*
X20572500Y-11767500D01*
X20601071Y-11753214D01*
X20658214Y-11753214D01*
X20686786Y-11767500D01*
X20701071Y-11796071D01*
X20701071Y-11824643D01*
X20558214Y-11853214D01*
X20815357Y-11938929D02*
X20843929Y-11953214D01*
X20901071Y-11953214D01*
X20929643Y-11938929D01*
X20943929Y-11910357D01*
X20943929Y-11896071D01*
X20929643Y-11867500D01*
X20901071Y-11853214D01*
X20858214Y-11853214D01*
X20829643Y-11838929D01*
X20815357Y-11810357D01*
X20815357Y-11796071D01*
X20829643Y-11767500D01*
X20858214Y-11753214D01*
X20901071Y-11753214D01*
X20929643Y-11767500D01*
X21043928Y-12067500D02*
X21058214Y-12053214D01*
X21086786Y-12010357D01*
X21101071Y-11981786D01*
X21115357Y-11938929D01*
X21129643Y-11867500D01*
X21129643Y-11810357D01*
X21115357Y-11738929D01*
X21101071Y-11696071D01*
X21086786Y-11667500D01*
X21058214Y-11624643D01*
X21043928Y-11610357D01*
X21586786Y-12067500D02*
X21572500Y-12053214D01*
X21543928Y-12010357D01*
X21529643Y-11981786D01*
X21515357Y-11938929D01*
X21501071Y-11867500D01*
X21501071Y-11810357D01*
X21515357Y-11738929D01*
X21529643Y-11696071D01*
X21543928Y-11667500D01*
X21572500Y-11624643D01*
X21586786Y-11610357D01*
X21701071Y-11753214D02*
X21701071Y-11953214D01*
X21701071Y-11781786D02*
X21715357Y-11767500D01*
X21743928Y-11753214D01*
X21786786Y-11753214D01*
X21815357Y-11767500D01*
X21829643Y-11796071D01*
X21829643Y-11953214D01*
X22015357Y-11953214D02*
X21986786Y-11938929D01*
X21972500Y-11924643D01*
X21958214Y-11896071D01*
X21958214Y-11810357D01*
X21972500Y-11781786D01*
X21986786Y-11767500D01*
X22015357Y-11753214D01*
X22058214Y-11753214D01*
X22086786Y-11767500D01*
X22101071Y-11781786D01*
X22115357Y-11810357D01*
X22115357Y-11896071D01*
X22101071Y-11924643D01*
X22086786Y-11938929D01*
X22058214Y-11953214D01*
X22015357Y-11953214D01*
X22201071Y-11753214D02*
X22315357Y-11753214D01*
X22243929Y-11653214D02*
X22243929Y-11910357D01*
X22258214Y-11938929D01*
X22286786Y-11953214D01*
X22315357Y-11953214D01*
X22643928Y-11753214D02*
X22643928Y-12053214D01*
X22643928Y-11767500D02*
X22672500Y-11753214D01*
X22729643Y-11753214D01*
X22758214Y-11767500D01*
X22772500Y-11781786D01*
X22786786Y-11810357D01*
X22786786Y-11896071D01*
X22772500Y-11924643D01*
X22758214Y-11938929D01*
X22729643Y-11953214D01*
X22672500Y-11953214D01*
X22643928Y-11938929D01*
X22958214Y-11953214D02*
X22929643Y-11938929D01*
X22915357Y-11910357D01*
X22915357Y-11653214D01*
X23201071Y-11953214D02*
X23201071Y-11796071D01*
X23186786Y-11767500D01*
X23158214Y-11753214D01*
X23101071Y-11753214D01*
X23072500Y-11767500D01*
X23201071Y-11938929D02*
X23172500Y-11953214D01*
X23101071Y-11953214D01*
X23072500Y-11938929D01*
X23058214Y-11910357D01*
X23058214Y-11881786D01*
X23072500Y-11853214D01*
X23101071Y-11838929D01*
X23172500Y-11838929D01*
X23201071Y-11824643D01*
X23301071Y-11753214D02*
X23415357Y-11753214D01*
X23343929Y-11653214D02*
X23343929Y-11910357D01*
X23358214Y-11938929D01*
X23386786Y-11953214D01*
X23415357Y-11953214D01*
X23629643Y-11938929D02*
X23601071Y-11953214D01*
X23543929Y-11953214D01*
X23515357Y-11938929D01*
X23501071Y-11910357D01*
X23501071Y-11796071D01*
X23515357Y-11767500D01*
X23543929Y-11753214D01*
X23601071Y-11753214D01*
X23629643Y-11767500D01*
X23643929Y-11796071D01*
X23643929Y-11824643D01*
X23501071Y-11853214D01*
X23901071Y-11953214D02*
X23901071Y-11653214D01*
X23901071Y-11938929D02*
X23872500Y-11953214D01*
X23815357Y-11953214D01*
X23786786Y-11938929D01*
X23772500Y-11924643D01*
X23758214Y-11896071D01*
X23758214Y-11810357D01*
X23772500Y-11781786D01*
X23786786Y-11767500D01*
X23815357Y-11753214D01*
X23872500Y-11753214D01*
X23901071Y-11767500D01*
X24015357Y-12067500D02*
X24029643Y-12053214D01*
X24058214Y-12010357D01*
X24072500Y-11981786D01*
X24086786Y-11938929D01*
X24101071Y-11867500D01*
X24101071Y-11810357D01*
X24086786Y-11738929D01*
X24072500Y-11696071D01*
X24058214Y-11667500D01*
X24029643Y-11624643D01*
X24015357Y-11610357D01*
M02*
