M48
;DRILL file {KiCad 4.0.7} date 07/03/18 10:56:48
;FORMAT={-:-/ absolute / inch / decimal}
FMAT,2
INCH,TZ
T1C0.005
T2C0.020
%
G90
G05
M72
T1
X5.8662Y-4.1206
X5.886Y-4.2468
X5.9252Y-4.1217
X5.945Y-4.2468
X5.9843Y-4.0824
X6.0042Y-4.2468
X6.0434Y-4.1004
X6.0632Y-4.2468
X6.1024Y-4.1181
X6.1222Y-4.2468
X6.1418Y-4.1121
X6.1616Y-4.2468
X6.1812Y-4.1186
X6.201Y-4.2468
X6.2201Y-4.1252
T2
X5.7972Y-3.8858
X5.7972Y-4.0433
X5.8366Y-3.9646
X5.876Y-3.8858
X5.876Y-4.0433
X5.9154Y-3.9646
X5.9547Y-3.8858
X5.9547Y-4.0433
X5.9941Y-3.8071
X5.9941Y-3.9646
X6.0335Y-3.8858
X6.0335Y-4.0433
X6.0728Y-3.8071
X6.0728Y-3.9646
X6.1122Y-3.8858
X6.1122Y-4.0433
X6.1516Y-3.9646
X6.1909Y-3.8858
X6.1909Y-4.0433
X6.2303Y-3.9646
X6.2697Y-3.8858
X6.2697Y-4.0433
T0
M30
