G04 #@! TF.FileFunction,Copper,L1,Top,Signal*
%FSLAX46Y46*%
G04 Gerber Fmt 4.6, Leading zero omitted, Abs format (unit mm)*
G04 Created by KiCad (PCBNEW 4.0.7) date 07/03/18 10:56:41*
%MOMM*%
%LPD*%
G01*
G04 APERTURE LIST*
%ADD10C,0.100000*%
%ADD11C,1.000000*%
%ADD12R,0.300000X3.500000*%
%ADD13C,0.250000*%
%ADD14C,0.300000*%
%ADD15C,0.250000*%
G04 APERTURE END LIST*
D10*
D11*
X154250000Y-96700000D03*
X152250000Y-96700000D03*
X159250000Y-102700000D03*
X157250000Y-102700000D03*
X155250000Y-102700000D03*
X153250000Y-102700000D03*
X151250000Y-102700000D03*
X149250000Y-102700000D03*
X147250000Y-102700000D03*
X147250000Y-98700000D03*
X148250000Y-100700000D03*
X150250000Y-100700000D03*
X152250000Y-100700000D03*
X154250000Y-100700000D03*
X156250000Y-100700000D03*
X158250000Y-100700000D03*
X149250000Y-98700000D03*
X151250000Y-98700000D03*
X153250000Y-98700000D03*
X155250000Y-98700000D03*
X157250000Y-98700000D03*
X159250000Y-98700000D03*
D12*
X148503640Y-106677400D03*
X149003640Y-106677400D03*
X149503640Y-106677400D03*
X150003640Y-106677400D03*
X150503640Y-106677400D03*
X151003640Y-106677400D03*
X151503640Y-106677400D03*
X152003640Y-106677400D03*
X152503640Y-106677400D03*
X153003640Y-106677400D03*
X153503640Y-106677400D03*
X154003640Y-106677400D03*
X154503640Y-106677400D03*
X155003640Y-106677400D03*
X155503640Y-106677400D03*
X156003640Y-106677400D03*
X156503640Y-106677400D03*
X157003640Y-106677400D03*
X157503640Y-106677400D03*
X158003640Y-106677400D03*
D13*
X149001100Y-104663240D03*
X149504400Y-107868720D03*
X150501100Y-104691220D03*
X151003000Y-107868720D03*
X152001100Y-103692960D03*
X152506680Y-107868720D03*
X153501100Y-104148900D03*
X154005280Y-107868720D03*
X155001100Y-104598900D03*
X155503880Y-107868720D03*
X156001720Y-104447340D03*
X156504640Y-107868720D03*
X157003240Y-104611680D03*
X157505400Y-107868720D03*
X157991102Y-104780080D03*
D14*
X147250000Y-98700000D02*
X147250000Y-100999440D01*
X148503640Y-104259542D02*
X148503640Y-106677400D01*
X147937058Y-103692960D02*
X148503640Y-104259542D01*
X146959320Y-103692960D02*
X147937058Y-103692960D01*
X146359880Y-103093520D02*
X146959320Y-103692960D01*
X146359880Y-101889560D02*
X146359880Y-103093520D01*
X147250000Y-100999440D02*
X146359880Y-101889560D01*
X147250000Y-98900000D02*
X147250000Y-98700000D01*
X149001100Y-105003600D02*
X149001100Y-104663240D01*
X149001100Y-104663240D02*
X149001100Y-104658160D01*
X148250000Y-103100000D02*
X148250000Y-100700000D01*
X149001100Y-103851100D02*
X148250000Y-103100000D01*
X149001100Y-104658160D02*
X149001100Y-103851100D01*
X149504400Y-107868720D02*
X149504800Y-107868720D01*
X149250000Y-102700000D02*
X149250000Y-103350000D01*
X150011098Y-104111098D02*
X150011098Y-105003600D01*
X149250000Y-103350000D02*
X150011098Y-104111098D01*
X150011098Y-105003600D02*
X150001100Y-105003600D01*
X150501100Y-104691220D02*
X150501100Y-106674860D01*
X150501100Y-106674860D02*
X150503640Y-106677400D01*
X150250000Y-100700000D02*
X150250000Y-103097440D01*
X150250000Y-103097440D02*
X150501100Y-103348540D01*
X150501100Y-103348540D02*
X150501100Y-104691220D01*
X151003000Y-107868720D02*
X151003400Y-107868720D01*
X151250000Y-102700000D02*
X151250000Y-103900000D01*
X151501100Y-104151100D02*
X151501100Y-105003600D01*
X151250000Y-103900000D02*
X151501100Y-104151100D01*
X152250000Y-100700000D02*
X152250000Y-103350000D01*
X152250000Y-103350000D02*
X152001100Y-103598900D01*
X152001100Y-103598900D02*
X152001100Y-103692960D01*
X152001100Y-103692960D02*
X152001100Y-104668320D01*
X152001100Y-104668320D02*
X152001100Y-105003600D01*
X152502880Y-107872520D02*
X152500882Y-107872520D01*
X153250000Y-102700000D02*
X153250000Y-103450000D01*
X153001100Y-103698900D02*
X153001100Y-105003600D01*
X153250000Y-103450000D02*
X153001100Y-103698900D01*
X153501100Y-104150160D02*
X153501100Y-104148900D01*
X154250000Y-100700000D02*
X154250000Y-103400000D01*
X153501100Y-104150160D02*
X153501100Y-104637840D01*
X153501100Y-104637840D02*
X153501100Y-105003600D01*
X154250000Y-103400000D02*
X153501100Y-104148900D01*
D15*
X154005280Y-107868720D02*
X154005680Y-107868720D01*
D14*
X155250000Y-102700000D02*
X155250000Y-103450000D01*
X154500000Y-104200000D02*
X154500000Y-105002500D01*
X155250000Y-103450000D02*
X154500000Y-104200000D01*
X154500000Y-105002500D02*
X154501100Y-105003600D01*
X155001100Y-104648000D02*
X155001100Y-104598900D01*
X156250000Y-100700000D02*
X156250000Y-103350000D01*
X155001100Y-104648000D02*
X155001100Y-105003600D01*
X156250000Y-103350000D02*
X155001100Y-104598900D01*
X155503880Y-107868720D02*
X155504280Y-107868720D01*
X156001100Y-105003600D02*
X156001720Y-104447340D01*
X156001720Y-104447340D02*
X156001100Y-104451100D01*
X157150000Y-103300000D02*
X157150000Y-102800000D01*
X156000000Y-104450000D02*
X157150000Y-103300000D01*
X156001100Y-104451100D02*
X156000000Y-104450000D01*
X157150000Y-102800000D02*
X157250000Y-102700000D01*
X156504640Y-107868720D02*
X156505040Y-107868720D01*
X157003640Y-104612080D02*
X157003640Y-106677400D01*
X157003240Y-104611680D02*
X157003640Y-104612080D01*
X158250000Y-100700000D02*
X158250000Y-103000000D01*
X157501100Y-103748900D02*
X157501100Y-105003600D01*
X158250000Y-103000000D02*
X157501100Y-103748900D01*
X158001100Y-104780080D02*
X157991102Y-104780080D01*
X158001100Y-103998900D02*
X158001100Y-104780080D01*
X158001100Y-104780080D02*
X158001100Y-105003600D01*
X159250000Y-98700000D02*
X160300000Y-100050000D01*
X160300000Y-100050000D02*
X160250000Y-103050000D01*
X160250000Y-103050000D02*
X159500000Y-103700000D01*
X159500000Y-103700000D02*
X158300000Y-103700000D01*
X158300000Y-103700000D02*
X158001100Y-103998900D01*
X159250000Y-98700000D02*
X159250000Y-98700000D01*
M02*
