G04 #@! TF.FileFunction,Soldermask,Top*
%FSLAX46Y46*%
G04 Gerber Fmt 4.6, Leading zero omitted, Abs format (unit mm)*
G04 Created by KiCad (PCBNEW 4.0.7) date 07/03/18 10:56:41*
%MOMM*%
%LPD*%
G01*
G04 APERTURE LIST*
%ADD10C,0.100000*%
%ADD11C,1.400000*%
%ADD12R,0.700000X3.900000*%
%ADD13C,2.600000*%
G04 APERTURE END LIST*
D10*
D11*
X154250000Y-96700000D03*
X152250000Y-96700000D03*
X159250000Y-102700000D03*
X157250000Y-102700000D03*
X155250000Y-102700000D03*
X153250000Y-102700000D03*
X151250000Y-102700000D03*
X149250000Y-102700000D03*
X147250000Y-102700000D03*
X147250000Y-98700000D03*
X148250000Y-100700000D03*
X150250000Y-100700000D03*
X152250000Y-100700000D03*
X154250000Y-100700000D03*
X156250000Y-100700000D03*
X158250000Y-100700000D03*
X149250000Y-98700000D03*
X151250000Y-98700000D03*
X153250000Y-98700000D03*
X155250000Y-98700000D03*
X157250000Y-98700000D03*
X159250000Y-98700000D03*
D12*
X148503640Y-106677400D03*
X149003640Y-106677400D03*
X149503640Y-106677400D03*
X150003640Y-106677400D03*
X150503640Y-106677400D03*
X151003640Y-106677400D03*
X151503640Y-106677400D03*
X152003640Y-106677400D03*
X152503640Y-106677400D03*
X153003640Y-106677400D03*
X153503640Y-106677400D03*
X154003640Y-106677400D03*
X154503640Y-106677400D03*
X155003640Y-106677400D03*
X155503640Y-106677400D03*
X156003640Y-106677400D03*
X156503640Y-106677400D03*
X157003640Y-106677400D03*
X157503640Y-106677400D03*
X158003640Y-106677400D03*
X158003240Y-106677400D03*
X157503240Y-106677400D03*
X157003240Y-106677400D03*
X156503240Y-106677400D03*
X156003240Y-106677400D03*
X155503240Y-106677400D03*
X155003240Y-106677400D03*
X154503240Y-106677400D03*
X154003240Y-106677400D03*
X153503240Y-106677400D03*
X153003240Y-106677400D03*
X152503240Y-106677400D03*
X152003240Y-106677400D03*
X151503240Y-106677400D03*
X151003240Y-106677400D03*
X150503240Y-106677400D03*
X150003240Y-106677400D03*
X149503240Y-106677400D03*
X149003240Y-106677400D03*
X148503240Y-106677400D03*
D13*
X149733000Y-96266000D03*
X156781500Y-96266000D03*
M02*
