G04 #@! TF.FileFunction,Copper,L4,Bot,Signal*
%FSLAX46Y46*%
G04 Gerber Fmt 4.6, Leading zero omitted, Abs format (unit mm)*
G04 Created by KiCad (PCBNEW 4.0.7) date 05/28/18 09:58:20*
%MOMM*%
%LPD*%
G01*
G04 APERTURE LIST*
%ADD10C,0.100000*%
%ADD11C,1.350000*%
%ADD12O,1.350000X1.350000*%
%ADD13R,1.350000X1.350000*%
%ADD14R,1.500000X0.400000*%
%ADD15R,0.900000X0.500000*%
%ADD16C,0.500000*%
%ADD17C,0.254000*%
%ADD18C,0.203200*%
%ADD19C,0.202000*%
G04 APERTURE END LIST*
D10*
D11*
X155194000Y-96393000D03*
D12*
X145344400Y-112935000D03*
X141344400Y-112935000D03*
X143344400Y-112935000D03*
X147344400Y-112935000D03*
X149344400Y-112935000D03*
X151344400Y-112935000D03*
X153344400Y-112935000D03*
X155344400Y-112935000D03*
D13*
X155321000Y-110972600D03*
D12*
X155321000Y-108972600D03*
D14*
X144158400Y-96256200D03*
X146958400Y-96256200D03*
X146958400Y-107756200D03*
X144158400Y-106756200D03*
X144158400Y-105756200D03*
X144158400Y-104756200D03*
X144158400Y-103756200D03*
X144158400Y-102756200D03*
X144158400Y-101756200D03*
X144158400Y-100756200D03*
X144158400Y-99756200D03*
X144158400Y-98756200D03*
X144158400Y-97756200D03*
X146958400Y-106256200D03*
X146958400Y-105256200D03*
X146958400Y-104256200D03*
X146958400Y-103256200D03*
X146958400Y-102256200D03*
X146958400Y-101256200D03*
X146958400Y-100256200D03*
X146958400Y-99256200D03*
X146958400Y-98256200D03*
X146958400Y-97256200D03*
X144158400Y-107756200D03*
X150051200Y-96256200D03*
X152851200Y-96256200D03*
X152851200Y-107756200D03*
X150051200Y-106756200D03*
X150051200Y-105756200D03*
X150051200Y-104756200D03*
X150051200Y-103756200D03*
X150051200Y-102756200D03*
X150051200Y-101756200D03*
X150051200Y-100756200D03*
X150051200Y-99756200D03*
X150051200Y-98756200D03*
X150051200Y-97756200D03*
X152851200Y-106256200D03*
X152851200Y-105256200D03*
X152851200Y-104256200D03*
X152851200Y-103256200D03*
X152851200Y-102256200D03*
X152851200Y-101256200D03*
X152851200Y-100256200D03*
X152851200Y-99256200D03*
X152851200Y-98256200D03*
X152851200Y-97256200D03*
X150051200Y-107756200D03*
D13*
X141351000Y-106934000D03*
D12*
X141351000Y-108934000D03*
X141351000Y-110934000D03*
D15*
X149453600Y-110351000D03*
X149453600Y-108851000D03*
X147624800Y-110351000D03*
X147624800Y-108851000D03*
X155371800Y-106006200D03*
X155371800Y-107506200D03*
D11*
X141732000Y-96393000D03*
D15*
X155702000Y-99238500D03*
X155702000Y-97738500D03*
D16*
X145542000Y-107873800D03*
X154457400Y-107213400D03*
X151257000Y-110109000D03*
X154940000Y-104775000D03*
X148539200Y-107950000D03*
X151485600Y-106832400D03*
X142748000Y-106756200D03*
X154686000Y-97726500D03*
X142849600Y-97739200D03*
X148590000Y-97790000D03*
X145516600Y-106248200D03*
X142773400Y-105460800D03*
X145516600Y-105257600D03*
X142748000Y-104749600D03*
X145491200Y-104241600D03*
X142748000Y-103759000D03*
X145491200Y-103276400D03*
X142748000Y-102768400D03*
X145516600Y-102260400D03*
X142748000Y-101752400D03*
X142748000Y-100761800D03*
X142748000Y-99771200D03*
X142748000Y-98729800D03*
X145643600Y-98958400D03*
X145643600Y-98171000D03*
X148132800Y-99898200D03*
X148259800Y-101904800D03*
X148742400Y-99491800D03*
X148742400Y-98729800D03*
X151434800Y-98298000D03*
X153974800Y-98755200D03*
X153924000Y-99568000D03*
X154254200Y-100203000D03*
X154228800Y-101269800D03*
X151511000Y-101854000D03*
X154228800Y-102260400D03*
X151511000Y-102768400D03*
X154228800Y-103251000D03*
X151511000Y-103759000D03*
X154228800Y-104241600D03*
X151511000Y-104749600D03*
X154228800Y-105257600D03*
X151511000Y-105664000D03*
X154305000Y-108458000D03*
D17*
X146673000Y-110351000D02*
X147624800Y-110351000D01*
X145542000Y-109220000D02*
X146673000Y-110351000D01*
X145542000Y-107873800D02*
X145542000Y-109220000D01*
D18*
X155321000Y-108972600D02*
X155321000Y-108737400D01*
D17*
X155321000Y-108737400D02*
X156159200Y-107899200D01*
X156159200Y-106793600D02*
X155371800Y-106006200D01*
X156159200Y-107899200D02*
X156159200Y-106793600D01*
X155371800Y-106299000D02*
X155371800Y-106006200D01*
X154457400Y-107213400D02*
X155371800Y-106299000D01*
D18*
X155117800Y-106121200D02*
X155117800Y-106006200D01*
D17*
X149453600Y-110351000D02*
X151015000Y-110351000D01*
X151015000Y-110351000D02*
X151257000Y-110109000D01*
X147624800Y-110351000D02*
X149453600Y-110351000D01*
X154000200Y-110109000D02*
X155136600Y-108972600D01*
X151257000Y-110109000D02*
X153543000Y-110109000D01*
X153543000Y-110109000D02*
X154000200Y-110109000D01*
D18*
X155136600Y-108972600D02*
X155321000Y-108972600D01*
X155702000Y-99238500D02*
X155118500Y-99238500D01*
X155118500Y-99238500D02*
X154940000Y-99060000D01*
D17*
X153593400Y-97256200D02*
X154940000Y-99060000D01*
X154940000Y-99060000D02*
X154940000Y-104775000D01*
X152851200Y-97256200D02*
X153593400Y-97256200D01*
X150051200Y-106756200D02*
X149174200Y-106756200D01*
X148539200Y-107391200D02*
X148539200Y-107950000D01*
X149174200Y-106756200D02*
X148539200Y-107391200D01*
D18*
X149453600Y-108851000D02*
X149440200Y-108851000D01*
D17*
X149440200Y-108851000D02*
X148539200Y-107950000D01*
D18*
X147624800Y-108851000D02*
X147638200Y-108851000D01*
D17*
X147638200Y-108851000D02*
X148539200Y-107950000D01*
D18*
X152851200Y-97256200D02*
X146958400Y-97256200D01*
X150051200Y-106756200D02*
X151409400Y-106756200D01*
X151409400Y-106756200D02*
X151485600Y-106832400D01*
X144158400Y-106756200D02*
X142748000Y-106756200D01*
X155702000Y-97738500D02*
X154698000Y-97738500D01*
X154698000Y-97738500D02*
X154686000Y-97726500D01*
X144158400Y-97756200D02*
X142866600Y-97756200D01*
X142866600Y-97756200D02*
X142849600Y-97739200D01*
D17*
X148623800Y-97756200D02*
X150051200Y-97756200D01*
D18*
X148590000Y-97790000D02*
X148623800Y-97756200D01*
X152851200Y-106256200D02*
X146958400Y-106256200D01*
X146958400Y-106256200D02*
X145524600Y-106256200D01*
X145524600Y-106256200D02*
X145516600Y-106248200D01*
X143052800Y-105740200D02*
X144142400Y-105740200D01*
X142773400Y-105460800D02*
X143052800Y-105740200D01*
X144142400Y-105740200D02*
X144158400Y-105756200D01*
X145518000Y-105256200D02*
X146958400Y-105256200D01*
X145516600Y-105257600D02*
X145518000Y-105256200D01*
X144158400Y-104756200D02*
X142754600Y-104756200D01*
X142754600Y-104756200D02*
X142748000Y-104749600D01*
X145505800Y-104256200D02*
X146958400Y-104256200D01*
X145491200Y-104241600D02*
X145505800Y-104256200D01*
X142750800Y-103756200D02*
X144158400Y-103756200D01*
X142748000Y-103759000D02*
X142750800Y-103756200D01*
X145511400Y-103256200D02*
X146958400Y-103256200D01*
X145491200Y-103276400D02*
X145511400Y-103256200D01*
X142760200Y-102756200D02*
X144158400Y-102756200D01*
X142748000Y-102768400D02*
X142760200Y-102756200D01*
X145520800Y-102256200D02*
X146958400Y-102256200D01*
X145516600Y-102260400D02*
X145520800Y-102256200D01*
X142751800Y-101756200D02*
X144158400Y-101756200D01*
X142748000Y-101752400D02*
X142751800Y-101756200D01*
X144158400Y-100756200D02*
X142753600Y-100756200D01*
X142753600Y-100756200D02*
X142748000Y-100761800D01*
X142763000Y-99756200D02*
X144158400Y-99756200D01*
X142748000Y-99771200D02*
X142763000Y-99756200D01*
X142774400Y-98756200D02*
X144158400Y-98756200D01*
X142748000Y-98729800D02*
X142774400Y-98756200D01*
X145941400Y-99256200D02*
X146958400Y-99256200D01*
X145643600Y-98958400D02*
X145941400Y-99256200D01*
X145728800Y-98256200D02*
X146958400Y-98256200D01*
X145643600Y-98171000D02*
X145728800Y-98256200D01*
X146958400Y-100256200D02*
X147774800Y-100256200D01*
X147774800Y-100256200D02*
X148132800Y-99898200D01*
X148259800Y-101904800D02*
X147611200Y-101256200D01*
X147611200Y-101256200D02*
X146958400Y-101256200D01*
X148742400Y-100152200D02*
X149346400Y-100756200D01*
X148742400Y-99491800D02*
X148742400Y-100152200D01*
X149346400Y-100756200D02*
X150051200Y-100756200D01*
X148768800Y-98756200D02*
X150051200Y-98756200D01*
X148742400Y-98729800D02*
X148768800Y-98756200D01*
X151145000Y-99756200D02*
X150051200Y-99756200D01*
X151434800Y-99466400D02*
X151145000Y-99756200D01*
X151434800Y-98298000D02*
X151434800Y-99466400D01*
X153974800Y-98755200D02*
X153475800Y-98256200D01*
X153475800Y-98256200D02*
X152851200Y-98256200D01*
X153612200Y-99256200D02*
X152851200Y-99256200D01*
X153924000Y-99568000D02*
X153612200Y-99256200D01*
X154201000Y-100256200D02*
X152851200Y-100256200D01*
X154254200Y-100203000D02*
X154201000Y-100256200D01*
X152851200Y-101256200D02*
X154215200Y-101256200D01*
X154215200Y-101256200D02*
X154228800Y-101269800D01*
X151413200Y-101756200D02*
X150051200Y-101756200D01*
X151511000Y-101854000D02*
X151413200Y-101756200D01*
X154224600Y-102256200D02*
X152851200Y-102256200D01*
X154228800Y-102260400D02*
X154224600Y-102256200D01*
X151498800Y-102756200D02*
X150051200Y-102756200D01*
X151511000Y-102768400D02*
X151498800Y-102756200D01*
X154223600Y-103256200D02*
X152851200Y-103256200D01*
X154228800Y-103251000D02*
X154223600Y-103256200D01*
X151508200Y-103756200D02*
X150051200Y-103756200D01*
X151511000Y-103759000D02*
X151508200Y-103756200D01*
X154214200Y-104256200D02*
X152851200Y-104256200D01*
X154228800Y-104241600D02*
X154214200Y-104256200D01*
X151504400Y-104756200D02*
X150051200Y-104756200D01*
X151511000Y-104749600D02*
X151504400Y-104756200D01*
X154227400Y-105256200D02*
X152851200Y-105256200D01*
X154228800Y-105257600D02*
X154227400Y-105256200D01*
X150051200Y-105756200D02*
X151418800Y-105756200D01*
X151418800Y-105756200D02*
X151511000Y-105664000D01*
X155371800Y-107506200D02*
X155256800Y-107506200D01*
X155256800Y-107506200D02*
X154305000Y-108458000D01*
D19*
G36*
X156363000Y-96053836D02*
X156363000Y-97265949D01*
X156272193Y-97203904D01*
X156152000Y-97179564D01*
X155790371Y-97179564D01*
X156022624Y-96947716D01*
X156171830Y-96588390D01*
X156172169Y-96199317D01*
X156023591Y-95839731D01*
X155748716Y-95564376D01*
X155389390Y-95415170D01*
X155000317Y-95414831D01*
X154640731Y-95563409D01*
X154365376Y-95838284D01*
X154216170Y-96197610D01*
X154215831Y-96586683D01*
X154364409Y-96946269D01*
X154591161Y-97173417D01*
X154576484Y-97173404D01*
X154373160Y-97257416D01*
X154217463Y-97412842D01*
X154187280Y-97485530D01*
X154057950Y-97356200D01*
X153004200Y-97356200D01*
X153004200Y-97429200D01*
X152698200Y-97429200D01*
X152698200Y-97356200D01*
X151644450Y-97356200D01*
X151492200Y-97508450D01*
X151492200Y-97577338D01*
X151565096Y-97753324D01*
X151545281Y-97745096D01*
X151325284Y-97744904D01*
X151121960Y-97828916D01*
X151110136Y-97840719D01*
X151110136Y-97556200D01*
X151089008Y-97443915D01*
X151022648Y-97340788D01*
X150921393Y-97271604D01*
X150801200Y-97247264D01*
X149301200Y-97247264D01*
X149188915Y-97268392D01*
X149099078Y-97326200D01*
X148908387Y-97326200D01*
X148903658Y-97321463D01*
X148700481Y-97237096D01*
X148480484Y-97236904D01*
X148277160Y-97320916D01*
X148203449Y-97394499D01*
X148165150Y-97356200D01*
X147111400Y-97356200D01*
X147111400Y-97429200D01*
X146805400Y-97429200D01*
X146805400Y-97356200D01*
X145751650Y-97356200D01*
X145599400Y-97508450D01*
X145599400Y-97577338D01*
X145616233Y-97617976D01*
X145534084Y-97617904D01*
X145330760Y-97701916D01*
X145217336Y-97815143D01*
X145217336Y-97556200D01*
X145196208Y-97443915D01*
X145129848Y-97340788D01*
X145028593Y-97271604D01*
X144908400Y-97247264D01*
X143408400Y-97247264D01*
X143296115Y-97268392D01*
X143213841Y-97321334D01*
X143163258Y-97270663D01*
X142960081Y-97186296D01*
X142740084Y-97186104D01*
X142536760Y-97270116D01*
X142381063Y-97425542D01*
X142296696Y-97628719D01*
X142296504Y-97848716D01*
X142380516Y-98052040D01*
X142535942Y-98207737D01*
X142549626Y-98213419D01*
X142435160Y-98260716D01*
X142279463Y-98416142D01*
X142195096Y-98619319D01*
X142194904Y-98839316D01*
X142278916Y-99042640D01*
X142434342Y-99198337D01*
X142560022Y-99250524D01*
X142435160Y-99302116D01*
X142279463Y-99457542D01*
X142195096Y-99660719D01*
X142194904Y-99880716D01*
X142278916Y-100084040D01*
X142434342Y-100239737D01*
X142498701Y-100266461D01*
X142435160Y-100292716D01*
X142279463Y-100448142D01*
X142195096Y-100651319D01*
X142194904Y-100871316D01*
X142278916Y-101074640D01*
X142434342Y-101230337D01*
X142498701Y-101257061D01*
X142435160Y-101283316D01*
X142279463Y-101438742D01*
X142195096Y-101641919D01*
X142194904Y-101861916D01*
X142278916Y-102065240D01*
X142434342Y-102220937D01*
X142529361Y-102260393D01*
X142435160Y-102299316D01*
X142279463Y-102454742D01*
X142195096Y-102657919D01*
X142194904Y-102877916D01*
X142278916Y-103081240D01*
X142434342Y-103236937D01*
X142498701Y-103263661D01*
X142435160Y-103289916D01*
X142279463Y-103445342D01*
X142195096Y-103648519D01*
X142194904Y-103868516D01*
X142278916Y-104071840D01*
X142434342Y-104227537D01*
X142498701Y-104254261D01*
X142435160Y-104280516D01*
X142279463Y-104435942D01*
X142195096Y-104639119D01*
X142194904Y-104859116D01*
X142278916Y-105062440D01*
X142334218Y-105117838D01*
X142304863Y-105147142D01*
X142220496Y-105350319D01*
X142220304Y-105570316D01*
X142304316Y-105773640D01*
X142459742Y-105929337D01*
X142662919Y-106013704D01*
X142754193Y-106013784D01*
X142766704Y-106026295D01*
X142867082Y-106093366D01*
X142897966Y-106114002D01*
X142974182Y-106129162D01*
X142892115Y-106211229D01*
X142799400Y-106435062D01*
X142799400Y-106503950D01*
X142951650Y-106656200D01*
X144005400Y-106656200D01*
X144005400Y-106583200D01*
X144311400Y-106583200D01*
X144311400Y-106656200D01*
X144331400Y-106656200D01*
X144331400Y-106856200D01*
X144311400Y-106856200D01*
X144311400Y-106929200D01*
X144005400Y-106929200D01*
X144005400Y-106856200D01*
X142951650Y-106856200D01*
X142799400Y-107008450D01*
X142799400Y-107077338D01*
X142892115Y-107301171D01*
X143063429Y-107472486D01*
X143112316Y-107492735D01*
X143099464Y-107556200D01*
X143099464Y-107956200D01*
X143120592Y-108068485D01*
X143186952Y-108171612D01*
X143288207Y-108240796D01*
X143408400Y-108265136D01*
X144908400Y-108265136D01*
X145020685Y-108244008D01*
X145087357Y-108201106D01*
X145112000Y-108225792D01*
X145112000Y-109220000D01*
X145144732Y-109384554D01*
X145237944Y-109524056D01*
X146368944Y-110655056D01*
X146508446Y-110748268D01*
X146673000Y-110781000D01*
X146930565Y-110781000D01*
X146953352Y-110816412D01*
X147054607Y-110885596D01*
X147174800Y-110909936D01*
X148074800Y-110909936D01*
X148187085Y-110888808D01*
X148290212Y-110822448D01*
X148318532Y-110781000D01*
X148759365Y-110781000D01*
X148782152Y-110816412D01*
X148883407Y-110885596D01*
X149003600Y-110909936D01*
X149903600Y-110909936D01*
X150015885Y-110888808D01*
X150119012Y-110822448D01*
X150147332Y-110781000D01*
X151015000Y-110781000D01*
X151179554Y-110748268D01*
X151308596Y-110662045D01*
X151366516Y-110662096D01*
X151569840Y-110578084D01*
X151608992Y-110539000D01*
X154000200Y-110539000D01*
X154037000Y-110531680D01*
X154037000Y-110667350D01*
X154189250Y-110819600D01*
X155168000Y-110819600D01*
X155168000Y-110799600D01*
X155474000Y-110799600D01*
X155474000Y-110819600D01*
X155494000Y-110819600D01*
X155494000Y-111125600D01*
X155474000Y-111125600D01*
X155474000Y-111145600D01*
X155168000Y-111145600D01*
X155168000Y-111125600D01*
X154189250Y-111125600D01*
X154037000Y-111277850D01*
X154037000Y-111768737D01*
X154129714Y-111992571D01*
X154301029Y-112163885D01*
X154524862Y-112256600D01*
X154624903Y-112256600D01*
X154421686Y-112560736D01*
X154347240Y-112935000D01*
X154421686Y-113309264D01*
X154633690Y-113626550D01*
X154730146Y-113691000D01*
X153958654Y-113691000D01*
X154055110Y-113626550D01*
X154267114Y-113309264D01*
X154341560Y-112935000D01*
X154267114Y-112560736D01*
X154055110Y-112243450D01*
X153737824Y-112031446D01*
X153363560Y-111957000D01*
X153325240Y-111957000D01*
X152950976Y-112031446D01*
X152633690Y-112243450D01*
X152421686Y-112560736D01*
X152347240Y-112935000D01*
X152421686Y-113309264D01*
X152633690Y-113626550D01*
X152730146Y-113691000D01*
X151958654Y-113691000D01*
X152055110Y-113626550D01*
X152267114Y-113309264D01*
X152341560Y-112935000D01*
X152267114Y-112560736D01*
X152055110Y-112243450D01*
X151737824Y-112031446D01*
X151363560Y-111957000D01*
X151325240Y-111957000D01*
X150950976Y-112031446D01*
X150633690Y-112243450D01*
X150421686Y-112560736D01*
X150347240Y-112935000D01*
X150421686Y-113309264D01*
X150633690Y-113626550D01*
X150730146Y-113691000D01*
X149958654Y-113691000D01*
X150055110Y-113626550D01*
X150267114Y-113309264D01*
X150341560Y-112935000D01*
X150267114Y-112560736D01*
X150055110Y-112243450D01*
X149737824Y-112031446D01*
X149363560Y-111957000D01*
X149325240Y-111957000D01*
X148950976Y-112031446D01*
X148633690Y-112243450D01*
X148421686Y-112560736D01*
X148347240Y-112935000D01*
X148421686Y-113309264D01*
X148633690Y-113626550D01*
X148730146Y-113691000D01*
X147958654Y-113691000D01*
X148055110Y-113626550D01*
X148267114Y-113309264D01*
X148341560Y-112935000D01*
X148267114Y-112560736D01*
X148055110Y-112243450D01*
X147737824Y-112031446D01*
X147363560Y-111957000D01*
X147325240Y-111957000D01*
X146950976Y-112031446D01*
X146633690Y-112243450D01*
X146421686Y-112560736D01*
X146347240Y-112935000D01*
X146421686Y-113309264D01*
X146633690Y-113626550D01*
X146730146Y-113691000D01*
X145958654Y-113691000D01*
X146055110Y-113626550D01*
X146267114Y-113309264D01*
X146341560Y-112935000D01*
X146267114Y-112560736D01*
X146055110Y-112243450D01*
X145737824Y-112031446D01*
X145363560Y-111957000D01*
X145325240Y-111957000D01*
X144950976Y-112031446D01*
X144633690Y-112243450D01*
X144421686Y-112560736D01*
X144347240Y-112935000D01*
X144421686Y-113309264D01*
X144633690Y-113626550D01*
X144730146Y-113691000D01*
X143958654Y-113691000D01*
X144055110Y-113626550D01*
X144267114Y-113309264D01*
X144341560Y-112935000D01*
X144267114Y-112560736D01*
X144055110Y-112243450D01*
X143737824Y-112031446D01*
X143363560Y-111957000D01*
X143325240Y-111957000D01*
X142950976Y-112031446D01*
X142633690Y-112243450D01*
X142421686Y-112560736D01*
X142347240Y-112935000D01*
X142421686Y-113309264D01*
X142633690Y-113626550D01*
X142730146Y-113691000D01*
X141958654Y-113691000D01*
X142055110Y-113626550D01*
X142267114Y-113309264D01*
X142341560Y-112935000D01*
X142267114Y-112560736D01*
X142055110Y-112243450D01*
X141737824Y-112031446D01*
X141363560Y-111957000D01*
X141325240Y-111957000D01*
X140950976Y-112031446D01*
X140633690Y-112243450D01*
X140563000Y-112349245D01*
X140563000Y-111509877D01*
X140640290Y-111625550D01*
X140957576Y-111837554D01*
X141331840Y-111912000D01*
X141370160Y-111912000D01*
X141744424Y-111837554D01*
X142061710Y-111625550D01*
X142273714Y-111308264D01*
X142348160Y-110934000D01*
X142273714Y-110559736D01*
X142061710Y-110242450D01*
X141744424Y-110030446D01*
X141370160Y-109956000D01*
X141331840Y-109956000D01*
X140957576Y-110030446D01*
X140640290Y-110242450D01*
X140563000Y-110358123D01*
X140563000Y-109509877D01*
X140640290Y-109625550D01*
X140957576Y-109837554D01*
X141331840Y-109912000D01*
X141370160Y-109912000D01*
X141744424Y-109837554D01*
X142061710Y-109625550D01*
X142273714Y-109308264D01*
X142348160Y-108934000D01*
X142273714Y-108559736D01*
X142061710Y-108242450D01*
X141744424Y-108030446D01*
X141370160Y-107956000D01*
X141331840Y-107956000D01*
X140957576Y-108030446D01*
X140640290Y-108242450D01*
X140563000Y-108358123D01*
X140563000Y-107895053D01*
X140676000Y-107917936D01*
X142026000Y-107917936D01*
X142138285Y-107896808D01*
X142241412Y-107830448D01*
X142310596Y-107729193D01*
X142334936Y-107609000D01*
X142334936Y-106259000D01*
X142313808Y-106146715D01*
X142247448Y-106043588D01*
X142146193Y-105974404D01*
X142026000Y-105950064D01*
X140676000Y-105950064D01*
X140563715Y-105971192D01*
X140563000Y-105971652D01*
X140563000Y-96586683D01*
X140753831Y-96586683D01*
X140902409Y-96946269D01*
X141177284Y-97221624D01*
X141536610Y-97370830D01*
X141925683Y-97371169D01*
X142285269Y-97222591D01*
X142560624Y-96947716D01*
X142565878Y-96935062D01*
X145599400Y-96935062D01*
X145599400Y-97003950D01*
X145751650Y-97156200D01*
X146805400Y-97156200D01*
X146805400Y-97083200D01*
X147111400Y-97083200D01*
X147111400Y-97156200D01*
X148165150Y-97156200D01*
X148317400Y-97003950D01*
X148317400Y-96935062D01*
X151492200Y-96935062D01*
X151492200Y-97003950D01*
X151644450Y-97156200D01*
X152698200Y-97156200D01*
X152698200Y-97083200D01*
X153004200Y-97083200D01*
X153004200Y-97156200D01*
X154057950Y-97156200D01*
X154210200Y-97003950D01*
X154210200Y-96935062D01*
X154117485Y-96711229D01*
X153946171Y-96539914D01*
X153897284Y-96519665D01*
X153910136Y-96456200D01*
X153910136Y-96056200D01*
X153889008Y-95943915D01*
X153822648Y-95840788D01*
X153721393Y-95771604D01*
X153601200Y-95747264D01*
X152101200Y-95747264D01*
X151988915Y-95768392D01*
X151885788Y-95834752D01*
X151816604Y-95936007D01*
X151792264Y-96056200D01*
X151792264Y-96456200D01*
X151804272Y-96520014D01*
X151756229Y-96539914D01*
X151584915Y-96711229D01*
X151492200Y-96935062D01*
X148317400Y-96935062D01*
X148224685Y-96711229D01*
X148053371Y-96539914D01*
X148004484Y-96519665D01*
X148017336Y-96456200D01*
X148017336Y-96056200D01*
X148992264Y-96056200D01*
X148992264Y-96456200D01*
X149013392Y-96568485D01*
X149079752Y-96671612D01*
X149181007Y-96740796D01*
X149301200Y-96765136D01*
X150801200Y-96765136D01*
X150913485Y-96744008D01*
X151016612Y-96677648D01*
X151085796Y-96576393D01*
X151110136Y-96456200D01*
X151110136Y-96056200D01*
X151089008Y-95943915D01*
X151022648Y-95840788D01*
X150921393Y-95771604D01*
X150801200Y-95747264D01*
X149301200Y-95747264D01*
X149188915Y-95768392D01*
X149085788Y-95834752D01*
X149016604Y-95936007D01*
X148992264Y-96056200D01*
X148017336Y-96056200D01*
X147996208Y-95943915D01*
X147929848Y-95840788D01*
X147828593Y-95771604D01*
X147708400Y-95747264D01*
X146208400Y-95747264D01*
X146096115Y-95768392D01*
X145992988Y-95834752D01*
X145923804Y-95936007D01*
X145899464Y-96056200D01*
X145899464Y-96456200D01*
X145911472Y-96520014D01*
X145863429Y-96539914D01*
X145692115Y-96711229D01*
X145599400Y-96935062D01*
X142565878Y-96935062D01*
X142709830Y-96588390D01*
X142710169Y-96199317D01*
X142651035Y-96056200D01*
X143099464Y-96056200D01*
X143099464Y-96456200D01*
X143120592Y-96568485D01*
X143186952Y-96671612D01*
X143288207Y-96740796D01*
X143408400Y-96765136D01*
X144908400Y-96765136D01*
X145020685Y-96744008D01*
X145123812Y-96677648D01*
X145192996Y-96576393D01*
X145217336Y-96456200D01*
X145217336Y-96056200D01*
X145196208Y-95943915D01*
X145129848Y-95840788D01*
X145028593Y-95771604D01*
X144908400Y-95747264D01*
X143408400Y-95747264D01*
X143296115Y-95768392D01*
X143192988Y-95834752D01*
X143123804Y-95936007D01*
X143099464Y-96056200D01*
X142651035Y-96056200D01*
X142561591Y-95839731D01*
X142286716Y-95564376D01*
X141927390Y-95415170D01*
X141538317Y-95414831D01*
X141178731Y-95563409D01*
X140903376Y-95838284D01*
X140754170Y-96197610D01*
X140753831Y-96586683D01*
X140563000Y-96586683D01*
X140563000Y-96053836D01*
X141519836Y-95097000D01*
X155406164Y-95097000D01*
X156363000Y-96053836D01*
X156363000Y-96053836D01*
G37*
X156363000Y-96053836D02*
X156363000Y-97265949D01*
X156272193Y-97203904D01*
X156152000Y-97179564D01*
X155790371Y-97179564D01*
X156022624Y-96947716D01*
X156171830Y-96588390D01*
X156172169Y-96199317D01*
X156023591Y-95839731D01*
X155748716Y-95564376D01*
X155389390Y-95415170D01*
X155000317Y-95414831D01*
X154640731Y-95563409D01*
X154365376Y-95838284D01*
X154216170Y-96197610D01*
X154215831Y-96586683D01*
X154364409Y-96946269D01*
X154591161Y-97173417D01*
X154576484Y-97173404D01*
X154373160Y-97257416D01*
X154217463Y-97412842D01*
X154187280Y-97485530D01*
X154057950Y-97356200D01*
X153004200Y-97356200D01*
X153004200Y-97429200D01*
X152698200Y-97429200D01*
X152698200Y-97356200D01*
X151644450Y-97356200D01*
X151492200Y-97508450D01*
X151492200Y-97577338D01*
X151565096Y-97753324D01*
X151545281Y-97745096D01*
X151325284Y-97744904D01*
X151121960Y-97828916D01*
X151110136Y-97840719D01*
X151110136Y-97556200D01*
X151089008Y-97443915D01*
X151022648Y-97340788D01*
X150921393Y-97271604D01*
X150801200Y-97247264D01*
X149301200Y-97247264D01*
X149188915Y-97268392D01*
X149099078Y-97326200D01*
X148908387Y-97326200D01*
X148903658Y-97321463D01*
X148700481Y-97237096D01*
X148480484Y-97236904D01*
X148277160Y-97320916D01*
X148203449Y-97394499D01*
X148165150Y-97356200D01*
X147111400Y-97356200D01*
X147111400Y-97429200D01*
X146805400Y-97429200D01*
X146805400Y-97356200D01*
X145751650Y-97356200D01*
X145599400Y-97508450D01*
X145599400Y-97577338D01*
X145616233Y-97617976D01*
X145534084Y-97617904D01*
X145330760Y-97701916D01*
X145217336Y-97815143D01*
X145217336Y-97556200D01*
X145196208Y-97443915D01*
X145129848Y-97340788D01*
X145028593Y-97271604D01*
X144908400Y-97247264D01*
X143408400Y-97247264D01*
X143296115Y-97268392D01*
X143213841Y-97321334D01*
X143163258Y-97270663D01*
X142960081Y-97186296D01*
X142740084Y-97186104D01*
X142536760Y-97270116D01*
X142381063Y-97425542D01*
X142296696Y-97628719D01*
X142296504Y-97848716D01*
X142380516Y-98052040D01*
X142535942Y-98207737D01*
X142549626Y-98213419D01*
X142435160Y-98260716D01*
X142279463Y-98416142D01*
X142195096Y-98619319D01*
X142194904Y-98839316D01*
X142278916Y-99042640D01*
X142434342Y-99198337D01*
X142560022Y-99250524D01*
X142435160Y-99302116D01*
X142279463Y-99457542D01*
X142195096Y-99660719D01*
X142194904Y-99880716D01*
X142278916Y-100084040D01*
X142434342Y-100239737D01*
X142498701Y-100266461D01*
X142435160Y-100292716D01*
X142279463Y-100448142D01*
X142195096Y-100651319D01*
X142194904Y-100871316D01*
X142278916Y-101074640D01*
X142434342Y-101230337D01*
X142498701Y-101257061D01*
X142435160Y-101283316D01*
X142279463Y-101438742D01*
X142195096Y-101641919D01*
X142194904Y-101861916D01*
X142278916Y-102065240D01*
X142434342Y-102220937D01*
X142529361Y-102260393D01*
X142435160Y-102299316D01*
X142279463Y-102454742D01*
X142195096Y-102657919D01*
X142194904Y-102877916D01*
X142278916Y-103081240D01*
X142434342Y-103236937D01*
X142498701Y-103263661D01*
X142435160Y-103289916D01*
X142279463Y-103445342D01*
X142195096Y-103648519D01*
X142194904Y-103868516D01*
X142278916Y-104071840D01*
X142434342Y-104227537D01*
X142498701Y-104254261D01*
X142435160Y-104280516D01*
X142279463Y-104435942D01*
X142195096Y-104639119D01*
X142194904Y-104859116D01*
X142278916Y-105062440D01*
X142334218Y-105117838D01*
X142304863Y-105147142D01*
X142220496Y-105350319D01*
X142220304Y-105570316D01*
X142304316Y-105773640D01*
X142459742Y-105929337D01*
X142662919Y-106013704D01*
X142754193Y-106013784D01*
X142766704Y-106026295D01*
X142867082Y-106093366D01*
X142897966Y-106114002D01*
X142974182Y-106129162D01*
X142892115Y-106211229D01*
X142799400Y-106435062D01*
X142799400Y-106503950D01*
X142951650Y-106656200D01*
X144005400Y-106656200D01*
X144005400Y-106583200D01*
X144311400Y-106583200D01*
X144311400Y-106656200D01*
X144331400Y-106656200D01*
X144331400Y-106856200D01*
X144311400Y-106856200D01*
X144311400Y-106929200D01*
X144005400Y-106929200D01*
X144005400Y-106856200D01*
X142951650Y-106856200D01*
X142799400Y-107008450D01*
X142799400Y-107077338D01*
X142892115Y-107301171D01*
X143063429Y-107472486D01*
X143112316Y-107492735D01*
X143099464Y-107556200D01*
X143099464Y-107956200D01*
X143120592Y-108068485D01*
X143186952Y-108171612D01*
X143288207Y-108240796D01*
X143408400Y-108265136D01*
X144908400Y-108265136D01*
X145020685Y-108244008D01*
X145087357Y-108201106D01*
X145112000Y-108225792D01*
X145112000Y-109220000D01*
X145144732Y-109384554D01*
X145237944Y-109524056D01*
X146368944Y-110655056D01*
X146508446Y-110748268D01*
X146673000Y-110781000D01*
X146930565Y-110781000D01*
X146953352Y-110816412D01*
X147054607Y-110885596D01*
X147174800Y-110909936D01*
X148074800Y-110909936D01*
X148187085Y-110888808D01*
X148290212Y-110822448D01*
X148318532Y-110781000D01*
X148759365Y-110781000D01*
X148782152Y-110816412D01*
X148883407Y-110885596D01*
X149003600Y-110909936D01*
X149903600Y-110909936D01*
X150015885Y-110888808D01*
X150119012Y-110822448D01*
X150147332Y-110781000D01*
X151015000Y-110781000D01*
X151179554Y-110748268D01*
X151308596Y-110662045D01*
X151366516Y-110662096D01*
X151569840Y-110578084D01*
X151608992Y-110539000D01*
X154000200Y-110539000D01*
X154037000Y-110531680D01*
X154037000Y-110667350D01*
X154189250Y-110819600D01*
X155168000Y-110819600D01*
X155168000Y-110799600D01*
X155474000Y-110799600D01*
X155474000Y-110819600D01*
X155494000Y-110819600D01*
X155494000Y-111125600D01*
X155474000Y-111125600D01*
X155474000Y-111145600D01*
X155168000Y-111145600D01*
X155168000Y-111125600D01*
X154189250Y-111125600D01*
X154037000Y-111277850D01*
X154037000Y-111768737D01*
X154129714Y-111992571D01*
X154301029Y-112163885D01*
X154524862Y-112256600D01*
X154624903Y-112256600D01*
X154421686Y-112560736D01*
X154347240Y-112935000D01*
X154421686Y-113309264D01*
X154633690Y-113626550D01*
X154730146Y-113691000D01*
X153958654Y-113691000D01*
X154055110Y-113626550D01*
X154267114Y-113309264D01*
X154341560Y-112935000D01*
X154267114Y-112560736D01*
X154055110Y-112243450D01*
X153737824Y-112031446D01*
X153363560Y-111957000D01*
X153325240Y-111957000D01*
X152950976Y-112031446D01*
X152633690Y-112243450D01*
X152421686Y-112560736D01*
X152347240Y-112935000D01*
X152421686Y-113309264D01*
X152633690Y-113626550D01*
X152730146Y-113691000D01*
X151958654Y-113691000D01*
X152055110Y-113626550D01*
X152267114Y-113309264D01*
X152341560Y-112935000D01*
X152267114Y-112560736D01*
X152055110Y-112243450D01*
X151737824Y-112031446D01*
X151363560Y-111957000D01*
X151325240Y-111957000D01*
X150950976Y-112031446D01*
X150633690Y-112243450D01*
X150421686Y-112560736D01*
X150347240Y-112935000D01*
X150421686Y-113309264D01*
X150633690Y-113626550D01*
X150730146Y-113691000D01*
X149958654Y-113691000D01*
X150055110Y-113626550D01*
X150267114Y-113309264D01*
X150341560Y-112935000D01*
X150267114Y-112560736D01*
X150055110Y-112243450D01*
X149737824Y-112031446D01*
X149363560Y-111957000D01*
X149325240Y-111957000D01*
X148950976Y-112031446D01*
X148633690Y-112243450D01*
X148421686Y-112560736D01*
X148347240Y-112935000D01*
X148421686Y-113309264D01*
X148633690Y-113626550D01*
X148730146Y-113691000D01*
X147958654Y-113691000D01*
X148055110Y-113626550D01*
X148267114Y-113309264D01*
X148341560Y-112935000D01*
X148267114Y-112560736D01*
X148055110Y-112243450D01*
X147737824Y-112031446D01*
X147363560Y-111957000D01*
X147325240Y-111957000D01*
X146950976Y-112031446D01*
X146633690Y-112243450D01*
X146421686Y-112560736D01*
X146347240Y-112935000D01*
X146421686Y-113309264D01*
X146633690Y-113626550D01*
X146730146Y-113691000D01*
X145958654Y-113691000D01*
X146055110Y-113626550D01*
X146267114Y-113309264D01*
X146341560Y-112935000D01*
X146267114Y-112560736D01*
X146055110Y-112243450D01*
X145737824Y-112031446D01*
X145363560Y-111957000D01*
X145325240Y-111957000D01*
X144950976Y-112031446D01*
X144633690Y-112243450D01*
X144421686Y-112560736D01*
X144347240Y-112935000D01*
X144421686Y-113309264D01*
X144633690Y-113626550D01*
X144730146Y-113691000D01*
X143958654Y-113691000D01*
X144055110Y-113626550D01*
X144267114Y-113309264D01*
X144341560Y-112935000D01*
X144267114Y-112560736D01*
X144055110Y-112243450D01*
X143737824Y-112031446D01*
X143363560Y-111957000D01*
X143325240Y-111957000D01*
X142950976Y-112031446D01*
X142633690Y-112243450D01*
X142421686Y-112560736D01*
X142347240Y-112935000D01*
X142421686Y-113309264D01*
X142633690Y-113626550D01*
X142730146Y-113691000D01*
X141958654Y-113691000D01*
X142055110Y-113626550D01*
X142267114Y-113309264D01*
X142341560Y-112935000D01*
X142267114Y-112560736D01*
X142055110Y-112243450D01*
X141737824Y-112031446D01*
X141363560Y-111957000D01*
X141325240Y-111957000D01*
X140950976Y-112031446D01*
X140633690Y-112243450D01*
X140563000Y-112349245D01*
X140563000Y-111509877D01*
X140640290Y-111625550D01*
X140957576Y-111837554D01*
X141331840Y-111912000D01*
X141370160Y-111912000D01*
X141744424Y-111837554D01*
X142061710Y-111625550D01*
X142273714Y-111308264D01*
X142348160Y-110934000D01*
X142273714Y-110559736D01*
X142061710Y-110242450D01*
X141744424Y-110030446D01*
X141370160Y-109956000D01*
X141331840Y-109956000D01*
X140957576Y-110030446D01*
X140640290Y-110242450D01*
X140563000Y-110358123D01*
X140563000Y-109509877D01*
X140640290Y-109625550D01*
X140957576Y-109837554D01*
X141331840Y-109912000D01*
X141370160Y-109912000D01*
X141744424Y-109837554D01*
X142061710Y-109625550D01*
X142273714Y-109308264D01*
X142348160Y-108934000D01*
X142273714Y-108559736D01*
X142061710Y-108242450D01*
X141744424Y-108030446D01*
X141370160Y-107956000D01*
X141331840Y-107956000D01*
X140957576Y-108030446D01*
X140640290Y-108242450D01*
X140563000Y-108358123D01*
X140563000Y-107895053D01*
X140676000Y-107917936D01*
X142026000Y-107917936D01*
X142138285Y-107896808D01*
X142241412Y-107830448D01*
X142310596Y-107729193D01*
X142334936Y-107609000D01*
X142334936Y-106259000D01*
X142313808Y-106146715D01*
X142247448Y-106043588D01*
X142146193Y-105974404D01*
X142026000Y-105950064D01*
X140676000Y-105950064D01*
X140563715Y-105971192D01*
X140563000Y-105971652D01*
X140563000Y-96586683D01*
X140753831Y-96586683D01*
X140902409Y-96946269D01*
X141177284Y-97221624D01*
X141536610Y-97370830D01*
X141925683Y-97371169D01*
X142285269Y-97222591D01*
X142560624Y-96947716D01*
X142565878Y-96935062D01*
X145599400Y-96935062D01*
X145599400Y-97003950D01*
X145751650Y-97156200D01*
X146805400Y-97156200D01*
X146805400Y-97083200D01*
X147111400Y-97083200D01*
X147111400Y-97156200D01*
X148165150Y-97156200D01*
X148317400Y-97003950D01*
X148317400Y-96935062D01*
X151492200Y-96935062D01*
X151492200Y-97003950D01*
X151644450Y-97156200D01*
X152698200Y-97156200D01*
X152698200Y-97083200D01*
X153004200Y-97083200D01*
X153004200Y-97156200D01*
X154057950Y-97156200D01*
X154210200Y-97003950D01*
X154210200Y-96935062D01*
X154117485Y-96711229D01*
X153946171Y-96539914D01*
X153897284Y-96519665D01*
X153910136Y-96456200D01*
X153910136Y-96056200D01*
X153889008Y-95943915D01*
X153822648Y-95840788D01*
X153721393Y-95771604D01*
X153601200Y-95747264D01*
X152101200Y-95747264D01*
X151988915Y-95768392D01*
X151885788Y-95834752D01*
X151816604Y-95936007D01*
X151792264Y-96056200D01*
X151792264Y-96456200D01*
X151804272Y-96520014D01*
X151756229Y-96539914D01*
X151584915Y-96711229D01*
X151492200Y-96935062D01*
X148317400Y-96935062D01*
X148224685Y-96711229D01*
X148053371Y-96539914D01*
X148004484Y-96519665D01*
X148017336Y-96456200D01*
X148017336Y-96056200D01*
X148992264Y-96056200D01*
X148992264Y-96456200D01*
X149013392Y-96568485D01*
X149079752Y-96671612D01*
X149181007Y-96740796D01*
X149301200Y-96765136D01*
X150801200Y-96765136D01*
X150913485Y-96744008D01*
X151016612Y-96677648D01*
X151085796Y-96576393D01*
X151110136Y-96456200D01*
X151110136Y-96056200D01*
X151089008Y-95943915D01*
X151022648Y-95840788D01*
X150921393Y-95771604D01*
X150801200Y-95747264D01*
X149301200Y-95747264D01*
X149188915Y-95768392D01*
X149085788Y-95834752D01*
X149016604Y-95936007D01*
X148992264Y-96056200D01*
X148017336Y-96056200D01*
X147996208Y-95943915D01*
X147929848Y-95840788D01*
X147828593Y-95771604D01*
X147708400Y-95747264D01*
X146208400Y-95747264D01*
X146096115Y-95768392D01*
X145992988Y-95834752D01*
X145923804Y-95936007D01*
X145899464Y-96056200D01*
X145899464Y-96456200D01*
X145911472Y-96520014D01*
X145863429Y-96539914D01*
X145692115Y-96711229D01*
X145599400Y-96935062D01*
X142565878Y-96935062D01*
X142709830Y-96588390D01*
X142710169Y-96199317D01*
X142651035Y-96056200D01*
X143099464Y-96056200D01*
X143099464Y-96456200D01*
X143120592Y-96568485D01*
X143186952Y-96671612D01*
X143288207Y-96740796D01*
X143408400Y-96765136D01*
X144908400Y-96765136D01*
X145020685Y-96744008D01*
X145123812Y-96677648D01*
X145192996Y-96576393D01*
X145217336Y-96456200D01*
X145217336Y-96056200D01*
X145196208Y-95943915D01*
X145129848Y-95840788D01*
X145028593Y-95771604D01*
X144908400Y-95747264D01*
X143408400Y-95747264D01*
X143296115Y-95768392D01*
X143192988Y-95834752D01*
X143123804Y-95936007D01*
X143099464Y-96056200D01*
X142651035Y-96056200D01*
X142561591Y-95839731D01*
X142286716Y-95564376D01*
X141927390Y-95415170D01*
X141538317Y-95414831D01*
X141178731Y-95563409D01*
X140903376Y-95838284D01*
X140754170Y-96197610D01*
X140753831Y-96586683D01*
X140563000Y-96586683D01*
X140563000Y-96053836D01*
X141519836Y-95097000D01*
X155406164Y-95097000D01*
X156363000Y-96053836D01*
G36*
X154637204Y-105636007D02*
X154612864Y-105756200D01*
X154612864Y-106256200D01*
X154633992Y-106368485D01*
X154657567Y-106405121D01*
X154402336Y-106660352D01*
X154347884Y-106660304D01*
X154144560Y-106744316D01*
X153988863Y-106899742D01*
X153904496Y-107102919D01*
X153904304Y-107322916D01*
X153988316Y-107526240D01*
X154143742Y-107681937D01*
X154346919Y-107766304D01*
X154424438Y-107766372D01*
X154285827Y-107904983D01*
X154195484Y-107904904D01*
X153992160Y-107988916D01*
X153845603Y-108135218D01*
X153885796Y-108076393D01*
X153910136Y-107956200D01*
X153910136Y-107556200D01*
X153889008Y-107443915D01*
X153822648Y-107340788D01*
X153721393Y-107271604D01*
X153601200Y-107247264D01*
X152101200Y-107247264D01*
X151988915Y-107268392D01*
X151885788Y-107334752D01*
X151816604Y-107436007D01*
X151792264Y-107556200D01*
X151792264Y-107956200D01*
X151813392Y-108068485D01*
X151879752Y-108171612D01*
X151981007Y-108240796D01*
X152101200Y-108265136D01*
X153601200Y-108265136D01*
X153713485Y-108244008D01*
X153816612Y-108177648D01*
X153831961Y-108155184D01*
X153752096Y-108347519D01*
X153751904Y-108567516D01*
X153835916Y-108770840D01*
X153991342Y-108926537D01*
X154194519Y-109010904D01*
X154331483Y-109011024D01*
X154357793Y-109143295D01*
X153822088Y-109679000D01*
X151609128Y-109679000D01*
X151570658Y-109640463D01*
X151367481Y-109556096D01*
X151147484Y-109555904D01*
X150944160Y-109639916D01*
X150788463Y-109795342D01*
X150736285Y-109921000D01*
X150147835Y-109921000D01*
X150125048Y-109885588D01*
X150023793Y-109816404D01*
X149903600Y-109792064D01*
X149003600Y-109792064D01*
X148891315Y-109813192D01*
X148788188Y-109879552D01*
X148759868Y-109921000D01*
X148319035Y-109921000D01*
X148296248Y-109885588D01*
X148194993Y-109816404D01*
X148074800Y-109792064D01*
X147174800Y-109792064D01*
X147062515Y-109813192D01*
X146959388Y-109879552D01*
X146931068Y-109921000D01*
X146851112Y-109921000D01*
X146058362Y-109128250D01*
X146565800Y-109128250D01*
X146565800Y-109222138D01*
X146658515Y-109445971D01*
X146829829Y-109617286D01*
X147053663Y-109710000D01*
X147319550Y-109710000D01*
X147471800Y-109557750D01*
X147471800Y-108976000D01*
X147777800Y-108976000D01*
X147777800Y-109557750D01*
X147930050Y-109710000D01*
X148195937Y-109710000D01*
X148419771Y-109617286D01*
X148539200Y-109497856D01*
X148658629Y-109617286D01*
X148882463Y-109710000D01*
X149148350Y-109710000D01*
X149300600Y-109557750D01*
X149300600Y-108976000D01*
X149606600Y-108976000D01*
X149606600Y-109557750D01*
X149758850Y-109710000D01*
X150024737Y-109710000D01*
X150248571Y-109617286D01*
X150419885Y-109445971D01*
X150512600Y-109222138D01*
X150512600Y-109128250D01*
X150360350Y-108976000D01*
X149606600Y-108976000D01*
X149300600Y-108976000D01*
X148546850Y-108976000D01*
X148539200Y-108983650D01*
X148531550Y-108976000D01*
X147777800Y-108976000D01*
X147471800Y-108976000D01*
X146718050Y-108976000D01*
X146565800Y-109128250D01*
X146058362Y-109128250D01*
X145972000Y-109041888D01*
X145972000Y-108225928D01*
X146010377Y-108187618D01*
X146088207Y-108240796D01*
X146208400Y-108265136D01*
X146654743Y-108265136D01*
X146565800Y-108479862D01*
X146565800Y-108573750D01*
X146718050Y-108726000D01*
X147471800Y-108726000D01*
X147471800Y-108678000D01*
X147777800Y-108678000D01*
X147777800Y-108726000D01*
X148531550Y-108726000D01*
X148539200Y-108718350D01*
X148546850Y-108726000D01*
X149300600Y-108726000D01*
X149300600Y-108678000D01*
X149606600Y-108678000D01*
X149606600Y-108726000D01*
X150360350Y-108726000D01*
X150512600Y-108573750D01*
X150512600Y-108479862D01*
X150423657Y-108265136D01*
X150801200Y-108265136D01*
X150913485Y-108244008D01*
X151016612Y-108177648D01*
X151085796Y-108076393D01*
X151110136Y-107956200D01*
X151110136Y-107556200D01*
X151098128Y-107492386D01*
X151146171Y-107472486D01*
X151317485Y-107301171D01*
X151410200Y-107077338D01*
X151410200Y-107008450D01*
X151257950Y-106856200D01*
X150204200Y-106856200D01*
X150204200Y-106929200D01*
X149898200Y-106929200D01*
X149898200Y-106856200D01*
X148844450Y-106856200D01*
X148692200Y-107008450D01*
X148692200Y-107077338D01*
X148784915Y-107301171D01*
X148956229Y-107472486D01*
X149005116Y-107492735D01*
X148992264Y-107556200D01*
X148992264Y-107956200D01*
X148999000Y-107992000D01*
X148882463Y-107992000D01*
X148658629Y-108084714D01*
X148539200Y-108204144D01*
X148419771Y-108084714D01*
X148195937Y-107992000D01*
X148010086Y-107992000D01*
X148017336Y-107956200D01*
X148017336Y-107556200D01*
X147996208Y-107443915D01*
X147929848Y-107340788D01*
X147828593Y-107271604D01*
X147708400Y-107247264D01*
X146208400Y-107247264D01*
X146096115Y-107268392D01*
X145992988Y-107334752D01*
X145923804Y-107436007D01*
X145917487Y-107467200D01*
X145855658Y-107405263D01*
X145652481Y-107320896D01*
X145432484Y-107320704D01*
X145385907Y-107339949D01*
X145424685Y-107301171D01*
X145517400Y-107077338D01*
X145517400Y-107008450D01*
X145418152Y-106909202D01*
X145517400Y-106909202D01*
X145517400Y-106801201D01*
X145626116Y-106801296D01*
X145829440Y-106717284D01*
X145886022Y-106660800D01*
X145979995Y-106660800D01*
X145986952Y-106671612D01*
X146088207Y-106740796D01*
X146208400Y-106765136D01*
X147708400Y-106765136D01*
X147820685Y-106744008D01*
X147923812Y-106677648D01*
X147935324Y-106660800D01*
X151872795Y-106660800D01*
X151879752Y-106671612D01*
X151981007Y-106740796D01*
X152101200Y-106765136D01*
X153601200Y-106765136D01*
X153713485Y-106744008D01*
X153816612Y-106677648D01*
X153885796Y-106576393D01*
X153910136Y-106456200D01*
X153910136Y-106056200D01*
X153889008Y-105943915D01*
X153822648Y-105840788D01*
X153721393Y-105771604D01*
X153646947Y-105756528D01*
X153713485Y-105744008D01*
X153816612Y-105677648D01*
X153828124Y-105660800D01*
X153849919Y-105660800D01*
X153915142Y-105726137D01*
X154118319Y-105810504D01*
X154338316Y-105810696D01*
X154541640Y-105726684D01*
X154647349Y-105621159D01*
X154637204Y-105636007D01*
X154637204Y-105636007D01*
G37*
X154637204Y-105636007D02*
X154612864Y-105756200D01*
X154612864Y-106256200D01*
X154633992Y-106368485D01*
X154657567Y-106405121D01*
X154402336Y-106660352D01*
X154347884Y-106660304D01*
X154144560Y-106744316D01*
X153988863Y-106899742D01*
X153904496Y-107102919D01*
X153904304Y-107322916D01*
X153988316Y-107526240D01*
X154143742Y-107681937D01*
X154346919Y-107766304D01*
X154424438Y-107766372D01*
X154285827Y-107904983D01*
X154195484Y-107904904D01*
X153992160Y-107988916D01*
X153845603Y-108135218D01*
X153885796Y-108076393D01*
X153910136Y-107956200D01*
X153910136Y-107556200D01*
X153889008Y-107443915D01*
X153822648Y-107340788D01*
X153721393Y-107271604D01*
X153601200Y-107247264D01*
X152101200Y-107247264D01*
X151988915Y-107268392D01*
X151885788Y-107334752D01*
X151816604Y-107436007D01*
X151792264Y-107556200D01*
X151792264Y-107956200D01*
X151813392Y-108068485D01*
X151879752Y-108171612D01*
X151981007Y-108240796D01*
X152101200Y-108265136D01*
X153601200Y-108265136D01*
X153713485Y-108244008D01*
X153816612Y-108177648D01*
X153831961Y-108155184D01*
X153752096Y-108347519D01*
X153751904Y-108567516D01*
X153835916Y-108770840D01*
X153991342Y-108926537D01*
X154194519Y-109010904D01*
X154331483Y-109011024D01*
X154357793Y-109143295D01*
X153822088Y-109679000D01*
X151609128Y-109679000D01*
X151570658Y-109640463D01*
X151367481Y-109556096D01*
X151147484Y-109555904D01*
X150944160Y-109639916D01*
X150788463Y-109795342D01*
X150736285Y-109921000D01*
X150147835Y-109921000D01*
X150125048Y-109885588D01*
X150023793Y-109816404D01*
X149903600Y-109792064D01*
X149003600Y-109792064D01*
X148891315Y-109813192D01*
X148788188Y-109879552D01*
X148759868Y-109921000D01*
X148319035Y-109921000D01*
X148296248Y-109885588D01*
X148194993Y-109816404D01*
X148074800Y-109792064D01*
X147174800Y-109792064D01*
X147062515Y-109813192D01*
X146959388Y-109879552D01*
X146931068Y-109921000D01*
X146851112Y-109921000D01*
X146058362Y-109128250D01*
X146565800Y-109128250D01*
X146565800Y-109222138D01*
X146658515Y-109445971D01*
X146829829Y-109617286D01*
X147053663Y-109710000D01*
X147319550Y-109710000D01*
X147471800Y-109557750D01*
X147471800Y-108976000D01*
X147777800Y-108976000D01*
X147777800Y-109557750D01*
X147930050Y-109710000D01*
X148195937Y-109710000D01*
X148419771Y-109617286D01*
X148539200Y-109497856D01*
X148658629Y-109617286D01*
X148882463Y-109710000D01*
X149148350Y-109710000D01*
X149300600Y-109557750D01*
X149300600Y-108976000D01*
X149606600Y-108976000D01*
X149606600Y-109557750D01*
X149758850Y-109710000D01*
X150024737Y-109710000D01*
X150248571Y-109617286D01*
X150419885Y-109445971D01*
X150512600Y-109222138D01*
X150512600Y-109128250D01*
X150360350Y-108976000D01*
X149606600Y-108976000D01*
X149300600Y-108976000D01*
X148546850Y-108976000D01*
X148539200Y-108983650D01*
X148531550Y-108976000D01*
X147777800Y-108976000D01*
X147471800Y-108976000D01*
X146718050Y-108976000D01*
X146565800Y-109128250D01*
X146058362Y-109128250D01*
X145972000Y-109041888D01*
X145972000Y-108225928D01*
X146010377Y-108187618D01*
X146088207Y-108240796D01*
X146208400Y-108265136D01*
X146654743Y-108265136D01*
X146565800Y-108479862D01*
X146565800Y-108573750D01*
X146718050Y-108726000D01*
X147471800Y-108726000D01*
X147471800Y-108678000D01*
X147777800Y-108678000D01*
X147777800Y-108726000D01*
X148531550Y-108726000D01*
X148539200Y-108718350D01*
X148546850Y-108726000D01*
X149300600Y-108726000D01*
X149300600Y-108678000D01*
X149606600Y-108678000D01*
X149606600Y-108726000D01*
X150360350Y-108726000D01*
X150512600Y-108573750D01*
X150512600Y-108479862D01*
X150423657Y-108265136D01*
X150801200Y-108265136D01*
X150913485Y-108244008D01*
X151016612Y-108177648D01*
X151085796Y-108076393D01*
X151110136Y-107956200D01*
X151110136Y-107556200D01*
X151098128Y-107492386D01*
X151146171Y-107472486D01*
X151317485Y-107301171D01*
X151410200Y-107077338D01*
X151410200Y-107008450D01*
X151257950Y-106856200D01*
X150204200Y-106856200D01*
X150204200Y-106929200D01*
X149898200Y-106929200D01*
X149898200Y-106856200D01*
X148844450Y-106856200D01*
X148692200Y-107008450D01*
X148692200Y-107077338D01*
X148784915Y-107301171D01*
X148956229Y-107472486D01*
X149005116Y-107492735D01*
X148992264Y-107556200D01*
X148992264Y-107956200D01*
X148999000Y-107992000D01*
X148882463Y-107992000D01*
X148658629Y-108084714D01*
X148539200Y-108204144D01*
X148419771Y-108084714D01*
X148195937Y-107992000D01*
X148010086Y-107992000D01*
X148017336Y-107956200D01*
X148017336Y-107556200D01*
X147996208Y-107443915D01*
X147929848Y-107340788D01*
X147828593Y-107271604D01*
X147708400Y-107247264D01*
X146208400Y-107247264D01*
X146096115Y-107268392D01*
X145992988Y-107334752D01*
X145923804Y-107436007D01*
X145917487Y-107467200D01*
X145855658Y-107405263D01*
X145652481Y-107320896D01*
X145432484Y-107320704D01*
X145385907Y-107339949D01*
X145424685Y-107301171D01*
X145517400Y-107077338D01*
X145517400Y-107008450D01*
X145418152Y-106909202D01*
X145517400Y-106909202D01*
X145517400Y-106801201D01*
X145626116Y-106801296D01*
X145829440Y-106717284D01*
X145886022Y-106660800D01*
X145979995Y-106660800D01*
X145986952Y-106671612D01*
X146088207Y-106740796D01*
X146208400Y-106765136D01*
X147708400Y-106765136D01*
X147820685Y-106744008D01*
X147923812Y-106677648D01*
X147935324Y-106660800D01*
X151872795Y-106660800D01*
X151879752Y-106671612D01*
X151981007Y-106740796D01*
X152101200Y-106765136D01*
X153601200Y-106765136D01*
X153713485Y-106744008D01*
X153816612Y-106677648D01*
X153885796Y-106576393D01*
X153910136Y-106456200D01*
X153910136Y-106056200D01*
X153889008Y-105943915D01*
X153822648Y-105840788D01*
X153721393Y-105771604D01*
X153646947Y-105756528D01*
X153713485Y-105744008D01*
X153816612Y-105677648D01*
X153828124Y-105660800D01*
X153849919Y-105660800D01*
X153915142Y-105726137D01*
X154118319Y-105810504D01*
X154338316Y-105810696D01*
X154541640Y-105726684D01*
X154647349Y-105621159D01*
X154637204Y-105636007D01*
G36*
X154132904Y-97836016D02*
X154216916Y-98039340D01*
X154372342Y-98195037D01*
X154575519Y-98279404D01*
X154795516Y-98279596D01*
X154998840Y-98195584D01*
X155014886Y-98179566D01*
X155030552Y-98203912D01*
X155131807Y-98273096D01*
X155252000Y-98297436D01*
X156152000Y-98297436D01*
X156264285Y-98276308D01*
X156363000Y-98212787D01*
X156363000Y-98416722D01*
X156273137Y-98379500D01*
X156007250Y-98379500D01*
X155855000Y-98531750D01*
X155855000Y-99113500D01*
X155875000Y-99113500D01*
X155875000Y-99363500D01*
X155855000Y-99363500D01*
X155855000Y-99945250D01*
X156007250Y-100097500D01*
X156273137Y-100097500D01*
X156363000Y-100060278D01*
X156363000Y-106389288D01*
X156130736Y-106157024D01*
X156130736Y-105756200D01*
X156109608Y-105643915D01*
X156043248Y-105540788D01*
X155941993Y-105471604D01*
X155821800Y-105447264D01*
X154921800Y-105447264D01*
X154809515Y-105468392D01*
X154714723Y-105529389D01*
X154781704Y-105368081D01*
X154781896Y-105148084D01*
X154697884Y-104944760D01*
X154542458Y-104789063D01*
X154447439Y-104749607D01*
X154541640Y-104710684D01*
X154697337Y-104555258D01*
X154781704Y-104352081D01*
X154781896Y-104132084D01*
X154697884Y-103928760D01*
X154542458Y-103773063D01*
X154478099Y-103746339D01*
X154541640Y-103720084D01*
X154697337Y-103564658D01*
X154781704Y-103361481D01*
X154781896Y-103141484D01*
X154697884Y-102938160D01*
X154542458Y-102782463D01*
X154478099Y-102755739D01*
X154541640Y-102729484D01*
X154697337Y-102574058D01*
X154781704Y-102370881D01*
X154781896Y-102150884D01*
X154697884Y-101947560D01*
X154542458Y-101791863D01*
X154478099Y-101765139D01*
X154541640Y-101738884D01*
X154697337Y-101583458D01*
X154781704Y-101380281D01*
X154781896Y-101160284D01*
X154697884Y-100956960D01*
X154542458Y-100801263D01*
X154398787Y-100741605D01*
X154567040Y-100672084D01*
X154722737Y-100516658D01*
X154807104Y-100313481D01*
X154807296Y-100093484D01*
X154723284Y-99890160D01*
X154567858Y-99734463D01*
X154470453Y-99694017D01*
X154476904Y-99678481D01*
X154477046Y-99515750D01*
X154643000Y-99515750D01*
X154643000Y-99609638D01*
X154735715Y-99833471D01*
X154907029Y-100004786D01*
X155130863Y-100097500D01*
X155396750Y-100097500D01*
X155549000Y-99945250D01*
X155549000Y-99363500D01*
X154795250Y-99363500D01*
X154643000Y-99515750D01*
X154477046Y-99515750D01*
X154477096Y-99458484D01*
X154393084Y-99255160D01*
X154325016Y-99186973D01*
X154443337Y-99068858D01*
X154527005Y-98867362D01*
X154643000Y-98867362D01*
X154643000Y-98961250D01*
X154795250Y-99113500D01*
X155549000Y-99113500D01*
X155549000Y-98531750D01*
X155396750Y-98379500D01*
X155130863Y-98379500D01*
X154907029Y-98472214D01*
X154735715Y-98643529D01*
X154643000Y-98867362D01*
X154527005Y-98867362D01*
X154527704Y-98865681D01*
X154527896Y-98645684D01*
X154443884Y-98442360D01*
X154288458Y-98286663D01*
X154085281Y-98202296D01*
X153994007Y-98202216D01*
X153910136Y-98118346D01*
X153910136Y-98056200D01*
X153898128Y-97992386D01*
X153946171Y-97972486D01*
X154117485Y-97801171D01*
X154132967Y-97763794D01*
X154132904Y-97836016D01*
X154132904Y-97836016D01*
G37*
X154132904Y-97836016D02*
X154216916Y-98039340D01*
X154372342Y-98195037D01*
X154575519Y-98279404D01*
X154795516Y-98279596D01*
X154998840Y-98195584D01*
X155014886Y-98179566D01*
X155030552Y-98203912D01*
X155131807Y-98273096D01*
X155252000Y-98297436D01*
X156152000Y-98297436D01*
X156264285Y-98276308D01*
X156363000Y-98212787D01*
X156363000Y-98416722D01*
X156273137Y-98379500D01*
X156007250Y-98379500D01*
X155855000Y-98531750D01*
X155855000Y-99113500D01*
X155875000Y-99113500D01*
X155875000Y-99363500D01*
X155855000Y-99363500D01*
X155855000Y-99945250D01*
X156007250Y-100097500D01*
X156273137Y-100097500D01*
X156363000Y-100060278D01*
X156363000Y-106389288D01*
X156130736Y-106157024D01*
X156130736Y-105756200D01*
X156109608Y-105643915D01*
X156043248Y-105540788D01*
X155941993Y-105471604D01*
X155821800Y-105447264D01*
X154921800Y-105447264D01*
X154809515Y-105468392D01*
X154714723Y-105529389D01*
X154781704Y-105368081D01*
X154781896Y-105148084D01*
X154697884Y-104944760D01*
X154542458Y-104789063D01*
X154447439Y-104749607D01*
X154541640Y-104710684D01*
X154697337Y-104555258D01*
X154781704Y-104352081D01*
X154781896Y-104132084D01*
X154697884Y-103928760D01*
X154542458Y-103773063D01*
X154478099Y-103746339D01*
X154541640Y-103720084D01*
X154697337Y-103564658D01*
X154781704Y-103361481D01*
X154781896Y-103141484D01*
X154697884Y-102938160D01*
X154542458Y-102782463D01*
X154478099Y-102755739D01*
X154541640Y-102729484D01*
X154697337Y-102574058D01*
X154781704Y-102370881D01*
X154781896Y-102150884D01*
X154697884Y-101947560D01*
X154542458Y-101791863D01*
X154478099Y-101765139D01*
X154541640Y-101738884D01*
X154697337Y-101583458D01*
X154781704Y-101380281D01*
X154781896Y-101160284D01*
X154697884Y-100956960D01*
X154542458Y-100801263D01*
X154398787Y-100741605D01*
X154567040Y-100672084D01*
X154722737Y-100516658D01*
X154807104Y-100313481D01*
X154807296Y-100093484D01*
X154723284Y-99890160D01*
X154567858Y-99734463D01*
X154470453Y-99694017D01*
X154476904Y-99678481D01*
X154477046Y-99515750D01*
X154643000Y-99515750D01*
X154643000Y-99609638D01*
X154735715Y-99833471D01*
X154907029Y-100004786D01*
X155130863Y-100097500D01*
X155396750Y-100097500D01*
X155549000Y-99945250D01*
X155549000Y-99363500D01*
X154795250Y-99363500D01*
X154643000Y-99515750D01*
X154477046Y-99515750D01*
X154477096Y-99458484D01*
X154393084Y-99255160D01*
X154325016Y-99186973D01*
X154443337Y-99068858D01*
X154527005Y-98867362D01*
X154643000Y-98867362D01*
X154643000Y-98961250D01*
X154795250Y-99113500D01*
X155549000Y-99113500D01*
X155549000Y-98531750D01*
X155396750Y-98379500D01*
X155130863Y-98379500D01*
X154907029Y-98472214D01*
X154735715Y-98643529D01*
X154643000Y-98867362D01*
X154527005Y-98867362D01*
X154527704Y-98865681D01*
X154527896Y-98645684D01*
X154443884Y-98442360D01*
X154288458Y-98286663D01*
X154085281Y-98202296D01*
X153994007Y-98202216D01*
X153910136Y-98118346D01*
X153910136Y-98056200D01*
X153898128Y-97992386D01*
X153946171Y-97972486D01*
X154117485Y-97801171D01*
X154132967Y-97763794D01*
X154132904Y-97836016D01*
M02*
