G04 #@! TF.FileFunction,Soldermask,Top*
%FSLAX46Y46*%
G04 Gerber Fmt 4.6, Leading zero omitted, Abs format (unit mm)*
G04 Created by KiCad (PCBNEW 4.0.7) date 05/28/18 09:58:20*
%MOMM*%
%LPD*%
G01*
G04 APERTURE LIST*
%ADD10C,0.100000*%
%ADD11C,1.750000*%
%ADD12O,1.750000X1.750000*%
%ADD13R,1.750000X1.750000*%
%ADD14R,1.299160X0.648920*%
%ADD15R,0.648920X1.299160*%
%ADD16R,5.198060X5.198060*%
%ADD17R,1.300000X0.900000*%
G04 APERTURE END LIST*
D10*
D11*
X155194000Y-96393000D03*
D12*
X145344400Y-112935000D03*
X141344400Y-112935000D03*
X143344400Y-112935000D03*
X147344400Y-112935000D03*
X149344400Y-112935000D03*
X151344400Y-112935000D03*
X153344400Y-112935000D03*
X155344400Y-112935000D03*
D13*
X155321000Y-110972600D03*
D12*
X155321000Y-108972600D03*
D13*
X141351000Y-106934000D03*
D12*
X141351000Y-108934000D03*
X141351000Y-110934000D03*
D14*
X144452340Y-101754940D03*
X144452340Y-102255320D03*
X144452340Y-102755700D03*
X144452340Y-103256080D03*
X144452340Y-103753920D03*
X144452340Y-104254300D03*
X144452340Y-104754680D03*
X144452340Y-105252520D03*
X144452340Y-105752900D03*
X144452340Y-106253280D03*
X144452340Y-106751120D03*
X144452340Y-107251500D03*
X144452340Y-107751880D03*
X144452340Y-108252260D03*
D15*
X145252440Y-109052360D03*
X145752820Y-109052360D03*
X146253200Y-109052360D03*
X146753580Y-109052360D03*
X147251420Y-109052360D03*
X147751800Y-109052360D03*
X148252180Y-109052360D03*
X148750020Y-109052360D03*
X149250400Y-109052360D03*
X149750780Y-109052360D03*
X150248620Y-109052360D03*
X150749000Y-109052360D03*
X151249380Y-109052360D03*
X151749760Y-109052360D03*
D14*
X152549860Y-108252260D03*
X152549860Y-107751880D03*
X152549860Y-107251500D03*
X152549860Y-106751120D03*
X152549860Y-106253280D03*
X152549860Y-105752900D03*
X152549860Y-105252520D03*
X152549860Y-104754680D03*
X152549860Y-104254300D03*
X152549860Y-103753920D03*
X152549860Y-103256080D03*
X152549860Y-102755700D03*
X152549860Y-102255320D03*
X152549860Y-101754940D03*
D15*
X151749760Y-100954840D03*
X151249380Y-100954840D03*
X150749000Y-100954840D03*
X150248620Y-100954840D03*
X149750780Y-100954840D03*
X149250400Y-100954840D03*
X148750020Y-100954840D03*
X148252180Y-100954840D03*
X147751800Y-100954840D03*
X147251420Y-100954840D03*
X146753580Y-100954840D03*
X146253200Y-100954840D03*
X145752820Y-100954840D03*
X145252440Y-100954840D03*
D16*
X148501100Y-105003600D03*
D17*
X153289000Y-110630400D03*
X153289000Y-109130400D03*
X155371800Y-106006200D03*
X155371800Y-107506200D03*
D11*
X141732000Y-96393000D03*
M02*
