M48
;DRILL file {KiCad 4.0.7} date 05/28/18 09:58:28
;FORMAT={-:-/ absolute / inch / decimal}
FMAT,2
INCH,TZ
T1C0.010
T2C0.031
%
G90
G05
M72
T1
X5.62Y-3.887
X5.62Y-3.928
X5.62Y-3.967
X5.62Y-4.006
X5.62Y-4.046
X5.62Y-4.085
X5.62Y-4.124
X5.62Y-4.203
X5.621Y-4.152
X5.624Y-3.848
X5.728Y-4.066
X5.728Y-4.104
X5.729Y-4.026
X5.729Y-4.144
X5.729Y-4.183
X5.73Y-4.247
X5.734Y-3.865
X5.734Y-3.896
X5.832Y-3.933
X5.837Y-4.012
X5.848Y-4.25
X5.85Y-3.85
X5.856Y-3.887
X5.856Y-3.917
X5.955Y-4.335
X5.962Y-3.87
X5.964Y-4.206
X5.965Y-4.01
X5.965Y-4.046
X5.965Y-4.085
X5.965Y-4.124
X5.965Y-4.16
X6.06Y-3.92
X6.062Y-3.888
X6.072Y-3.987
X6.072Y-4.026
X6.072Y-4.065
X6.072Y-4.104
X6.072Y-4.144
X6.073Y-3.945
X6.075Y-4.27
X6.081Y-4.221
X6.09Y-3.8475
X6.1Y-4.125
T2
X5.5647Y-4.4463
X5.565Y-4.21
X5.565Y-4.2887
X5.565Y-4.3675
X5.58Y-3.795
X5.6435Y-4.4463
X5.7222Y-4.4463
X5.801Y-4.4463
X5.8797Y-4.4463
X5.9584Y-4.4463
X6.0372Y-4.4463
X6.11Y-3.795
X6.115Y-4.2903
X6.115Y-4.369
X6.1159Y-4.4463
T0
M30
