G04 #@! TF.FileFunction,Copper,L1,Top,Signal*
%FSLAX46Y46*%
G04 Gerber Fmt 4.6, Leading zero omitted, Abs format (unit mm)*
G04 Created by KiCad (PCBNEW 4.0.7) date 05/28/18 09:58:20*
%MOMM*%
%LPD*%
G01*
G04 APERTURE LIST*
%ADD10C,0.100000*%
%ADD11C,1.350000*%
%ADD12O,1.350000X1.350000*%
%ADD13R,1.350000X1.350000*%
%ADD14R,0.899160X0.248920*%
%ADD15R,0.248920X0.899160*%
%ADD16R,4.798060X4.798060*%
%ADD17R,0.900000X0.500000*%
%ADD18C,0.500000*%
%ADD19C,0.254000*%
%ADD20C,0.203200*%
%ADD21C,0.202000*%
G04 APERTURE END LIST*
D10*
D11*
X155194000Y-96393000D03*
D12*
X145344400Y-112935000D03*
X141344400Y-112935000D03*
X143344400Y-112935000D03*
X147344400Y-112935000D03*
X149344400Y-112935000D03*
X151344400Y-112935000D03*
X153344400Y-112935000D03*
X155344400Y-112935000D03*
D13*
X155321000Y-110972600D03*
D12*
X155321000Y-108972600D03*
D13*
X141351000Y-106934000D03*
D12*
X141351000Y-108934000D03*
X141351000Y-110934000D03*
D14*
X144452340Y-101754940D03*
X144452340Y-102255320D03*
X144452340Y-102755700D03*
X144452340Y-103256080D03*
X144452340Y-103753920D03*
X144452340Y-104254300D03*
X144452340Y-104754680D03*
X144452340Y-105252520D03*
X144452340Y-105752900D03*
X144452340Y-106253280D03*
X144452340Y-106751120D03*
X144452340Y-107251500D03*
X144452340Y-107751880D03*
X144452340Y-108252260D03*
D15*
X145252440Y-109052360D03*
X145752820Y-109052360D03*
X146253200Y-109052360D03*
X146753580Y-109052360D03*
X147251420Y-109052360D03*
X147751800Y-109052360D03*
X148252180Y-109052360D03*
X148750020Y-109052360D03*
X149250400Y-109052360D03*
X149750780Y-109052360D03*
X150248620Y-109052360D03*
X150749000Y-109052360D03*
X151249380Y-109052360D03*
X151749760Y-109052360D03*
D14*
X152549860Y-108252260D03*
X152549860Y-107751880D03*
X152549860Y-107251500D03*
X152549860Y-106751120D03*
X152549860Y-106253280D03*
X152549860Y-105752900D03*
X152549860Y-105252520D03*
X152549860Y-104754680D03*
X152549860Y-104254300D03*
X152549860Y-103753920D03*
X152549860Y-103256080D03*
X152549860Y-102755700D03*
X152549860Y-102255320D03*
X152549860Y-101754940D03*
D15*
X151749760Y-100954840D03*
X151249380Y-100954840D03*
X150749000Y-100954840D03*
X150248620Y-100954840D03*
X149750780Y-100954840D03*
X149250400Y-100954840D03*
X148750020Y-100954840D03*
X148252180Y-100954840D03*
X147751800Y-100954840D03*
X147251420Y-100954840D03*
X146753580Y-100954840D03*
X146253200Y-100954840D03*
X145752820Y-100954840D03*
X145252440Y-100954840D03*
D16*
X148501100Y-105003600D03*
D17*
X153289000Y-110630400D03*
X153289000Y-109130400D03*
X155371800Y-106006200D03*
X155371800Y-107506200D03*
D11*
X141732000Y-96393000D03*
D18*
X145542000Y-107873800D03*
X154457400Y-107213400D03*
X151257000Y-110109000D03*
X154940000Y-104775000D03*
X148539200Y-107950000D03*
X151485600Y-106832400D03*
X142748000Y-106756200D03*
X154686000Y-97726500D03*
X142849600Y-97739200D03*
X148590000Y-97790000D03*
X145516600Y-106248200D03*
X142773400Y-105460800D03*
X145516600Y-105257600D03*
X142748000Y-104749600D03*
X145491200Y-104241600D03*
X142748000Y-103759000D03*
X145491200Y-103276400D03*
X142748000Y-102768400D03*
X145516600Y-102260400D03*
X142748000Y-101752400D03*
X142748000Y-100761800D03*
X142748000Y-99771200D03*
X142748000Y-98729800D03*
X145643600Y-98958400D03*
X145643600Y-98171000D03*
X148132800Y-99898200D03*
X148259800Y-101904800D03*
X148742400Y-99491800D03*
X148742400Y-98729800D03*
X151434800Y-98298000D03*
X153974800Y-98755200D03*
X153924000Y-99568000D03*
X154254200Y-100203000D03*
X154228800Y-101269800D03*
X151511000Y-101854000D03*
X154228800Y-102260400D03*
X151511000Y-102768400D03*
X154228800Y-103251000D03*
X151511000Y-103759000D03*
X154228800Y-104241600D03*
X151511000Y-104749600D03*
X154228800Y-105257600D03*
X151511000Y-105664000D03*
X154305000Y-108458000D03*
D19*
X144452340Y-107751880D02*
X145420080Y-107751880D01*
D20*
X145420080Y-107751880D02*
X145542000Y-107873800D01*
X152549860Y-107251500D02*
X154419300Y-107251500D01*
X154419300Y-107251500D02*
X154457400Y-107213400D01*
D19*
X150749000Y-109052360D02*
X150749000Y-109601000D01*
X150749000Y-109601000D02*
X151257000Y-110109000D01*
X154940000Y-104775000D02*
X155371800Y-106006200D01*
D20*
X146253200Y-109052360D02*
X146253200Y-107251500D01*
X146253200Y-107251500D02*
X148501100Y-105003600D01*
D19*
X144452340Y-107251500D02*
X146253200Y-107251500D01*
D20*
X146253200Y-107251500D02*
X148501100Y-105003600D01*
X152549860Y-108252260D02*
X151787860Y-108252260D01*
X151485600Y-107950000D02*
X151485600Y-106832400D01*
X151787860Y-108252260D02*
X151485600Y-107950000D01*
D19*
X152549860Y-106751120D02*
X153802080Y-106751120D01*
X154547000Y-106006200D02*
X155371800Y-106006200D01*
X153802080Y-106751120D02*
X154547000Y-106006200D01*
X148501100Y-107911900D02*
X148501100Y-105003600D01*
D20*
X148539200Y-107950000D02*
X148501100Y-107911900D01*
X152549860Y-108252260D02*
X152549860Y-108938060D01*
X152742200Y-109130400D02*
X153289000Y-109130400D01*
X152549860Y-108938060D02*
X152742200Y-109130400D01*
X155321000Y-110972600D02*
X155131200Y-110972600D01*
D19*
X155131200Y-110972600D02*
X153289000Y-109130400D01*
D20*
X151566880Y-106751120D02*
X152549860Y-106751120D01*
X151485600Y-106832400D02*
X151566880Y-106751120D01*
X152529540Y-106730800D02*
X152549860Y-106751120D01*
X142753080Y-106751120D02*
X144452340Y-106751120D01*
X142748000Y-106756200D02*
X142753080Y-106751120D01*
X150248620Y-106751120D02*
X148501100Y-105003600D01*
X146253200Y-107251500D02*
X148501100Y-105003600D01*
X146753580Y-106751120D02*
X148501100Y-105003600D01*
D19*
X144452340Y-107251500D02*
X144452340Y-106751120D01*
D20*
X151749760Y-109052360D02*
X151749760Y-109712760D01*
X152667400Y-110630400D02*
X153289000Y-110630400D01*
X151749760Y-109712760D02*
X152667400Y-110630400D01*
X148907500Y-97790000D02*
X148590000Y-97790000D01*
X148971000Y-97726500D02*
X148907500Y-97790000D01*
X154686000Y-97726500D02*
X148971000Y-97726500D01*
X144452340Y-106253280D02*
X142956280Y-106253280D01*
D19*
X142087600Y-98501200D02*
X142849600Y-97739200D01*
X142087600Y-105562400D02*
X142087600Y-98501200D01*
D20*
X142519400Y-105994200D02*
X142087600Y-105562400D01*
X142697200Y-105994200D02*
X142519400Y-105994200D01*
X142956280Y-106253280D02*
X142697200Y-105994200D01*
D19*
X142849600Y-97739200D02*
X143306800Y-97282000D01*
X143306800Y-97282000D02*
X148082000Y-97282000D01*
X148082000Y-97282000D02*
X148590000Y-97790000D01*
D20*
X145511520Y-106253280D02*
X144452340Y-106253280D01*
X145516600Y-106248200D02*
X145511520Y-106253280D01*
X144452340Y-105752900D02*
X143065500Y-105752900D01*
X143065500Y-105752900D02*
X142773400Y-105460800D01*
X144452340Y-105252520D02*
X145511520Y-105252520D01*
X145511520Y-105252520D02*
X145516600Y-105257600D01*
X142753080Y-104754680D02*
X144452340Y-104754680D01*
X142748000Y-104749600D02*
X142753080Y-104754680D01*
X144452340Y-104254300D02*
X145478500Y-104254300D01*
X145478500Y-104254300D02*
X145491200Y-104241600D01*
X144439640Y-104267000D02*
X144452340Y-104254300D01*
X144452340Y-103753920D02*
X142753080Y-103753920D01*
X142753080Y-103753920D02*
X142748000Y-103759000D01*
X144421860Y-103784400D02*
X144452340Y-103753920D01*
X144452340Y-103256080D02*
X145470880Y-103256080D01*
X145470880Y-103256080D02*
X145491200Y-103276400D01*
X144432020Y-103276400D02*
X144452340Y-103256080D01*
X144452340Y-102755700D02*
X142760700Y-102755700D01*
X142760700Y-102755700D02*
X142748000Y-102768400D01*
X144439640Y-102768400D02*
X144452340Y-102755700D01*
X144452340Y-102255320D02*
X145511520Y-102255320D01*
X145511520Y-102255320D02*
X145516600Y-102260400D01*
X144447260Y-102260400D02*
X144452340Y-102255320D01*
X144447260Y-102260400D02*
X144452340Y-102255320D01*
X144452340Y-101754940D02*
X142750540Y-101754940D01*
X142750540Y-101754940D02*
X142748000Y-101752400D01*
X145100040Y-100954840D02*
X145252440Y-100954840D01*
X144907000Y-100761800D02*
X145100040Y-100954840D01*
X142748000Y-100761800D02*
X144907000Y-100761800D01*
X145752820Y-100954840D02*
X145752820Y-100439220D01*
X145084800Y-99771200D02*
X142748000Y-99771200D01*
X145752820Y-100439220D02*
X145084800Y-99771200D01*
X146253200Y-100954840D02*
X146253200Y-100355400D01*
X144627600Y-98729800D02*
X142748000Y-98729800D01*
X146253200Y-100355400D02*
X144627600Y-98729800D01*
X146753580Y-100954840D02*
X146753580Y-100068380D01*
X146753580Y-100068380D02*
X145643600Y-98958400D01*
X147251420Y-100954840D02*
X147251420Y-99778820D01*
X147251420Y-99778820D02*
X145643600Y-98171000D01*
X147777200Y-100253800D02*
X147777200Y-100929440D01*
X148132800Y-99898200D02*
X147777200Y-100253800D01*
X147777200Y-100929440D02*
X147751800Y-100954840D01*
X148252180Y-100954840D02*
X148252180Y-101897180D01*
X148252180Y-101897180D02*
X148259800Y-101904800D01*
X148750020Y-100954840D02*
X148750020Y-99499420D01*
X148750020Y-99499420D02*
X148742400Y-99491800D01*
X149250400Y-100954840D02*
X149250400Y-99771200D01*
X149301200Y-99288600D02*
X148742400Y-98729800D01*
X149301200Y-99720400D02*
X149301200Y-99288600D01*
X149250400Y-99771200D02*
X149301200Y-99720400D01*
X149750780Y-100954840D02*
X149750780Y-99982020D01*
X149750780Y-99982020D02*
X151434800Y-98298000D01*
X150248620Y-100954840D02*
X150248620Y-100246180D01*
X151739600Y-98755200D02*
X153974800Y-98755200D01*
X150248620Y-100246180D02*
X151739600Y-98755200D01*
X150749000Y-100954840D02*
X150749000Y-100330000D01*
X151511000Y-99568000D02*
X153924000Y-99568000D01*
X150749000Y-100330000D02*
X151511000Y-99568000D01*
X151249380Y-100954840D02*
X151249380Y-100439220D01*
X151485600Y-100203000D02*
X154254200Y-100203000D01*
X151249380Y-100439220D02*
X151485600Y-100203000D01*
X153913840Y-100954840D02*
X151749760Y-100954840D01*
X154228800Y-101269800D02*
X153913840Y-100954840D01*
X152549860Y-101754940D02*
X151610060Y-101754940D01*
X151610060Y-101754940D02*
X151511000Y-101854000D01*
X152549860Y-102255320D02*
X154223720Y-102255320D01*
X154223720Y-102255320D02*
X154228800Y-102260400D01*
X152549860Y-102755700D02*
X151523700Y-102755700D01*
X151523700Y-102755700D02*
X151511000Y-102768400D01*
X152549860Y-103256080D02*
X154223720Y-103256080D01*
X154223720Y-103256080D02*
X154228800Y-103251000D01*
X152549860Y-103753920D02*
X151516080Y-103753920D01*
X151516080Y-103753920D02*
X151511000Y-103759000D01*
X152549860Y-104254300D02*
X154216100Y-104254300D01*
X154216100Y-104254300D02*
X154228800Y-104241600D01*
X152549860Y-104754680D02*
X151516080Y-104754680D01*
X151516080Y-104754680D02*
X151511000Y-104749600D01*
X152549860Y-105252520D02*
X154223720Y-105252520D01*
X154223720Y-105252520D02*
X154228800Y-105257600D01*
X151599900Y-105752900D02*
X152549860Y-105752900D01*
X151511000Y-105664000D02*
X151599900Y-105752900D01*
X152511760Y-105791000D02*
X152549860Y-105752900D01*
D19*
X144452340Y-108252260D02*
X142669260Y-108252260D01*
X142669260Y-108252260D02*
X141351000Y-106934000D01*
X145252440Y-109052360D02*
X141469360Y-109052360D01*
D20*
X141469360Y-109052360D02*
X141351000Y-108934000D01*
X141351000Y-110934000D02*
X142735800Y-110934000D01*
X145752820Y-109694980D02*
X145752820Y-109052360D01*
X145135600Y-110312200D02*
X145752820Y-109694980D01*
X143357600Y-110312200D02*
X145135600Y-110312200D01*
X142735800Y-110934000D02*
X143357600Y-110312200D01*
X141827000Y-112935000D02*
X143992600Y-110769400D01*
X146753580Y-109527002D02*
X146753580Y-109052360D01*
X145511182Y-110769400D02*
X146753580Y-109527002D01*
X143992600Y-110769400D02*
X145511182Y-110769400D01*
X141344400Y-112935000D02*
X141827000Y-112935000D01*
D19*
X147251420Y-109606080D02*
X147251420Y-109052360D01*
X143922500Y-112935000D02*
X147251420Y-109606080D01*
X143344400Y-112935000D02*
X143922500Y-112935000D01*
D20*
X143344400Y-112935000D02*
X143884400Y-112935000D01*
X145344400Y-112935000D02*
X145344400Y-112440200D01*
D19*
X145344400Y-112440200D02*
X147751800Y-110032800D01*
X147751800Y-110032800D02*
X147751800Y-109052360D01*
X147344400Y-112935000D02*
X147344400Y-111938800D01*
X148252180Y-111031020D02*
X148252180Y-109052360D01*
X147344400Y-111938800D02*
X148252180Y-111031020D01*
X149344400Y-112935000D02*
X149344400Y-111727000D01*
X148750020Y-111132620D02*
X148750020Y-109052360D01*
X149344400Y-111727000D02*
X148750020Y-111132620D01*
D20*
X151344400Y-112935000D02*
X151344400Y-112507800D01*
D19*
X151344400Y-112507800D02*
X149250400Y-110413800D01*
X149250400Y-110413800D02*
X149250400Y-109052360D01*
D20*
X153344400Y-112935000D02*
X153344400Y-112882200D01*
D19*
X153344400Y-112882200D02*
X152120600Y-111658400D01*
X152120600Y-111658400D02*
X151333200Y-111658400D01*
X151333200Y-111658400D02*
X149750780Y-110075980D01*
X149750780Y-110075980D02*
X149750780Y-109052360D01*
X155344400Y-112935000D02*
X155035500Y-112935000D01*
X155035500Y-112935000D02*
X153289000Y-111188500D01*
X150248620Y-109926120D02*
X150248620Y-109052360D01*
X151511000Y-111188500D02*
X150248620Y-109926120D01*
X153289000Y-111188500D02*
X151511000Y-111188500D01*
D20*
X155344400Y-112935000D02*
X155099000Y-112935000D01*
X154305000Y-108458000D02*
X153598880Y-107751880D01*
X153598880Y-107751880D02*
X153543000Y-107696000D01*
X153543000Y-107696000D02*
X153543000Y-107751880D01*
X152549860Y-107751880D02*
X153543000Y-107751880D01*
X153543000Y-107751880D02*
X155126120Y-107751880D01*
X155126120Y-107751880D02*
X155371800Y-107506200D01*
D21*
G36*
X154189250Y-110819600D02*
X155168000Y-110819600D01*
X155168000Y-110799600D01*
X155474000Y-110799600D01*
X155474000Y-110819600D01*
X155494000Y-110819600D01*
X155494000Y-111125600D01*
X155474000Y-111125600D01*
X155474000Y-111145600D01*
X155168000Y-111145600D01*
X155168000Y-111125600D01*
X154189250Y-111125600D01*
X154037000Y-111277850D01*
X154037000Y-111328388D01*
X153866822Y-111158210D01*
X153954412Y-111101848D01*
X154023596Y-111000593D01*
X154047936Y-110880400D01*
X154047936Y-110678286D01*
X154189250Y-110819600D01*
X154189250Y-110819600D01*
G37*
X154189250Y-110819600D02*
X155168000Y-110819600D01*
X155168000Y-110799600D01*
X155474000Y-110799600D01*
X155474000Y-110819600D01*
X155494000Y-110819600D01*
X155494000Y-111125600D01*
X155474000Y-111125600D01*
X155474000Y-111145600D01*
X155168000Y-111145600D01*
X155168000Y-111125600D01*
X154189250Y-111125600D01*
X154037000Y-111277850D01*
X154037000Y-111328388D01*
X153866822Y-111158210D01*
X153954412Y-111101848D01*
X154023596Y-111000593D01*
X154047936Y-110880400D01*
X154047936Y-110678286D01*
X154189250Y-110819600D01*
G36*
X153442000Y-109005400D02*
X154181264Y-109005400D01*
X154194519Y-109010904D01*
X154331483Y-109011024D01*
X154398286Y-109346864D01*
X154610290Y-109664150D01*
X154646882Y-109688600D01*
X154524862Y-109688600D01*
X154301029Y-109781315D01*
X154129714Y-109952629D01*
X154037000Y-110176463D01*
X154037000Y-110322281D01*
X154026808Y-110268115D01*
X153960448Y-110164988D01*
X153859193Y-110095804D01*
X153739000Y-110071464D01*
X152839000Y-110071464D01*
X152726715Y-110092592D01*
X152711544Y-110102354D01*
X152514253Y-109905063D01*
X152717863Y-109989400D01*
X152983750Y-109989400D01*
X153136000Y-109837150D01*
X153136000Y-109255400D01*
X153442000Y-109255400D01*
X153442000Y-109837150D01*
X153594250Y-109989400D01*
X153860137Y-109989400D01*
X154083971Y-109896686D01*
X154255285Y-109725371D01*
X154348000Y-109501538D01*
X154348000Y-109407650D01*
X154195750Y-109255400D01*
X153442000Y-109255400D01*
X153136000Y-109255400D01*
X152382250Y-109255400D01*
X152230000Y-109407650D01*
X152230000Y-109501538D01*
X152314339Y-109705149D01*
X152171027Y-109561837D01*
X152183156Y-109501940D01*
X152183156Y-108985720D01*
X152244610Y-108985720D01*
X152303590Y-108926740D01*
X152382250Y-109005400D01*
X153136000Y-109005400D01*
X153136000Y-108979332D01*
X153344411Y-108893005D01*
X153442000Y-108795417D01*
X153442000Y-109005400D01*
X153442000Y-109005400D01*
G37*
X153442000Y-109005400D02*
X154181264Y-109005400D01*
X154194519Y-109010904D01*
X154331483Y-109011024D01*
X154398286Y-109346864D01*
X154610290Y-109664150D01*
X154646882Y-109688600D01*
X154524862Y-109688600D01*
X154301029Y-109781315D01*
X154129714Y-109952629D01*
X154037000Y-110176463D01*
X154037000Y-110322281D01*
X154026808Y-110268115D01*
X153960448Y-110164988D01*
X153859193Y-110095804D01*
X153739000Y-110071464D01*
X152839000Y-110071464D01*
X152726715Y-110092592D01*
X152711544Y-110102354D01*
X152514253Y-109905063D01*
X152717863Y-109989400D01*
X152983750Y-109989400D01*
X153136000Y-109837150D01*
X153136000Y-109255400D01*
X153442000Y-109255400D01*
X153442000Y-109837150D01*
X153594250Y-109989400D01*
X153860137Y-109989400D01*
X154083971Y-109896686D01*
X154255285Y-109725371D01*
X154348000Y-109501538D01*
X154348000Y-109407650D01*
X154195750Y-109255400D01*
X153442000Y-109255400D01*
X153136000Y-109255400D01*
X152382250Y-109255400D01*
X152230000Y-109407650D01*
X152230000Y-109501538D01*
X152314339Y-109705149D01*
X152171027Y-109561837D01*
X152183156Y-109501940D01*
X152183156Y-108985720D01*
X152244610Y-108985720D01*
X152303590Y-108926740D01*
X152382250Y-109005400D01*
X153136000Y-109005400D01*
X153136000Y-108979332D01*
X153344411Y-108893005D01*
X153442000Y-108795417D01*
X153442000Y-109005400D01*
G36*
X156363000Y-96053836D02*
X156363000Y-105471379D01*
X156338085Y-105411229D01*
X156166771Y-105239914D01*
X155942937Y-105147200D01*
X155677050Y-105147200D01*
X155524800Y-105299450D01*
X155524800Y-105881200D01*
X155544800Y-105881200D01*
X155544800Y-106131200D01*
X155524800Y-106131200D01*
X155524800Y-106712950D01*
X155677050Y-106865200D01*
X155942937Y-106865200D01*
X156166771Y-106772486D01*
X156338085Y-106601171D01*
X156363000Y-106541021D01*
X156363000Y-109803344D01*
X156340971Y-109781315D01*
X156117138Y-109688600D01*
X155995118Y-109688600D01*
X156031710Y-109664150D01*
X156243714Y-109346864D01*
X156318160Y-108972600D01*
X156243714Y-108598336D01*
X156031710Y-108281050D01*
X155714424Y-108069046D01*
X155694767Y-108065136D01*
X155821800Y-108065136D01*
X155934085Y-108044008D01*
X156037212Y-107977648D01*
X156106396Y-107876393D01*
X156130736Y-107756200D01*
X156130736Y-107256200D01*
X156109608Y-107143915D01*
X156043248Y-107040788D01*
X155941993Y-106971604D01*
X155821800Y-106947264D01*
X154945782Y-106947264D01*
X154926484Y-106900560D01*
X154891186Y-106865200D01*
X155066550Y-106865200D01*
X155218800Y-106712950D01*
X155218800Y-106131200D01*
X154465050Y-106131200D01*
X154312800Y-106283450D01*
X154312800Y-106377338D01*
X154405515Y-106601171D01*
X154464750Y-106660406D01*
X154347884Y-106660304D01*
X154144560Y-106744316D01*
X154041797Y-106846900D01*
X153489740Y-106846900D01*
X153456190Y-106813350D01*
X152702860Y-106813350D01*
X152702860Y-106818104D01*
X152396860Y-106818104D01*
X152396860Y-106813350D01*
X152376860Y-106813350D01*
X152376860Y-106688890D01*
X152396860Y-106688890D01*
X152396860Y-106686676D01*
X152702860Y-106686676D01*
X152702860Y-106688890D01*
X153456190Y-106688890D01*
X153608440Y-106536640D01*
X153608440Y-106505523D01*
X153515726Y-106281689D01*
X153344411Y-106110375D01*
X153301566Y-106092628D01*
X153287248Y-106016535D01*
X153279400Y-106004338D01*
X153284036Y-105997553D01*
X153308376Y-105877360D01*
X153308376Y-105657120D01*
X153846245Y-105657120D01*
X153915142Y-105726137D01*
X154118319Y-105810504D01*
X154338316Y-105810696D01*
X154378105Y-105794255D01*
X154465050Y-105881200D01*
X155218800Y-105881200D01*
X155218800Y-105299450D01*
X155066550Y-105147200D01*
X154800663Y-105147200D01*
X154781890Y-105154976D01*
X154781896Y-105148084D01*
X154697884Y-104944760D01*
X154542458Y-104789063D01*
X154447439Y-104749607D01*
X154541640Y-104710684D01*
X154697337Y-104555258D01*
X154781704Y-104352081D01*
X154781896Y-104132084D01*
X154697884Y-103928760D01*
X154542458Y-103773063D01*
X154478099Y-103746339D01*
X154541640Y-103720084D01*
X154697337Y-103564658D01*
X154781704Y-103361481D01*
X154781896Y-103141484D01*
X154697884Y-102938160D01*
X154542458Y-102782463D01*
X154478099Y-102755739D01*
X154541640Y-102729484D01*
X154697337Y-102574058D01*
X154781704Y-102370881D01*
X154781896Y-102150884D01*
X154697884Y-101947560D01*
X154542458Y-101791863D01*
X154478099Y-101765139D01*
X154541640Y-101738884D01*
X154697337Y-101583458D01*
X154781704Y-101380281D01*
X154781896Y-101160284D01*
X154697884Y-100956960D01*
X154542458Y-100801263D01*
X154398787Y-100741605D01*
X154567040Y-100672084D01*
X154722737Y-100516658D01*
X154807104Y-100313481D01*
X154807296Y-100093484D01*
X154723284Y-99890160D01*
X154567858Y-99734463D01*
X154470453Y-99694017D01*
X154476904Y-99678481D01*
X154477096Y-99458484D01*
X154393084Y-99255160D01*
X154325016Y-99186973D01*
X154443337Y-99068858D01*
X154527704Y-98865681D01*
X154527896Y-98645684D01*
X154443884Y-98442360D01*
X154288458Y-98286663D01*
X154085281Y-98202296D01*
X153865284Y-98202104D01*
X153661960Y-98286116D01*
X153597364Y-98350600D01*
X151987755Y-98350600D01*
X151987896Y-98188484D01*
X151964185Y-98131100D01*
X154308516Y-98131100D01*
X154372342Y-98195037D01*
X154575519Y-98279404D01*
X154795516Y-98279596D01*
X154998840Y-98195584D01*
X155154537Y-98040158D01*
X155238904Y-97836981D01*
X155239096Y-97616984D01*
X155155084Y-97413660D01*
X155112428Y-97370929D01*
X155387683Y-97371169D01*
X155747269Y-97222591D01*
X156022624Y-96947716D01*
X156171830Y-96588390D01*
X156172169Y-96199317D01*
X156023591Y-95839731D01*
X155748716Y-95564376D01*
X155389390Y-95415170D01*
X155000317Y-95414831D01*
X154640731Y-95563409D01*
X154365376Y-95838284D01*
X154216170Y-96197610D01*
X154215831Y-96586683D01*
X154364409Y-96946269D01*
X154591161Y-97173417D01*
X154576484Y-97173404D01*
X154373160Y-97257416D01*
X154308564Y-97321900D01*
X148971000Y-97321900D01*
X148915178Y-97333003D01*
X148903658Y-97321463D01*
X148700481Y-97237096D01*
X148645160Y-97237048D01*
X148386056Y-96977944D01*
X148246554Y-96884732D01*
X148082000Y-96852000D01*
X143306800Y-96852000D01*
X143142246Y-96884732D01*
X143002744Y-96977944D01*
X142794536Y-97186152D01*
X142740084Y-97186104D01*
X142536760Y-97270116D01*
X142381063Y-97425542D01*
X142296696Y-97628719D01*
X142296648Y-97684040D01*
X141783544Y-98197144D01*
X141690332Y-98336646D01*
X141657600Y-98501200D01*
X141657600Y-105562400D01*
X141690332Y-105726954D01*
X141783544Y-105866456D01*
X141891800Y-105938790D01*
X141903074Y-105950064D01*
X140676000Y-105950064D01*
X140563715Y-105971192D01*
X140563000Y-105971652D01*
X140563000Y-96586683D01*
X140753831Y-96586683D01*
X140902409Y-96946269D01*
X141177284Y-97221624D01*
X141536610Y-97370830D01*
X141925683Y-97371169D01*
X142285269Y-97222591D01*
X142560624Y-96947716D01*
X142709830Y-96588390D01*
X142710169Y-96199317D01*
X142561591Y-95839731D01*
X142286716Y-95564376D01*
X141927390Y-95415170D01*
X141538317Y-95414831D01*
X141178731Y-95563409D01*
X140903376Y-95838284D01*
X140754170Y-96197610D01*
X140753831Y-96586683D01*
X140563000Y-96586683D01*
X140563000Y-96053836D01*
X141519836Y-95097000D01*
X155406164Y-95097000D01*
X156363000Y-96053836D01*
X156363000Y-96053836D01*
G37*
X156363000Y-96053836D02*
X156363000Y-105471379D01*
X156338085Y-105411229D01*
X156166771Y-105239914D01*
X155942937Y-105147200D01*
X155677050Y-105147200D01*
X155524800Y-105299450D01*
X155524800Y-105881200D01*
X155544800Y-105881200D01*
X155544800Y-106131200D01*
X155524800Y-106131200D01*
X155524800Y-106712950D01*
X155677050Y-106865200D01*
X155942937Y-106865200D01*
X156166771Y-106772486D01*
X156338085Y-106601171D01*
X156363000Y-106541021D01*
X156363000Y-109803344D01*
X156340971Y-109781315D01*
X156117138Y-109688600D01*
X155995118Y-109688600D01*
X156031710Y-109664150D01*
X156243714Y-109346864D01*
X156318160Y-108972600D01*
X156243714Y-108598336D01*
X156031710Y-108281050D01*
X155714424Y-108069046D01*
X155694767Y-108065136D01*
X155821800Y-108065136D01*
X155934085Y-108044008D01*
X156037212Y-107977648D01*
X156106396Y-107876393D01*
X156130736Y-107756200D01*
X156130736Y-107256200D01*
X156109608Y-107143915D01*
X156043248Y-107040788D01*
X155941993Y-106971604D01*
X155821800Y-106947264D01*
X154945782Y-106947264D01*
X154926484Y-106900560D01*
X154891186Y-106865200D01*
X155066550Y-106865200D01*
X155218800Y-106712950D01*
X155218800Y-106131200D01*
X154465050Y-106131200D01*
X154312800Y-106283450D01*
X154312800Y-106377338D01*
X154405515Y-106601171D01*
X154464750Y-106660406D01*
X154347884Y-106660304D01*
X154144560Y-106744316D01*
X154041797Y-106846900D01*
X153489740Y-106846900D01*
X153456190Y-106813350D01*
X152702860Y-106813350D01*
X152702860Y-106818104D01*
X152396860Y-106818104D01*
X152396860Y-106813350D01*
X152376860Y-106813350D01*
X152376860Y-106688890D01*
X152396860Y-106688890D01*
X152396860Y-106686676D01*
X152702860Y-106686676D01*
X152702860Y-106688890D01*
X153456190Y-106688890D01*
X153608440Y-106536640D01*
X153608440Y-106505523D01*
X153515726Y-106281689D01*
X153344411Y-106110375D01*
X153301566Y-106092628D01*
X153287248Y-106016535D01*
X153279400Y-106004338D01*
X153284036Y-105997553D01*
X153308376Y-105877360D01*
X153308376Y-105657120D01*
X153846245Y-105657120D01*
X153915142Y-105726137D01*
X154118319Y-105810504D01*
X154338316Y-105810696D01*
X154378105Y-105794255D01*
X154465050Y-105881200D01*
X155218800Y-105881200D01*
X155218800Y-105299450D01*
X155066550Y-105147200D01*
X154800663Y-105147200D01*
X154781890Y-105154976D01*
X154781896Y-105148084D01*
X154697884Y-104944760D01*
X154542458Y-104789063D01*
X154447439Y-104749607D01*
X154541640Y-104710684D01*
X154697337Y-104555258D01*
X154781704Y-104352081D01*
X154781896Y-104132084D01*
X154697884Y-103928760D01*
X154542458Y-103773063D01*
X154478099Y-103746339D01*
X154541640Y-103720084D01*
X154697337Y-103564658D01*
X154781704Y-103361481D01*
X154781896Y-103141484D01*
X154697884Y-102938160D01*
X154542458Y-102782463D01*
X154478099Y-102755739D01*
X154541640Y-102729484D01*
X154697337Y-102574058D01*
X154781704Y-102370881D01*
X154781896Y-102150884D01*
X154697884Y-101947560D01*
X154542458Y-101791863D01*
X154478099Y-101765139D01*
X154541640Y-101738884D01*
X154697337Y-101583458D01*
X154781704Y-101380281D01*
X154781896Y-101160284D01*
X154697884Y-100956960D01*
X154542458Y-100801263D01*
X154398787Y-100741605D01*
X154567040Y-100672084D01*
X154722737Y-100516658D01*
X154807104Y-100313481D01*
X154807296Y-100093484D01*
X154723284Y-99890160D01*
X154567858Y-99734463D01*
X154470453Y-99694017D01*
X154476904Y-99678481D01*
X154477096Y-99458484D01*
X154393084Y-99255160D01*
X154325016Y-99186973D01*
X154443337Y-99068858D01*
X154527704Y-98865681D01*
X154527896Y-98645684D01*
X154443884Y-98442360D01*
X154288458Y-98286663D01*
X154085281Y-98202296D01*
X153865284Y-98202104D01*
X153661960Y-98286116D01*
X153597364Y-98350600D01*
X151987755Y-98350600D01*
X151987896Y-98188484D01*
X151964185Y-98131100D01*
X154308516Y-98131100D01*
X154372342Y-98195037D01*
X154575519Y-98279404D01*
X154795516Y-98279596D01*
X154998840Y-98195584D01*
X155154537Y-98040158D01*
X155238904Y-97836981D01*
X155239096Y-97616984D01*
X155155084Y-97413660D01*
X155112428Y-97370929D01*
X155387683Y-97371169D01*
X155747269Y-97222591D01*
X156022624Y-96947716D01*
X156171830Y-96588390D01*
X156172169Y-96199317D01*
X156023591Y-95839731D01*
X155748716Y-95564376D01*
X155389390Y-95415170D01*
X155000317Y-95414831D01*
X154640731Y-95563409D01*
X154365376Y-95838284D01*
X154216170Y-96197610D01*
X154215831Y-96586683D01*
X154364409Y-96946269D01*
X154591161Y-97173417D01*
X154576484Y-97173404D01*
X154373160Y-97257416D01*
X154308564Y-97321900D01*
X148971000Y-97321900D01*
X148915178Y-97333003D01*
X148903658Y-97321463D01*
X148700481Y-97237096D01*
X148645160Y-97237048D01*
X148386056Y-96977944D01*
X148246554Y-96884732D01*
X148082000Y-96852000D01*
X143306800Y-96852000D01*
X143142246Y-96884732D01*
X143002744Y-96977944D01*
X142794536Y-97186152D01*
X142740084Y-97186104D01*
X142536760Y-97270116D01*
X142381063Y-97425542D01*
X142296696Y-97628719D01*
X142296648Y-97684040D01*
X141783544Y-98197144D01*
X141690332Y-98336646D01*
X141657600Y-98501200D01*
X141657600Y-105562400D01*
X141690332Y-105726954D01*
X141783544Y-105866456D01*
X141891800Y-105938790D01*
X141903074Y-105950064D01*
X140676000Y-105950064D01*
X140563715Y-105971192D01*
X140563000Y-105971652D01*
X140563000Y-96586683D01*
X140753831Y-96586683D01*
X140902409Y-96946269D01*
X141177284Y-97221624D01*
X141536610Y-97370830D01*
X141925683Y-97371169D01*
X142285269Y-97222591D01*
X142560624Y-96947716D01*
X142709830Y-96588390D01*
X142710169Y-96199317D01*
X142561591Y-95839731D01*
X142286716Y-95564376D01*
X141927390Y-95415170D01*
X141538317Y-95414831D01*
X141178731Y-95563409D01*
X140903376Y-95838284D01*
X140754170Y-96197610D01*
X140753831Y-96586683D01*
X140563000Y-96586683D01*
X140563000Y-96053836D01*
X141519836Y-95097000D01*
X155406164Y-95097000D01*
X156363000Y-96053836D01*
G36*
X146315430Y-108899360D02*
X146320184Y-108899360D01*
X146320184Y-109205360D01*
X146315430Y-109205360D01*
X146315430Y-109225360D01*
X146190970Y-109225360D01*
X146190970Y-109205360D01*
X146186216Y-109205360D01*
X146186216Y-108899360D01*
X146190970Y-108899360D01*
X146190970Y-108879360D01*
X146315430Y-108879360D01*
X146315430Y-108899360D01*
X146315430Y-108899360D01*
G37*
X146315430Y-108899360D02*
X146320184Y-108899360D01*
X146320184Y-109205360D01*
X146315430Y-109205360D01*
X146315430Y-109225360D01*
X146190970Y-109225360D01*
X146190970Y-109205360D01*
X146186216Y-109205360D01*
X146186216Y-108899360D01*
X146190970Y-108899360D01*
X146190970Y-108879360D01*
X146315430Y-108879360D01*
X146315430Y-108899360D01*
G36*
X148654100Y-104850600D02*
X148674100Y-104850600D01*
X148674100Y-105156600D01*
X148654100Y-105156600D01*
X148654100Y-107859380D01*
X148806350Y-108011630D01*
X151021268Y-108011630D01*
X151245101Y-107918915D01*
X151416416Y-107747601D01*
X151509130Y-107523767D01*
X151509130Y-107039811D01*
X151583994Y-107220551D01*
X151755309Y-107391865D01*
X151797636Y-107409397D01*
X151812472Y-107488245D01*
X151820320Y-107500442D01*
X151815684Y-107507227D01*
X151798159Y-107593766D01*
X151755309Y-107611515D01*
X151583994Y-107782829D01*
X151491280Y-108006663D01*
X151491280Y-108037780D01*
X151643530Y-108190030D01*
X152396860Y-108190030D01*
X152396860Y-108185276D01*
X152702860Y-108185276D01*
X152702860Y-108190030D01*
X152722860Y-108190030D01*
X152722860Y-108271400D01*
X152717863Y-108271400D01*
X152494029Y-108364114D01*
X152481423Y-108376720D01*
X152396860Y-108376720D01*
X152396860Y-108314490D01*
X151976172Y-108314490D01*
X151874220Y-108293844D01*
X151625300Y-108293844D01*
X151513015Y-108314972D01*
X151500818Y-108322820D01*
X151494033Y-108318184D01*
X151373840Y-108293844D01*
X151124920Y-108293844D01*
X151012635Y-108314972D01*
X151000438Y-108322820D01*
X150993653Y-108318184D01*
X150873460Y-108293844D01*
X150624540Y-108293844D01*
X150512255Y-108314972D01*
X150500058Y-108322820D01*
X150493273Y-108318184D01*
X150373080Y-108293844D01*
X150124160Y-108293844D01*
X150011875Y-108314972D01*
X150000987Y-108321979D01*
X149995433Y-108318184D01*
X149875240Y-108293844D01*
X149626320Y-108293844D01*
X149514035Y-108314972D01*
X149501838Y-108322820D01*
X149495053Y-108318184D01*
X149374860Y-108293844D01*
X149125940Y-108293844D01*
X149013655Y-108314972D01*
X149001458Y-108322820D01*
X148994673Y-108318184D01*
X148874480Y-108293844D01*
X148625560Y-108293844D01*
X148513275Y-108314972D01*
X148502387Y-108321979D01*
X148496833Y-108318184D01*
X148376640Y-108293844D01*
X148127720Y-108293844D01*
X148015435Y-108314972D01*
X148003238Y-108322820D01*
X147996453Y-108318184D01*
X147876260Y-108293844D01*
X147627340Y-108293844D01*
X147515055Y-108314972D01*
X147502858Y-108322820D01*
X147496073Y-108318184D01*
X147375880Y-108293844D01*
X147126960Y-108293844D01*
X147014675Y-108314972D01*
X147003787Y-108321979D01*
X146998233Y-108318184D01*
X146911694Y-108300659D01*
X146893945Y-108257809D01*
X146722631Y-108086494D01*
X146541891Y-108011630D01*
X148195850Y-108011630D01*
X148348100Y-107859380D01*
X148348100Y-105156600D01*
X148328100Y-105156600D01*
X148328100Y-104850600D01*
X148348100Y-104850600D01*
X148348100Y-104830600D01*
X148654100Y-104830600D01*
X148654100Y-104850600D01*
X148654100Y-104850600D01*
G37*
X148654100Y-104850600D02*
X148674100Y-104850600D01*
X148674100Y-105156600D01*
X148654100Y-105156600D01*
X148654100Y-107859380D01*
X148806350Y-108011630D01*
X151021268Y-108011630D01*
X151245101Y-107918915D01*
X151416416Y-107747601D01*
X151509130Y-107523767D01*
X151509130Y-107039811D01*
X151583994Y-107220551D01*
X151755309Y-107391865D01*
X151797636Y-107409397D01*
X151812472Y-107488245D01*
X151820320Y-107500442D01*
X151815684Y-107507227D01*
X151798159Y-107593766D01*
X151755309Y-107611515D01*
X151583994Y-107782829D01*
X151491280Y-108006663D01*
X151491280Y-108037780D01*
X151643530Y-108190030D01*
X152396860Y-108190030D01*
X152396860Y-108185276D01*
X152702860Y-108185276D01*
X152702860Y-108190030D01*
X152722860Y-108190030D01*
X152722860Y-108271400D01*
X152717863Y-108271400D01*
X152494029Y-108364114D01*
X152481423Y-108376720D01*
X152396860Y-108376720D01*
X152396860Y-108314490D01*
X151976172Y-108314490D01*
X151874220Y-108293844D01*
X151625300Y-108293844D01*
X151513015Y-108314972D01*
X151500818Y-108322820D01*
X151494033Y-108318184D01*
X151373840Y-108293844D01*
X151124920Y-108293844D01*
X151012635Y-108314972D01*
X151000438Y-108322820D01*
X150993653Y-108318184D01*
X150873460Y-108293844D01*
X150624540Y-108293844D01*
X150512255Y-108314972D01*
X150500058Y-108322820D01*
X150493273Y-108318184D01*
X150373080Y-108293844D01*
X150124160Y-108293844D01*
X150011875Y-108314972D01*
X150000987Y-108321979D01*
X149995433Y-108318184D01*
X149875240Y-108293844D01*
X149626320Y-108293844D01*
X149514035Y-108314972D01*
X149501838Y-108322820D01*
X149495053Y-108318184D01*
X149374860Y-108293844D01*
X149125940Y-108293844D01*
X149013655Y-108314972D01*
X149001458Y-108322820D01*
X148994673Y-108318184D01*
X148874480Y-108293844D01*
X148625560Y-108293844D01*
X148513275Y-108314972D01*
X148502387Y-108321979D01*
X148496833Y-108318184D01*
X148376640Y-108293844D01*
X148127720Y-108293844D01*
X148015435Y-108314972D01*
X148003238Y-108322820D01*
X147996453Y-108318184D01*
X147876260Y-108293844D01*
X147627340Y-108293844D01*
X147515055Y-108314972D01*
X147502858Y-108322820D01*
X147496073Y-108318184D01*
X147375880Y-108293844D01*
X147126960Y-108293844D01*
X147014675Y-108314972D01*
X147003787Y-108321979D01*
X146998233Y-108318184D01*
X146911694Y-108300659D01*
X146893945Y-108257809D01*
X146722631Y-108086494D01*
X146541891Y-108011630D01*
X148195850Y-108011630D01*
X148348100Y-107859380D01*
X148348100Y-105156600D01*
X148328100Y-105156600D01*
X148328100Y-104850600D01*
X148348100Y-104850600D01*
X148348100Y-104830600D01*
X148654100Y-104830600D01*
X148654100Y-104850600D01*
G36*
X142349172Y-106357716D02*
X142364566Y-106368002D01*
X142519400Y-106398800D01*
X142529610Y-106398800D01*
X142670184Y-106539375D01*
X142759700Y-106599188D01*
X142801446Y-106627082D01*
X142956280Y-106657880D01*
X143515000Y-106657880D01*
X143546010Y-106688890D01*
X143579654Y-106688890D01*
X143486474Y-106782069D01*
X143422258Y-106937102D01*
X143393760Y-106965600D01*
X143393760Y-106996717D01*
X143395662Y-107001310D01*
X143393760Y-107005903D01*
X143393760Y-107037020D01*
X143422258Y-107065518D01*
X143486474Y-107220551D01*
X143579654Y-107313730D01*
X143546010Y-107313730D01*
X143393760Y-107465980D01*
X143393760Y-107497097D01*
X143486474Y-107720931D01*
X143587804Y-107822260D01*
X142847372Y-107822260D01*
X142334936Y-107309824D01*
X142334936Y-106348204D01*
X142349172Y-106357716D01*
X142349172Y-106357716D01*
G37*
X142349172Y-106357716D02*
X142364566Y-106368002D01*
X142519400Y-106398800D01*
X142529610Y-106398800D01*
X142670184Y-106539375D01*
X142759700Y-106599188D01*
X142801446Y-106627082D01*
X142956280Y-106657880D01*
X143515000Y-106657880D01*
X143546010Y-106688890D01*
X143579654Y-106688890D01*
X143486474Y-106782069D01*
X143422258Y-106937102D01*
X143393760Y-106965600D01*
X143393760Y-106996717D01*
X143395662Y-107001310D01*
X143393760Y-107005903D01*
X143393760Y-107037020D01*
X143422258Y-107065518D01*
X143486474Y-107220551D01*
X143579654Y-107313730D01*
X143546010Y-107313730D01*
X143393760Y-107465980D01*
X143393760Y-107497097D01*
X143486474Y-107720931D01*
X143587804Y-107822260D01*
X142847372Y-107822260D01*
X142334936Y-107309824D01*
X142334936Y-106348204D01*
X142349172Y-106357716D01*
M02*
