G04 #@! TF.FileFunction,Legend,Bot*
%FSLAX46Y46*%
G04 Gerber Fmt 4.6, Leading zero omitted, Abs format (unit mm)*
G04 Created by KiCad (PCBNEW 4.0.7) date 05/28/18 09:58:20*
%MOMM*%
%LPD*%
G01*
G04 APERTURE LIST*
%ADD10C,0.100000*%
%ADD11C,0.050800*%
%ADD12C,0.120000*%
G04 APERTURE END LIST*
D10*
X155448357Y-101607857D02*
X155876929Y-101907857D01*
X155448357Y-102122142D02*
X156348357Y-102122142D01*
X156348357Y-101779285D01*
X156305500Y-101693571D01*
X156262643Y-101650714D01*
X156176929Y-101607857D01*
X156048357Y-101607857D01*
X155962643Y-101650714D01*
X155919786Y-101693571D01*
X155876929Y-101779285D01*
X155876929Y-102122142D01*
X155448357Y-101222142D02*
X156348357Y-101222142D01*
X155919786Y-101222142D02*
X155919786Y-100707857D01*
X155448357Y-100707857D02*
X156348357Y-100707857D01*
X155448357Y-100279285D02*
X156348357Y-100279285D01*
X156348357Y-100065000D01*
X156305500Y-99936428D01*
X156219786Y-99850714D01*
X156134071Y-99807857D01*
X155962643Y-99765000D01*
X155834071Y-99765000D01*
X155662643Y-99807857D01*
X155576929Y-99850714D01*
X155491214Y-99936428D01*
X155448357Y-100065000D01*
X155448357Y-100279285D01*
X154041214Y-101993571D02*
X153998357Y-101865000D01*
X153998357Y-101650714D01*
X154041214Y-101565000D01*
X154084071Y-101522143D01*
X154169786Y-101479286D01*
X154255500Y-101479286D01*
X154341214Y-101522143D01*
X154384071Y-101565000D01*
X154426929Y-101650714D01*
X154469786Y-101822143D01*
X154512643Y-101907857D01*
X154555500Y-101950714D01*
X154641214Y-101993571D01*
X154726929Y-101993571D01*
X154812643Y-101950714D01*
X154855500Y-101907857D01*
X154898357Y-101822143D01*
X154898357Y-101607857D01*
X154855500Y-101479286D01*
X154469786Y-101093571D02*
X154469786Y-100793571D01*
X153998357Y-100665000D02*
X153998357Y-101093571D01*
X154898357Y-101093571D01*
X154898357Y-100665000D01*
X153998357Y-99850714D02*
X153998357Y-100279285D01*
X154898357Y-100279285D01*
X153707357Y-107665714D02*
X153707357Y-108094285D01*
X154607357Y-108094285D01*
X154607357Y-107494286D02*
X153707357Y-107194286D01*
X154607357Y-106894286D01*
X153707357Y-106594285D02*
X154607357Y-106594285D01*
X154607357Y-106380000D01*
X154564500Y-106251428D01*
X154478786Y-106165714D01*
X154393071Y-106122857D01*
X154221643Y-106080000D01*
X154093071Y-106080000D01*
X153921643Y-106122857D01*
X153835929Y-106165714D01*
X153750214Y-106251428D01*
X153707357Y-106380000D01*
X153707357Y-106594285D01*
X153750214Y-105737142D02*
X153707357Y-105608571D01*
X153707357Y-105394285D01*
X153750214Y-105308571D01*
X153793071Y-105265714D01*
X153878786Y-105222857D01*
X153964500Y-105222857D01*
X154050214Y-105265714D01*
X154093071Y-105308571D01*
X154135929Y-105394285D01*
X154178786Y-105565714D01*
X154221643Y-105651428D01*
X154264500Y-105694285D01*
X154350214Y-105737142D01*
X154435929Y-105737142D01*
X154521643Y-105694285D01*
X154564500Y-105651428D01*
X154607357Y-105565714D01*
X154607357Y-105351428D01*
X154564500Y-105222857D01*
D11*
X144958400Y-96056200D02*
X144958400Y-94056200D01*
X144958400Y-94056200D02*
X146158400Y-94056200D01*
X146158400Y-96056200D02*
X146158400Y-94056200D01*
X146158400Y-107956200D02*
X146158400Y-109956200D01*
X146158400Y-109956200D02*
X144958400Y-109956200D01*
X144958400Y-107956200D02*
X144958400Y-109956200D01*
X144958400Y-109956200D02*
X144958400Y-107956200D01*
X144958400Y-96056200D02*
X144958400Y-107956200D01*
X144958400Y-107956200D02*
X146158400Y-107956200D01*
X146158400Y-107956200D02*
X146158400Y-96056200D01*
X146158400Y-96056200D02*
X144958400Y-96056200D01*
X150851200Y-96056200D02*
X150851200Y-94056200D01*
X150851200Y-94056200D02*
X152051200Y-94056200D01*
X152051200Y-96056200D02*
X152051200Y-94056200D01*
X152051200Y-107956200D02*
X152051200Y-109956200D01*
X152051200Y-109956200D02*
X150851200Y-109956200D01*
X150851200Y-107956200D02*
X150851200Y-109956200D01*
X150851200Y-109956200D02*
X150851200Y-107956200D01*
X150851200Y-96056200D02*
X150851200Y-107956200D01*
X150851200Y-107956200D02*
X152051200Y-107956200D01*
X152051200Y-107956200D02*
X152051200Y-96056200D01*
X152051200Y-96056200D02*
X150851200Y-96056200D01*
D12*
X148773600Y-109101000D02*
X148773600Y-110101000D01*
X150133600Y-110101000D02*
X150133600Y-109101000D01*
X146944800Y-109101000D02*
X146944800Y-110101000D01*
X148304800Y-110101000D02*
X148304800Y-109101000D01*
X156051800Y-107256200D02*
X156051800Y-106256200D01*
X154691800Y-106256200D02*
X154691800Y-107256200D01*
X155022000Y-97988500D02*
X155022000Y-98988500D01*
X156382000Y-98988500D02*
X156382000Y-97988500D01*
M02*
