%FSLAX45Y45*%
G04 Gerber Fmt 4.5, Leading zero omitted, Abs format (unit mm)*
G04 Created by KiCad (PCBNEW 4.0.7) date Tuesday, July 31, 2018 'AMt' 11:32:45 AM*
%MOMM*%
%LPD*%
G01*
G04 APERTURE LIST*
%ADD10C,0.127000*%
%ADD11C,0.150000*%
%ADD12C,0.200000*%
%ADD13C,0.300000*%
G04 APERTURE END LIST*
D10*
D11*
X17120000Y-8700000D02*
X15670000Y-8700000D01*
X15670000Y-7520000D02*
X17120000Y-7520000D01*
X15670000Y-8700000D02*
X15670000Y-7520000D01*
X17120000Y-7520000D02*
X17120000Y-8700000D01*
D12*
X15755000Y-8045000D02*
X15805000Y-8095000D01*
X15805000Y-8045000D02*
X15755000Y-8095000D01*
X15875000Y-7975000D02*
X15925000Y-8025000D01*
X15925000Y-7975000D02*
X15875000Y-8025000D01*
X15875000Y-8555000D02*
X15925000Y-8605000D01*
X15925000Y-8555000D02*
X15875000Y-8605000D01*
X15945000Y-8255000D02*
X15995000Y-8305000D01*
X15995000Y-8255000D02*
X15945000Y-8305000D01*
X16155000Y-8115000D02*
X16205000Y-8165000D01*
X16205000Y-8115000D02*
X16155000Y-8165000D01*
X16175000Y-7965000D02*
X16225000Y-8015000D01*
X16225000Y-7965000D02*
X16175000Y-8015000D01*
X16205000Y-8595000D02*
X16255000Y-8645000D01*
X16255000Y-8595000D02*
X16205000Y-8645000D01*
X16235000Y-8065000D02*
X16285000Y-8115000D01*
X16285000Y-8065000D02*
X16235000Y-8115000D01*
X16375000Y-7695000D02*
X16425000Y-7745000D01*
X16425000Y-7695000D02*
X16375000Y-7745000D01*
X16375000Y-8555000D02*
X16425000Y-8605000D01*
X16425000Y-8555000D02*
X16375000Y-8605000D01*
X16515000Y-8065000D02*
X16565000Y-8115000D01*
X16565000Y-8065000D02*
X16515000Y-8115000D01*
X16545000Y-8595000D02*
X16595000Y-8645000D01*
X16595000Y-8595000D02*
X16545000Y-8645000D01*
X16575000Y-7965000D02*
X16625000Y-8015000D01*
X16625000Y-7965000D02*
X16575000Y-8015000D01*
X16595000Y-8115000D02*
X16645000Y-8165000D01*
X16645000Y-8115000D02*
X16595000Y-8165000D01*
X16805000Y-8255000D02*
X16855000Y-8305000D01*
X16855000Y-8255000D02*
X16805000Y-8305000D01*
X16875000Y-7695000D02*
X16925000Y-7745000D01*
X16925000Y-7695000D02*
X16875000Y-7745000D01*
X16875000Y-7975000D02*
X16925000Y-8025000D01*
X16925000Y-7975000D02*
X16875000Y-8025000D01*
X16995000Y-8045000D02*
X17045000Y-8095000D01*
X17045000Y-8045000D02*
X16995000Y-8095000D01*
D13*
X15933928Y-9173214D02*
X15933928Y-8873214D01*
X16005357Y-8873214D01*
X16048214Y-8887500D01*
X16076786Y-8916072D01*
X16091071Y-8944643D01*
X16105357Y-9001786D01*
X16105357Y-9044643D01*
X16091071Y-9101786D01*
X16076786Y-9130357D01*
X16048214Y-9158929D01*
X16005357Y-9173214D01*
X15933928Y-9173214D01*
X16233928Y-9173214D02*
X16233928Y-8973214D01*
X16233928Y-9030357D02*
X16248214Y-9001786D01*
X16262500Y-8987500D01*
X16291071Y-8973214D01*
X16319643Y-8973214D01*
X16419643Y-9173214D02*
X16419643Y-8973214D01*
X16419643Y-8873214D02*
X16405357Y-8887500D01*
X16419643Y-8901786D01*
X16433928Y-8887500D01*
X16419643Y-8873214D01*
X16419643Y-8901786D01*
X16605357Y-9173214D02*
X16576786Y-9158929D01*
X16562500Y-9130357D01*
X16562500Y-8873214D01*
X16762500Y-9173214D02*
X16733928Y-9158929D01*
X16719643Y-9130357D01*
X16719643Y-8873214D01*
X17105357Y-9173214D02*
X17105357Y-8873214D01*
X17205357Y-9087500D01*
X17305357Y-8873214D01*
X17305357Y-9173214D01*
X17576786Y-9173214D02*
X17576786Y-9016072D01*
X17562500Y-8987500D01*
X17533929Y-8973214D01*
X17476786Y-8973214D01*
X17448214Y-8987500D01*
X17576786Y-9158929D02*
X17548214Y-9173214D01*
X17476786Y-9173214D01*
X17448214Y-9158929D01*
X17433929Y-9130357D01*
X17433929Y-9101786D01*
X17448214Y-9073214D01*
X17476786Y-9058929D01*
X17548214Y-9058929D01*
X17576786Y-9044643D01*
X17719643Y-8973214D02*
X17719643Y-9273214D01*
X17719643Y-8987500D02*
X17748214Y-8973214D01*
X17805357Y-8973214D01*
X17833929Y-8987500D01*
X17848214Y-9001786D01*
X17862500Y-9030357D01*
X17862500Y-9116072D01*
X17848214Y-9144643D01*
X17833929Y-9158929D01*
X17805357Y-9173214D01*
X17748214Y-9173214D01*
X17719643Y-9158929D01*
X17991071Y-9144643D02*
X18005357Y-9158929D01*
X17991071Y-9173214D01*
X17976786Y-9158929D01*
X17991071Y-9144643D01*
X17991071Y-9173214D01*
X17991071Y-8987500D02*
X18005357Y-9001786D01*
X17991071Y-9016072D01*
X17976786Y-9001786D01*
X17991071Y-8987500D01*
X17991071Y-9016072D01*
X15612500Y-9642500D02*
X15662500Y-9692500D01*
X15662500Y-9642500D02*
X15612500Y-9692500D01*
X15991071Y-9503214D02*
X16019643Y-9503214D01*
X16048214Y-9517500D01*
X16062500Y-9531786D01*
X16076786Y-9560357D01*
X16091071Y-9617500D01*
X16091071Y-9688929D01*
X16076786Y-9746072D01*
X16062500Y-9774643D01*
X16048214Y-9788929D01*
X16019643Y-9803214D01*
X15991071Y-9803214D01*
X15962500Y-9788929D01*
X15948214Y-9774643D01*
X15933928Y-9746072D01*
X15919643Y-9688929D01*
X15919643Y-9617500D01*
X15933928Y-9560357D01*
X15948214Y-9531786D01*
X15962500Y-9517500D01*
X15991071Y-9503214D01*
X16219643Y-9774643D02*
X16233928Y-9788929D01*
X16219643Y-9803214D01*
X16205357Y-9788929D01*
X16219643Y-9774643D01*
X16219643Y-9803214D01*
X16505357Y-9503214D02*
X16362500Y-9503214D01*
X16348214Y-9646072D01*
X16362500Y-9631786D01*
X16391071Y-9617500D01*
X16462500Y-9617500D01*
X16491071Y-9631786D01*
X16505357Y-9646072D01*
X16519643Y-9674643D01*
X16519643Y-9746072D01*
X16505357Y-9774643D01*
X16491071Y-9788929D01*
X16462500Y-9803214D01*
X16391071Y-9803214D01*
X16362500Y-9788929D01*
X16348214Y-9774643D01*
X16705357Y-9503214D02*
X16733928Y-9503214D01*
X16762500Y-9517500D01*
X16776786Y-9531786D01*
X16791071Y-9560357D01*
X16805357Y-9617500D01*
X16805357Y-9688929D01*
X16791071Y-9746072D01*
X16776786Y-9774643D01*
X16762500Y-9788929D01*
X16733928Y-9803214D01*
X16705357Y-9803214D01*
X16676786Y-9788929D01*
X16662500Y-9774643D01*
X16648214Y-9746072D01*
X16633928Y-9688929D01*
X16633928Y-9617500D01*
X16648214Y-9560357D01*
X16662500Y-9531786D01*
X16676786Y-9517500D01*
X16705357Y-9503214D01*
X16933929Y-9803214D02*
X16933929Y-9603214D01*
X16933929Y-9631786D02*
X16948214Y-9617500D01*
X16976786Y-9603214D01*
X17019643Y-9603214D01*
X17048214Y-9617500D01*
X17062500Y-9646072D01*
X17062500Y-9803214D01*
X17062500Y-9646072D02*
X17076786Y-9617500D01*
X17105357Y-9603214D01*
X17148214Y-9603214D01*
X17176786Y-9617500D01*
X17191071Y-9646072D01*
X17191071Y-9803214D01*
X17333929Y-9803214D02*
X17333929Y-9603214D01*
X17333929Y-9631786D02*
X17348214Y-9617500D01*
X17376786Y-9603214D01*
X17419643Y-9603214D01*
X17448214Y-9617500D01*
X17462500Y-9646072D01*
X17462500Y-9803214D01*
X17462500Y-9646072D02*
X17476786Y-9617500D01*
X17505357Y-9603214D01*
X17548214Y-9603214D01*
X17576786Y-9617500D01*
X17591071Y-9646072D01*
X17591071Y-9803214D01*
X18176786Y-9488929D02*
X17919643Y-9874643D01*
X18562500Y-9503214D02*
X18591071Y-9503214D01*
X18619643Y-9517500D01*
X18633928Y-9531786D01*
X18648214Y-9560357D01*
X18662500Y-9617500D01*
X18662500Y-9688929D01*
X18648214Y-9746072D01*
X18633928Y-9774643D01*
X18619643Y-9788929D01*
X18591071Y-9803214D01*
X18562500Y-9803214D01*
X18533928Y-9788929D01*
X18519643Y-9774643D01*
X18505357Y-9746072D01*
X18491071Y-9688929D01*
X18491071Y-9617500D01*
X18505357Y-9560357D01*
X18519643Y-9531786D01*
X18533928Y-9517500D01*
X18562500Y-9503214D01*
X18791071Y-9774643D02*
X18805357Y-9788929D01*
X18791071Y-9803214D01*
X18776786Y-9788929D01*
X18791071Y-9774643D01*
X18791071Y-9803214D01*
X18991071Y-9503214D02*
X19019643Y-9503214D01*
X19048214Y-9517500D01*
X19062500Y-9531786D01*
X19076786Y-9560357D01*
X19091071Y-9617500D01*
X19091071Y-9688929D01*
X19076786Y-9746072D01*
X19062500Y-9774643D01*
X19048214Y-9788929D01*
X19019643Y-9803214D01*
X18991071Y-9803214D01*
X18962500Y-9788929D01*
X18948214Y-9774643D01*
X18933928Y-9746072D01*
X18919643Y-9688929D01*
X18919643Y-9617500D01*
X18933928Y-9560357D01*
X18948214Y-9531786D01*
X18962500Y-9517500D01*
X18991071Y-9503214D01*
X19205357Y-9531786D02*
X19219643Y-9517500D01*
X19248214Y-9503214D01*
X19319643Y-9503214D01*
X19348214Y-9517500D01*
X19362500Y-9531786D01*
X19376786Y-9560357D01*
X19376786Y-9588929D01*
X19362500Y-9631786D01*
X19191071Y-9803214D01*
X19376786Y-9803214D01*
X19562500Y-9503214D02*
X19591071Y-9503214D01*
X19619643Y-9517500D01*
X19633928Y-9531786D01*
X19648214Y-9560357D01*
X19662500Y-9617500D01*
X19662500Y-9688929D01*
X19648214Y-9746072D01*
X19633928Y-9774643D01*
X19619643Y-9788929D01*
X19591071Y-9803214D01*
X19562500Y-9803214D01*
X19533928Y-9788929D01*
X19519643Y-9774643D01*
X19505357Y-9746072D01*
X19491071Y-9688929D01*
X19491071Y-9617500D01*
X19505357Y-9560357D01*
X19519643Y-9531786D01*
X19533928Y-9517500D01*
X19562500Y-9503214D01*
X19776786Y-9503214D02*
X19776786Y-9560357D01*
X19891071Y-9503214D02*
X19891071Y-9560357D01*
X20333928Y-9917500D02*
X20319643Y-9903214D01*
X20291071Y-9860357D01*
X20276786Y-9831786D01*
X20262500Y-9788929D01*
X20248214Y-9717500D01*
X20248214Y-9660357D01*
X20262500Y-9588929D01*
X20276786Y-9546072D01*
X20291071Y-9517500D01*
X20319643Y-9474643D01*
X20333928Y-9460357D01*
X20605357Y-9803214D02*
X20433928Y-9803214D01*
X20519643Y-9803214D02*
X20519643Y-9503214D01*
X20491071Y-9546072D01*
X20462500Y-9574643D01*
X20433928Y-9588929D01*
X20776786Y-9631786D02*
X20748214Y-9617500D01*
X20733928Y-9603214D01*
X20719643Y-9574643D01*
X20719643Y-9560357D01*
X20733928Y-9531786D01*
X20748214Y-9517500D01*
X20776786Y-9503214D01*
X20833928Y-9503214D01*
X20862500Y-9517500D01*
X20876786Y-9531786D01*
X20891071Y-9560357D01*
X20891071Y-9574643D01*
X20876786Y-9603214D01*
X20862500Y-9617500D01*
X20833928Y-9631786D01*
X20776786Y-9631786D01*
X20748214Y-9646072D01*
X20733928Y-9660357D01*
X20719643Y-9688929D01*
X20719643Y-9746072D01*
X20733928Y-9774643D01*
X20748214Y-9788929D01*
X20776786Y-9803214D01*
X20833928Y-9803214D01*
X20862500Y-9788929D01*
X20876786Y-9774643D01*
X20891071Y-9746072D01*
X20891071Y-9688929D01*
X20876786Y-9660357D01*
X20862500Y-9646072D01*
X20833928Y-9631786D01*
X21248214Y-9803214D02*
X21248214Y-9503214D01*
X21376786Y-9803214D02*
X21376786Y-9646072D01*
X21362500Y-9617500D01*
X21333928Y-9603214D01*
X21291071Y-9603214D01*
X21262500Y-9617500D01*
X21248214Y-9631786D01*
X21562500Y-9803214D02*
X21533928Y-9788929D01*
X21519643Y-9774643D01*
X21505357Y-9746072D01*
X21505357Y-9660357D01*
X21519643Y-9631786D01*
X21533928Y-9617500D01*
X21562500Y-9603214D01*
X21605357Y-9603214D01*
X21633928Y-9617500D01*
X21648214Y-9631786D01*
X21662500Y-9660357D01*
X21662500Y-9746072D01*
X21648214Y-9774643D01*
X21633928Y-9788929D01*
X21605357Y-9803214D01*
X21562500Y-9803214D01*
X21833928Y-9803214D02*
X21805357Y-9788929D01*
X21791071Y-9760357D01*
X21791071Y-9503214D01*
X22062500Y-9788929D02*
X22033929Y-9803214D01*
X21976786Y-9803214D01*
X21948214Y-9788929D01*
X21933929Y-9760357D01*
X21933929Y-9646072D01*
X21948214Y-9617500D01*
X21976786Y-9603214D01*
X22033929Y-9603214D01*
X22062500Y-9617500D01*
X22076786Y-9646072D01*
X22076786Y-9674643D01*
X21933929Y-9703214D01*
X22191071Y-9788929D02*
X22219643Y-9803214D01*
X22276786Y-9803214D01*
X22305357Y-9788929D01*
X22319643Y-9760357D01*
X22319643Y-9746072D01*
X22305357Y-9717500D01*
X22276786Y-9703214D01*
X22233929Y-9703214D01*
X22205357Y-9688929D01*
X22191071Y-9660357D01*
X22191071Y-9646072D01*
X22205357Y-9617500D01*
X22233929Y-9603214D01*
X22276786Y-9603214D01*
X22305357Y-9617500D01*
X22419643Y-9917500D02*
X22433928Y-9903214D01*
X22462500Y-9860357D01*
X22476786Y-9831786D01*
X22491071Y-9788929D01*
X22505357Y-9717500D01*
X22505357Y-9660357D01*
X22491071Y-9588929D01*
X22476786Y-9546072D01*
X22462500Y-9517500D01*
X22433928Y-9474643D01*
X22419643Y-9460357D01*
X22962500Y-9917500D02*
X22948214Y-9903214D01*
X22919643Y-9860357D01*
X22905357Y-9831786D01*
X22891071Y-9788929D01*
X22876786Y-9717500D01*
X22876786Y-9660357D01*
X22891071Y-9588929D01*
X22905357Y-9546072D01*
X22919643Y-9517500D01*
X22948214Y-9474643D01*
X22962500Y-9460357D01*
X23076786Y-9603214D02*
X23076786Y-9803214D01*
X23076786Y-9631786D02*
X23091071Y-9617500D01*
X23119643Y-9603214D01*
X23162500Y-9603214D01*
X23191071Y-9617500D01*
X23205357Y-9646072D01*
X23205357Y-9803214D01*
X23391071Y-9803214D02*
X23362500Y-9788929D01*
X23348214Y-9774643D01*
X23333928Y-9746072D01*
X23333928Y-9660357D01*
X23348214Y-9631786D01*
X23362500Y-9617500D01*
X23391071Y-9603214D01*
X23433928Y-9603214D01*
X23462500Y-9617500D01*
X23476786Y-9631786D01*
X23491071Y-9660357D01*
X23491071Y-9746072D01*
X23476786Y-9774643D01*
X23462500Y-9788929D01*
X23433928Y-9803214D01*
X23391071Y-9803214D01*
X23576786Y-9603214D02*
X23691071Y-9603214D01*
X23619643Y-9503214D02*
X23619643Y-9760357D01*
X23633928Y-9788929D01*
X23662500Y-9803214D01*
X23691071Y-9803214D01*
X24019643Y-9603214D02*
X24019643Y-9903214D01*
X24019643Y-9617500D02*
X24048214Y-9603214D01*
X24105357Y-9603214D01*
X24133928Y-9617500D01*
X24148214Y-9631786D01*
X24162500Y-9660357D01*
X24162500Y-9746072D01*
X24148214Y-9774643D01*
X24133928Y-9788929D01*
X24105357Y-9803214D01*
X24048214Y-9803214D01*
X24019643Y-9788929D01*
X24333928Y-9803214D02*
X24305357Y-9788929D01*
X24291071Y-9760357D01*
X24291071Y-9503214D01*
X24576786Y-9803214D02*
X24576786Y-9646072D01*
X24562500Y-9617500D01*
X24533929Y-9603214D01*
X24476786Y-9603214D01*
X24448214Y-9617500D01*
X24576786Y-9788929D02*
X24548214Y-9803214D01*
X24476786Y-9803214D01*
X24448214Y-9788929D01*
X24433929Y-9760357D01*
X24433929Y-9731786D01*
X24448214Y-9703214D01*
X24476786Y-9688929D01*
X24548214Y-9688929D01*
X24576786Y-9674643D01*
X24676786Y-9603214D02*
X24791071Y-9603214D01*
X24719643Y-9503214D02*
X24719643Y-9760357D01*
X24733929Y-9788929D01*
X24762500Y-9803214D01*
X24791071Y-9803214D01*
X25005357Y-9788929D02*
X24976786Y-9803214D01*
X24919643Y-9803214D01*
X24891071Y-9788929D01*
X24876786Y-9760357D01*
X24876786Y-9646072D01*
X24891071Y-9617500D01*
X24919643Y-9603214D01*
X24976786Y-9603214D01*
X25005357Y-9617500D01*
X25019643Y-9646072D01*
X25019643Y-9674643D01*
X24876786Y-9703214D01*
X25276786Y-9803214D02*
X25276786Y-9503214D01*
X25276786Y-9788929D02*
X25248214Y-9803214D01*
X25191071Y-9803214D01*
X25162500Y-9788929D01*
X25148214Y-9774643D01*
X25133929Y-9746072D01*
X25133929Y-9660357D01*
X25148214Y-9631786D01*
X25162500Y-9617500D01*
X25191071Y-9603214D01*
X25248214Y-9603214D01*
X25276786Y-9617500D01*
X25391071Y-9917500D02*
X25405357Y-9903214D01*
X25433929Y-9860357D01*
X25448214Y-9831786D01*
X25462500Y-9788929D01*
X25476786Y-9717500D01*
X25476786Y-9660357D01*
X25462500Y-9588929D01*
X25448214Y-9546072D01*
X25433929Y-9517500D01*
X25405357Y-9474643D01*
X25391071Y-9460357D01*
M02*
